<svg version="1.1" xmlns="http://www.w3.org/2000/svg" viewBox="0 0 953.5535714285706 412.05669350772405" width="953.5535714285706" height="412.05669350772405">
  <!-- svg-source:excalidraw -->
  
  <defs>
    <style class="style-fonts">
      @font-face {
        font-family: "Virgil";
        src: url("https://excalidraw.com/Virgil.woff2");
      }
      @font-face {
        font-family: "Cascadia";
        src: url("https://excalidraw.com/Cascadia.woff2");
      }
      @font-face {
        font-family: "Assistant";
        src: url("https://excalidraw.com/Assistant-Regular.woff2");
      }
    </style>
    
  </defs>
  <rect x="0" y="0" width="953.5535714285706" height="412.05669350772405" fill="#ffffff"></rect><g transform="translate(70.83004760742188 119.55669350772405) rotate(0 65.43196105957031 30)"><text x="0" y="0" font-family="Virgil, Segoe UI Emoji" font-size="16px" fill="#1e1e1e" text-anchor="start" style="white-space: pre;" direction="ltr" dominant-baseline="text-before-edge">key: ip</text><text x="0" y="20" font-family="Virgil, Segoe UI Emoji" font-size="16px" fill="#1e1e1e" text-anchor="start" style="white-space: pre;" direction="ltr" dominant-baseline="text-before-edge">    service_port</text><text x="0" y="40" font-family="Virgil, Segoe UI Emoji" font-size="16px" fill="#1e1e1e" text-anchor="start" style="white-space: pre;" direction="ltr" dominant-baseline="text-before-edge">val: service_id</text></g><g stroke-linecap="round" transform="translate(67.74600982666016 78.55669350772405) rotate(0 62.5 15)"><path d="M7.5 0 C33.91 -3.97, 54.34 -3.87, 117.5 0 C121.93 -3.33, 126.55 5.73, 125 7.5 C122.83 13.42, 124.09 17.13, 125 22.5 C126.24 27.97, 125.91 30.96, 117.5 30 C89.83 29.67, 66.89 31.83, 7.5 30 C3.21 31.05, 1.01 24.79, 0 22.5 C0.37 19.45, 0.27 10.08, 0 7.5 C2.8 3.17, -0.63 -1.7, 7.5 0" stroke="none" stroke-width="0" fill="#b2f2bb"></path><path d="M7.5 0 C47.02 0.72, 85.21 -0.38, 117.5 0 M7.5 0 C45.45 0.78, 83.22 1.09, 117.5 0 M117.5 0 C122.04 1.82, 124.52 2.66, 125 7.5 M117.5 0 C122.59 -0.62, 125.65 3.35, 125 7.5 M125 7.5 C125.16 12.32, 125.92 17.64, 125 22.5 M125 7.5 C124.98 13.82, 125.74 19.26, 125 22.5 M125 22.5 C124.97 26.4, 123.11 31.55, 117.5 30 M125 22.5 C126.57 27.98, 123.09 30.65, 117.5 30 M117.5 30 C90.96 30.99, 60.76 28.86, 7.5 30 M117.5 30 C75.68 28.75, 33.84 29.97, 7.5 30 M7.5 30 C1.17 30.41, -1.61 28.04, 0 22.5 M7.5 30 C2.59 28.65, -1.21 25.65, 0 22.5 M0 22.5 C0.68 18.03, -0.83 15.83, 0 7.5 M0 22.5 C-0.08 18.06, 0.55 13.14, 0 7.5 M0 7.5 C-0.48 3.5, 2.7 -0.66, 7.5 0 M0 7.5 C1.14 0.73, 2.58 1.78, 7.5 0" stroke="#1e1e1e" stroke-width="1" fill="none"></path></g><g transform="translate(97.56603240966797 83.55669350772405) rotate(0 32.67997741699219 10)"><text x="32.67997741699219" y="0" font-family="Virgil, Segoe UI Emoji" font-size="16px" fill="#1e1e1e" text-anchor="middle" style="white-space: pre;" direction="ltr" dominant-baseline="text-before-edge">frontend</text></g><g stroke-linecap="round" transform="translate(49.25 61.55669350772405) rotate(0 91 67.5)"><path d="M32 0 C68.08 0.44, 101.9 0.66, 150 0 M32 0 C73.3 -0.07, 114.82 -0.9, 150 0 M150 0 C171.41 -0.54, 182.57 11.4, 182 32 M150 0 C172.65 1.33, 182.91 10.78, 182 32 M182 32 C184.33 50.81, 182.92 69.47, 182 103 M182 32 C182.69 56.21, 183.01 82.29, 182 103 M182 103 C183.36 124.75, 171.85 135.57, 150 135 M182 103 C181.04 125.75, 170.44 137.14, 150 135 M150 135 C107.85 135.76, 61.02 134.83, 32 135 M150 135 C119.38 136.09, 89.29 136.16, 32 135 M32 135 C10.75 133.83, -1.05 122.73, 0 103 M32 135 C9.55 133.32, -0.94 125.21, 0 103 M0 103 C0.8 85.74, 2.09 66.91, 0 32 M0 103 C-0.81 79.14, -0.47 53.96, 0 32 M0 32 C0.99 9.13, 10.73 1.54, 32 0 M0 32 C-1.85 12.92, 12.69 1.45, 32 0" stroke="#1e1e1e" stroke-width="1" fill="none"></path></g><g transform="translate(35.40204620361328 353.05669350772405) rotate(0 76.46395874023438 20)"><text x="0" y="0" font-family="Virgil, Segoe UI Emoji" font-size="16px" fill="#1e1e1e" text-anchor="start" style="white-space: pre;" direction="ltr" dominant-baseline="text-before-edge">key: service_id</text><text x="0" y="20" font-family="Virgil, Segoe UI Emoji" font-size="16px" fill="#1e1e1e" text-anchor="start" style="white-space: pre;" direction="ltr" dominant-baseline="text-before-edge">val: endpoint_count</text></g><g stroke-linecap="round" transform="translate(32.496009826660156 314.05669350772405) rotate(0 62.5 15)"><path d="M7.5 0 C32.16 1.11, 54.34 -4.95, 117.5 0 C123.37 -1.5, 123.79 3.74, 125 7.5 C123.5 14.31, 127.72 15.52, 125 22.5 C122.86 28.57, 122.52 30.71, 117.5 30 C83.93 29.49, 44.49 29.1, 7.5 30 C5.89 30.46, -1.65 30.3, 0 22.5 C-0.82 15.87, -2.33 11.28, 0 7.5 C-1.12 4.93, 3.09 0.78, 7.5 0" stroke="none" stroke-width="0" fill="#b2f2bb"></path><path d="M7.5 0 C40.25 -0.39, 72.58 -0.45, 117.5 0 M7.5 0 C50.58 -0.36, 93.86 0.28, 117.5 0 M117.5 0 C123.65 1.16, 125.79 2.6, 125 7.5 M117.5 0 C121.68 1.28, 124.12 4.73, 125 7.5 M125 7.5 C125.77 13.51, 124.74 16.55, 125 22.5 M125 7.5 C125.56 11.33, 125.24 15.06, 125 22.5 M125 22.5 C124.16 28.74, 121.72 31.86, 117.5 30 M125 22.5 C126.63 27.56, 121.68 31.87, 117.5 30 M117.5 30 C77.09 30.63, 40.03 28.81, 7.5 30 M117.5 30 C82.28 29.71, 46.46 29.5, 7.5 30 M7.5 30 C1.53 28.54, -0.81 28.26, 0 22.5 M7.5 30 C1.43 28.55, 1.34 27.9, 0 22.5 M0 22.5 C0.52 18.65, 0.21 12.02, 0 7.5 M0 22.5 C0.36 16.68, 0.01 12.58, 0 7.5 M0 7.5 C-1.61 4.46, 4.26 1.26, 7.5 0 M0 7.5 C-1.43 1.57, 1.14 -0.36, 7.5 0" stroke="#1e1e1e" stroke-width="1" fill="none"></path></g><g transform="translate(68.50802612304688 319.05669350772405) rotate(0 26.48798370361328 10)"><text x="26.48798370361328" y="0" font-family="Virgil, Segoe UI Emoji" font-size="16px" fill="#1e1e1e" text-anchor="middle" style="white-space: pre;" direction="ltr" dominant-baseline="text-before-edge">service</text></g><g stroke-linecap="round" transform="translate(10 300.05669350772405) rotate(0 97.5 51)"><path d="M25.5 0 C67.66 -0.15, 106.34 0.41, 169.5 0 M25.5 0 C65.41 0.05, 104.56 -0.48, 169.5 0 M169.5 0 C185.78 1.11, 194.23 10.44, 195 25.5 M169.5 0 C186.55 0.6, 194.94 9.62, 195 25.5 M195 25.5 C193.8 46.44, 196.45 67.52, 195 76.5 M195 25.5 C194.71 42.49, 194.74 59.16, 195 76.5 M195 76.5 C196.42 93.55, 185.79 103.63, 169.5 102 M195 76.5 C196.36 91.86, 186.79 100.94, 169.5 102 M169.5 102 C123.19 99.44, 76.61 101.12, 25.5 102 M169.5 102 C134.24 100.11, 99.54 101.22, 25.5 102 M25.5 102 C7.57 100.74, 1.16 93.85, 0 76.5 M25.5 102 C9.36 103.89, -0.08 94.49, 0 76.5 M0 76.5 C0.88 57.3, -0.77 38.69, 0 25.5 M0 76.5 C-0.82 66.1, 0.86 54.38, 0 25.5 M0 25.5 C-1.24 7.69, 7.32 -0.32, 25.5 0 M0 25.5 C-2.13 9.49, 10.56 1.18, 25.5 0" stroke="#1e1e1e" stroke-width="1" fill="none"></path></g><g transform="translate(700.9020462036133 96.80669350772405) rotate(0 71.49596405029297 30)"><text x="0" y="0" font-family="Virgil, Segoe UI Emoji" font-size="16px" fill="#1e1e1e" text-anchor="start" style="white-space: pre;" direction="ltr" dominant-baseline="text-before-edge">key: service_id</text><text x="0" y="20" font-family="Virgil, Segoe UI Emoji" font-size="16px" fill="#1e1e1e" text-anchor="start" style="white-space: pre;" direction="ltr" dominant-baseline="text-before-edge">    backend_index</text><text x="0" y="40" font-family="Virgil, Segoe UI Emoji" font-size="16px" fill="#1e1e1e" text-anchor="start" style="white-space: pre;" direction="ltr" dominant-baseline="text-before-edge">val: backend_uid</text></g><g stroke-linecap="round" transform="translate(703.7460098266602 47.80669350772405) rotate(0 62.5 15)"><path d="M7.5 0 C36.4 2.73, 65.31 -3.02, 117.5 0 C125.32 3.29, 123.17 0.36, 125 7.5 C125.79 13.2, 122.97 19.37, 125 22.5 C125.98 26.88, 123.09 33.39, 117.5 30 C83.76 28.41, 46.98 30.14, 7.5 30 C0.03 26.58, -2.21 26.38, 0 22.5 C1.39 17.32, -2.08 13.15, 0 7.5 C0.6 -1.06, 0.94 2.52, 7.5 0" stroke="none" stroke-width="0" fill="#b2f2bb"></path><path d="M7.5 0 C37.33 0.52, 68.97 1.1, 117.5 0 M7.5 0 C46.5 0.5, 85.84 0.92, 117.5 0 M117.5 0 C122.54 0.52, 124.94 3.47, 125 7.5 M117.5 0 C124.77 -0.46, 124.97 1.23, 125 7.5 M125 7.5 C125.43 12.84, 125.54 16.79, 125 22.5 M125 7.5 C125.47 12.95, 124.67 18.96, 125 22.5 M125 22.5 C126.18 26.07, 122.75 29.08, 117.5 30 M125 22.5 C125.56 29.23, 120.97 30.47, 117.5 30 M117.5 30 C92.16 28.99, 67.55 29.07, 7.5 30 M117.5 30 C92.07 29.79, 68.14 30.59, 7.5 30 M7.5 30 C3.25 31.64, -0.07 28.36, 0 22.5 M7.5 30 C4.35 30.5, -0.55 28.65, 0 22.5 M0 22.5 C-1.1 17.9, 1.21 11.99, 0 7.5 M0 22.5 C-0.6 16.23, -0.58 10.44, 0 7.5 M0 7.5 C-1.85 3.36, 4.29 1.02, 7.5 0 M0 7.5 C1.84 3.27, 0.47 0.56, 7.5 0" stroke="#1e1e1e" stroke-width="1" fill="none"></path></g><g transform="translate(735.1980285644531 52.80669350772405) rotate(0 31.04798126220703 10)"><text x="31.04798126220703" y="0" font-family="Virgil, Segoe UI Emoji" font-size="16px" fill="#1e1e1e" text-anchor="middle" style="white-space: pre;" direction="ltr" dominant-baseline="text-before-edge">endpoint</text></g><g stroke-linecap="round" transform="translate(678.25 41.80669350772405) rotate(0 92 67)"><path d="M32 0 C72.56 0.1, 110.91 -1.4, 152 0 M32 0 C74.68 -0.9, 117.28 -0.68, 152 0 M152 0 C175.3 -0.4, 183.97 9.57, 184 32 M152 0 C174.04 1.78, 185.57 11.15, 184 32 M184 32 C185.43 54.02, 186.06 79.02, 184 102 M184 32 C184.34 52.47, 183.88 73.91, 184 102 M184 102 C184.49 124.84, 172 134.41, 152 134 M184 102 C182.15 123.96, 173.42 132.65, 152 134 M152 134 C120.87 132.6, 93.42 132.49, 32 134 M152 134 C123.92 135.03, 95.06 134.64, 32 134 M32 134 C12.28 134.44, -0.48 124.33, 0 102 M32 134 C10.9 133.24, 1.14 121.56, 0 102 M0 102 C1.42 82.53, 0.72 58.3, 0 32 M0 102 C-0.51 84.27, 1.31 66.18, 0 32 M0 32 C1.6 11.34, 8.9 0.48, 32 0 M0 32 C-0.96 9.89, 11.46 0.3, 32 0" stroke="#1e1e1e" stroke-width="1" fill="none"></path></g><g transform="translate(105.30892166375725 10) rotate(0 65.0390625 11.5)"><text x="0" y="0" font-family="Helvetica, Segoe UI Emoji" font-size="20px" fill="#1971c2" text-anchor="start" style="white-space: pre;" direction="ltr" dominant-baseline="text-before-edge">delete process</text></g><g transform="translate(315.72010040283203 146.04084675386184) rotate(0 125.27989959716797 25)"><text x="0" y="0" font-family="Virgil, Segoe UI Emoji" font-size="20px" fill="#1e1e1e" text-anchor="start" style="white-space: pre;" direction="ltr" dominant-baseline="text-before-edge">del workload info</text><text x="0" y="25" font-family="Virgil, Segoe UI Emoji" font-size="20px" fill="#1e1e1e" text-anchor="start" style="white-space: pre;" direction="ltr" dominant-baseline="text-before-edge">    note:fix hollow scenes</text></g><g transform="translate(288.8001708984375 246.54084675386184) rotate(0 170.42984008789062 37.5)"><text x="0" y="0" font-family="Virgil, Segoe UI Emoji" font-size="20px" fill="#1e1e1e" text-anchor="start" style="white-space: pre;" direction="ltr" dominant-baseline="text-before-edge">del service</text><text x="0" y="25" font-family="Virgil, Segoe UI Emoji" font-size="20px" fill="#1e1e1e" text-anchor="start" style="white-space: pre;" direction="ltr" dominant-baseline="text-before-edge">1.update backend without port info</text><text x="0" y="50" font-family="Virgil, Segoe UI Emoji" font-size="20px" fill="#1e1e1e" text-anchor="start" style="white-space: pre;" direction="ltr" dominant-baseline="text-before-edge">2.del endpoint、service、frontend</text></g><g stroke-linecap="round"><g transform="translate(582 177.25685591472302) rotate(0 46.5 -33.09478079737028)"><path d="M-1.16 0.75 C14.12 -10.29, 76.97 -54.65, 92.51 -65.96 M0.43 0.1 C15.43 -11.35, 75.62 -56.9, 91.31 -67.96" stroke="#e03131" stroke-width="1" fill="none"></path></g><g transform="translate(582 177.25685591472302) rotate(0 46.5 -33.09478079737028)"><path d="M77.43 -47.16 C83.81 -55.59, 88.12 -63.99, 91.31 -67.96 M77.43 -47.16 C81.15 -51.33, 83.53 -56.69, 91.31 -67.96" stroke="#e03131" stroke-width="1" fill="none"></path></g><g transform="translate(582 177.25685591472302) rotate(0 46.5 -33.09478079737028)"><path d="M67.31 -60.94 C77.49 -64.14, 85.58 -67.4, 91.31 -67.96 M67.31 -60.94 C73.22 -62.02, 77.88 -64.28, 91.31 -67.96" stroke="#e03131" stroke-width="1" fill="none"></path></g></g><mask></mask><g stroke-linecap="round"><g transform="translate(314.72010040283203 168.42052409898315) rotate(0 -53.860050201416016 85.10409476988752)"><path d="M0.55 -0.75 C-17.63 27.44, -89.91 141.23, -108.01 169.9 M-0.62 1.46 C-19.07 29.77, -91.06 143.28, -109.11 171.27" stroke="#e03131" stroke-width="1" fill="none"></path></g><g transform="translate(314.72010040283203 168.42052409898315) rotate(0 -53.860050201416016 85.10409476988752)"><path d="M-103.67 146.87 C-106.89 155.89, -108.27 165.34, -109.11 171.27 M-103.67 146.87 C-105.54 156.97, -107.85 165.37, -109.11 171.27" stroke="#e03131" stroke-width="1" fill="none"></path></g><g transform="translate(314.72010040283203 168.42052409898315) rotate(0 -53.860050201416016 85.10409476988752)"><path d="M-89.26 156.08 C-98.13 161.59, -105.11 167.46, -109.11 171.27 M-89.26 156.08 C-96.71 162.67, -104.55 167.54, -109.11 171.27" stroke="#e03131" stroke-width="1" fill="none"></path></g></g><mask></mask><g stroke-linecap="round"><g transform="translate(573.4667271551743 196.7798464556572) rotate(0 61.64163642241283 35.63416786526477)"><path d="M0.59 0.45 C21.09 12.18, 102.41 58.59, 122.88 70.51 M-0.57 -0.36 C19.76 11.5, 101.18 59.93, 121.72 71.64" stroke="#e03131" stroke-width="1" fill="none"></path></g><g transform="translate(573.4667271551743 196.7798464556572) rotate(0 61.64163642241283 35.63416786526477)"><path d="M97.12 67.18 C104.97 67.67, 110.04 69.81, 121.72 71.64 M97.12 67.18 C106.31 67.88, 114.33 70.19, 121.72 71.64" stroke="#e03131" stroke-width="1" fill="none"></path></g><g transform="translate(573.4667271551743 196.7798464556572) rotate(0 61.64163642241283 35.63416786526477)"><path d="M105.75 52.41 C111.12 57.21, 113.7 63.59, 121.72 71.64 M105.75 52.41 C111.99 58.33, 116.94 65.89, 121.72 71.64" stroke="#e03131" stroke-width="1" fill="none"></path></g></g><mask></mask><g stroke-linecap="round"><g transform="translate(283 263.54825263092243) rotate(0 -36 42.88958020291602)"><path d="M-0.47 0.96 C-12.65 14.97, -60.66 70.9, -72.54 84.88 M1.49 0.41 C-10.95 14.49, -61.46 71.74, -73.77 85.94" stroke="#e03131" stroke-width="1" fill="none"></path></g><g transform="translate(283 263.54825263092243) rotate(0 -36 42.88958020291602)"><path d="M-64.72 62.63 C-66.13 69.83, -72.39 79.29, -73.77 85.94 M-64.72 62.63 C-66.78 66.94, -68.57 72.5, -73.77 85.94" stroke="#e03131" stroke-width="1" fill="none"></path></g><g transform="translate(283 263.54825263092243) rotate(0 -36 42.88958020291602)"><path d="M-51.86 73.9 C-57.83 77.12, -68.57 82.64, -73.77 85.94 M-51.86 73.9 C-56.78 75.77, -61.37 78.88, -73.77 85.94" stroke="#e03131" stroke-width="1" fill="none"></path></g></g><mask></mask><g stroke-linecap="round"><g transform="translate(646.1998291015625 284.9320724930003) rotate(0 25.275085449218977 6.346938218170635)"><path d="M-1.14 -0.27 C7.12 2.01, 41.26 10.59, 49.97 12.68 M0.46 -1.46 C9.09 1.11, 44.01 11.74, 52.37 14.21" stroke="#e03131" stroke-width="1" fill="none"></path></g><g transform="translate(646.1998291015625 284.9320724930003) rotate(0 25.275085449218977 6.346938218170635)"><path d="M27.41 15.64 C35.23 14.43, 43.93 15.84, 52.37 14.21 M27.41 15.64 C34.2 15.84, 39.56 15.44, 52.37 14.21" stroke="#e03131" stroke-width="1" fill="none"></path></g><g transform="translate(646.1998291015625 284.9320724930003) rotate(0 25.275085449218977 6.346938218170635)"><path d="M32.33 -0.74 C38.39 3.43, 45.45 10.26, 52.37 14.21 M32.33 -0.74 C37.94 3.77, 42 7.69, 52.37 14.21" stroke="#e03131" stroke-width="1" fill="none"></path></g></g><mask></mask><g stroke-linecap="round"><g transform="translate(311.4598274630803 323.34101765229934) rotate(0 -49.72991373154014 29.165273538567362)"><path d="M0.35 1.02 C-16.37 10.5, -83.35 47.5, -99.99 57.13 M-0.92 0.52 C-17.89 10.07, -84.66 48.66, -101.21 58.04" stroke="#e03131" stroke-width="1" fill="none"></path></g><g transform="translate(311.4598274630803 323.34101765229934) rotate(0 -49.72991373154014 29.165273538567362)"><path d="M-85.08 38.95 C-88.67 44.43, -97.71 51.64, -101.21 58.04 M-85.08 38.95 C-90.43 46.28, -95.58 52.75, -101.21 58.04" stroke="#e03131" stroke-width="1" fill="none"></path></g><g transform="translate(311.4598274630803 323.34101765229934) rotate(0 -49.72991373154014 29.165273538567362)"><path d="M-76.58 53.78 C-83.01 54.39, -94.87 56.68, -101.21 58.04 M-76.58 53.78 C-84.99 56.01, -93.07 57.38, -101.21 58.04" stroke="#e03131" stroke-width="1" fill="none"></path></g></g><mask></mask><g stroke-linecap="round"><g transform="translate(640.4600219726562 302.54581221690023) rotate(0 18.394989013671875 -87.54693575422425)"><path d="M-0.16 -0.2 C5.76 -29.45, 30.33 -145.95, 36.56 -175.23 M-1.7 -1.35 C3.94 -30.43, 29.1 -144.83, 35.49 -173.77" stroke="#e03131" stroke-width="1" fill="none"></path></g><g transform="translate(640.4600219726562 302.54581221690023) rotate(0 18.394989013671875 -87.54693575422425)"><path d="M38.79 -148.99 C37.12 -158.99, 35.94 -167.58, 35.49 -173.77 M38.79 -148.99 C37.26 -154.49, 38.39 -159.84, 35.49 -173.77" stroke="#e03131" stroke-width="1" fill="none"></path></g><g transform="translate(640.4600219726562 302.54581221690023) rotate(0 18.394989013671875 -87.54693575422425)"><path d="M22.09 -152.66 C26.9 -161.22, 32.2 -168.38, 35.49 -173.77 M22.09 -152.66 C24.42 -157.39, 29.44 -161.89, 35.49 -173.77" stroke="#e03131" stroke-width="1" fill="none"></path></g></g><mask></mask><g stroke-linecap="round"><g transform="translate(287 311.37145168191) rotate(0 -46.54290410773274 -56.66530246402408)"><path d="M-0.65 0.04 C-12.91 -6.51, -58.95 -20.58, -74.22 -39.52 C-89.49 -58.47, -89.05 -101.4, -92.27 -113.63 M1.21 -0.98 C-11.08 -7.33, -59.12 -19.51, -74.76 -38.09 C-90.4 -56.67, -89.49 -100.22, -92.61 -112.46" stroke="#e03131" stroke-width="1" fill="none"></path></g><g transform="translate(287 311.37145168191) rotate(0 -46.54290410773274 -56.66530246402408)"><path d="M-81.17 -90.24 C-83.85 -94.41, -87.02 -99.76, -92.61 -112.46 M-81.17 -90.24 C-83.26 -96.95, -86.75 -101.91, -92.61 -112.46" stroke="#e03131" stroke-width="1" fill="none"></path></g><g transform="translate(287 311.37145168191) rotate(0 -46.54290410773274 -56.66530246402408)"><path d="M-98.14 -88.08 C-96.68 -92.69, -95.73 -98.56, -92.61 -112.46 M-98.14 -88.08 C-95.54 -95.45, -94.36 -101.01, -92.61 -112.46" stroke="#e03131" stroke-width="1" fill="none"></path></g></g><mask></mask><g transform="translate(749.5495812552308 274.314656277671) rotate(0 89.51994323730469 50)"><text x="0" y="0" font-family="Virgil, Segoe UI Emoji" font-size="16px" fill="#1e1e1e" text-anchor="start" style="white-space: pre;" direction="ltr" dominant-baseline="text-before-edge">key: backend_uid</text><text x="0" y="20" font-family="Virgil, Segoe UI Emoji" font-size="16px" fill="#1e1e1e" text-anchor="start" style="white-space: pre;" direction="ltr" dominant-baseline="text-before-edge">val: ip</text><text x="0" y="40" font-family="Virgil, Segoe UI Emoji" font-size="16px" fill="#1e1e1e" text-anchor="start" style="white-space: pre;" direction="ltr" dominant-baseline="text-before-edge">    count</text><text x="0" y="60" font-family="Virgil, Segoe UI Emoji" font-size="16px" fill="#1e1e1e" text-anchor="start" style="white-space: pre;" direction="ltr" dominant-baseline="text-before-edge">    service_port[MAX]</text><text x="0" y="80" font-family="Virgil, Segoe UI Emoji" font-size="16px" fill="#1e1e1e" text-anchor="start" style="white-space: pre;" direction="ltr" dominant-baseline="text-before-edge">    target_port[MAX]</text></g><g stroke-linecap="round" transform="translate(740.2995812552308 239.06465627767102) rotate(0 62.5 15)"><path d="M7.5 0 C37.92 -1.14, 72.83 -1.41, 117.5 0 C122.6 -2.13, 126.42 3.59, 125 7.5 C126.31 11.02, 125.57 17.46, 125 22.5 C126.23 25.04, 125.91 32.39, 117.5 30 C85 28.26, 61.09 28.11, 7.5 30 C1.84 29.08, 0.04 29.94, 0 22.5 C-0.07 21.09, 2.04 15.79, 0 7.5 C2.09 2.62, 2.25 -1.4, 7.5 0" stroke="none" stroke-width="0" fill="#b2f2bb"></path><path d="M7.5 0 C53.14 0.24, 95.74 -0.64, 117.5 0 M7.5 0 C49.7 0.68, 92.19 1.22, 117.5 0 M117.5 0 C123.21 0.37, 123.89 2.12, 125 7.5 M117.5 0 C122.49 -0.45, 125.76 3.65, 125 7.5 M125 7.5 C124.68 12.99, 125.88 17.67, 125 22.5 M125 7.5 C124.84 13.03, 125.02 17.53, 125 22.5 M125 22.5 C123.32 26.27, 123.53 30.5, 117.5 30 M125 22.5 C123.41 28.4, 123.29 28.1, 117.5 30 M117.5 30 C74.67 31.29, 34.34 29.54, 7.5 30 M117.5 30 C78.95 29.31, 42.04 28.89, 7.5 30 M7.5 30 C1.23 30.4, -0.8 27.48, 0 22.5 M7.5 30 C1.16 30.69, -2.11 28.72, 0 22.5 M0 22.5 C1.4 19.05, -1.06 12.46, 0 7.5 M0 22.5 C0.3 18.47, 0.51 13.05, 0 7.5 M0 7.5 C-1.22 4.48, 2.18 0.32, 7.5 0 M0 7.5 C-1.9 3.51, 2.79 0.61, 7.5 0" stroke="#1e1e1e" stroke-width="1" fill="none"></path></g><g transform="translate(772.8235985892152 244.06465627767102) rotate(0 29.975982666015625 10)"><text x="29.975982666015625" y="0" font-family="Virgil, Segoe UI Emoji" font-size="16px" fill="#1e1e1e" text-anchor="middle" style="white-space: pre;" direction="ltr" dominant-baseline="text-before-edge">backend</text></g><g stroke-linecap="round" transform="translate(716.3035714285706 229.06465627767102) rotate(0 113.625 77.25)"><path d="M32 0 C75.92 2.59, 115.61 1.88, 195.25 0 M32 0 C83.62 -0.92, 133.98 -1.3, 195.25 0 M195.25 0 C216.57 -0.39, 227.91 11.67, 227.25 32 M195.25 0 C217.03 -1.51, 226.61 10.33, 227.25 32 M227.25 32 C228.77 65.1, 226.03 94.03, 227.25 122.5 M227.25 32 C226.28 62.53, 227.63 94.55, 227.25 122.5 M227.25 122.5 C225.87 144.62, 217.27 152.85, 195.25 154.5 M227.25 122.5 C229.15 143.99, 215.14 153.65, 195.25 154.5 M195.25 154.5 C131.01 153.85, 63.56 153.91, 32 154.5 M195.25 154.5 C144.95 154.09, 95.53 153.88, 32 154.5 M32 154.5 C9.5 155.1, -1.83 144.9, 0 122.5 M32 154.5 C11.31 152.63, -2.11 145.79, 0 122.5 M0 122.5 C0.81 84.56, 1.18 50.88, 0 32 M0 122.5 C-1.05 89.74, -0.6 55.15, 0 32 M0 32 C-1.65 11.54, 10.92 0.53, 32 0 M0 32 C-0.37 11.06, 12.66 -0.53, 32 0" stroke="#1e1e1e" stroke-width="1" fill="none"></path></g></svg>