<svg id="SvgjsSvg1091" width="462.5" height="221" xmlns="http://www.w3.org/2000/svg" version="1.1" xmlns:xlink="http://www.w3.org/1999/xlink" xmlns:svgjs="http://svgjs.com/svgjs"><defs id="SvgjsDefs1092"><pattern patternUnits="userSpaceOnUse" id="pattern_mark_0" width="300" height="300"><text x="150" y="100" fill="rgba(229,229,229,0.8)" font-size="18" transform="rotate(-45, 150, 150)" style="dominant-baseline: middle; text-anchor: middle;"></text></pattern><pattern patternUnits="userSpaceOnUse" id="pattern_mark_1" width="300" height="300"><text x="150" y="200" fill="rgba(229,229,229,0.8)" font-size="18" transform="rotate(-45, 150, 150)" style="dominant-baseline: middle; text-anchor: middle;"></text></pattern><marker id="SvgjsMarker1110" markerWidth="13" markerHeight="9" refX="9.5" refY="4.5" viewBox="0 0 13 9" orient="auto" markerUnits="userSpaceOnUse" stroke-dasharray="0,0"><path id="SvgjsPath1111" d="M0,0 L13,4.5 L0,9 L0,0" fill="#7985ec" stroke="#7985ec" stroke-width="1"></path></marker><marker id="SvgjsMarker1114" markerWidth="13" markerHeight="9" refX="9.5" refY="4.5" viewBox="0 0 13 9" orient="auto" markerUnits="userSpaceOnUse" stroke-dasharray="0,0"><path id="SvgjsPath1115" d="M0,0 L13,4.5 L0,9 L0,0" fill="#7985ec" stroke="#7985ec" stroke-width="1"></path></marker></defs><rect id="svgbackgroundid" width="462.5" height="221" fill="transparent"></rect><rect id="SvgjsRect1094" width="462.5" height="221" fill="url(#pattern_mark_0)"></rect><rect id="SvgjsRect1095" width="462.5" height="221" fill="url(#pattern_mark_1)"></rect><g id="SvgjsG1096" transform="translate(25,25)"><path id="SvgjsPath1097" d="M 0 4Q 0 0 4 0L 356 0Q 360 0 360 4L 360 167Q 360 171 356 171L 4 171Q 0 171 0 167Z" stroke="rgba(33,41,48,1)" stroke-width="1.5" fill-opacity="1" fill="#ffffff"></path><g id="SvgjsG1098"><text id="SvgjsText1099" font-family="微软雅黑" text-anchor="middle" font-size="13px" width="350px" fill="#323232" font-weight="400" align="middle" lineHeight="125%" anchor="middle" family="微软雅黑" size="13px" weight="400" font-style="" opacity="1" y="2.5892857142857135" transform="rotate(0)"><tspan id="SvgjsTspan1100" dy="16.25" x="180"><tspan id="SvgjsTspan1101" style="">pod1</tspan></tspan></text></g></g><g id="SvgjsG1102" transform="translate(72.5,95)"><path id="SvgjsPath1103" d="M 0 0L 76.5 0L 76.5 31L 0 31Z" stroke="rgba(33,41,48,1)" stroke-width="1.5" fill-opacity="1" fill="#ffffff"></path><g id="SvgjsG1104"><text id="SvgjsText1105" font-family="微软雅黑" text-anchor="middle" font-size="13px" width="57px" fill="#323232" font-weight="400" align="middle" lineHeight="125%" anchor="middle" family="微软雅黑" size="13px" weight="400" font-style="" opacity="1" y="4.875" transform="rotate(0)"><tspan id="SvgjsTspan1106" dy="16.25" x="38.5"><tspan id="SvgjsTspan1107" style="">service A</tspan></tspan></text></g></g><g id="SvgjsG1108"><path id="SvgjsPath1109" d="M149.75 110.5L191.25 110.5L191.25 110.5L230.8 110.5" stroke="#7985ec" stroke-width="1.5" fill="none" marker-end="url(#SvgjsMarker1110)"></path></g><g id="SvgjsG1112"><path id="SvgjsPath1113" d="M310.25 110.5L373.5 110.5L373.5 110.5L437.5 110.5" stroke="#7985ec" stroke-width="1.5" fill="none" marker-end="url(#SvgjsMarker1114)"></path></g><g id="SvgjsG1116" transform="translate(233.5,92)"><path id="SvgjsPath1117" d="M 0 0L 76 0L 76 37L 0 37Z" stroke="rgba(33,41,48,1)" stroke-width="1.5" fill-opacity="1" fill="#a7932c"></path><g id="SvgjsG1118"><text id="SvgjsText1119" font-family="微软雅黑" text-anchor="middle" font-size="13px" width="56px" fill="#323232" font-weight="400" align="middle" lineHeight="125%" anchor="middle" family="微软雅黑" size="13px" weight="400" font-style="" opacity="1" y="7.875" transform="rotate(0)"><tspan id="SvgjsTspan1120" dy="16.25" x="38"><tspan id="SvgjsTspan1121" style="">ebpf</tspan></tspan></text></g></g></svg>