<svg version="1.1" xmlns="http://www.w3.org/2000/svg" viewBox="0 0 792.5429809797091 1017.7673100791812" width="792.5429809797091" height="1017.7673100791812">
  <!-- svg-source:excalidraw -->
  
  <defs>
    <style class="style-fonts">
      
    </style>
    
  </defs>
  <rect x="0" y="0" width="792.5429809797091" height="1017.7673100791812" fill="#ffffff"></rect><g stroke-linecap="round" transform="translate(10 116.9834943102253) rotate(0 386.27149048985456 370.32691341943075)"><path d="M32 0 C228.74 0, 425.49 0, 740.54 0 C761.88 0, 772.54 10.67, 772.54 32 C772.54 282.85, 772.54 533.71, 772.54 708.65 C772.54 729.99, 761.88 740.65, 740.54 740.65 C529.4 740.65, 318.25 740.65, 32 740.65 C10.67 740.65, 0 729.99, 0 708.65 C0 452.26, 0 195.86, 0 32 C0 10.67, 10.67 0, 32 0" stroke="none" stroke-width="0" fill="#e9ecef"></path><path d="M32 0 C309.33 0, 586.65 0, 740.54 0 M32 0 C261.64 0, 491.28 0, 740.54 0 M740.54 0 C761.88 0, 772.54 10.67, 772.54 32 M740.54 0 C761.88 0, 772.54 10.67, 772.54 32 M772.54 32 C772.54 265.93, 772.54 499.85, 772.54 708.65 M772.54 32 C772.54 259.41, 772.54 486.81, 772.54 708.65 M772.54 708.65 C772.54 729.99, 761.88 740.65, 740.54 740.65 M772.54 708.65 C772.54 729.99, 761.88 740.65, 740.54 740.65 M740.54 740.65 C482.43 740.65, 224.32 740.65, 32 740.65 M740.54 740.65 C526.05 740.65, 311.56 740.65, 32 740.65 M32 740.65 C10.67 740.65, 0 729.99, 0 708.65 M32 740.65 C10.67 740.65, 0 729.99, 0 708.65 M0 708.65 C0 549.06, 0 389.47, 0 32 M0 708.65 C0 497.23, 0 285.81, 0 32 M0 32 C0 10.67, 10.67 0, 32 0 M0 32 C0 10.67, 10.67 0, 32 0" stroke="#1e1e1e" stroke-width="1" fill="none"></path></g><g stroke-linecap="round" transform="translate(70.69206211564119 485.25309079538874) rotate(0 335.35167792579506 185.67773296758878)"><path d="M32 0 C209.28 0, 386.56 0, 638.7 0 C660.04 0, 670.7 10.67, 670.7 32 C670.7 134.71, 670.7 237.43, 670.7 339.36 C670.7 360.69, 660.04 371.36, 638.7 371.36 C477.31 371.36, 315.91 371.36, 32 371.36 C10.67 371.36, 0 360.69, 0 339.36 C0 270.27, 0 201.18, 0 32 C0 10.67, 10.67 0, 32 0" stroke="none" stroke-width="0" fill="#e9ecef"></path><path d="M32 0 C274.32 0, 516.64 0, 638.7 0 M32 0 C233.04 0, 434.09 0, 638.7 0 M638.7 0 C660.04 0, 670.7 10.67, 670.7 32 M638.7 0 C660.04 0, 670.7 10.67, 670.7 32 M670.7 32 C670.7 97.97, 670.7 163.95, 670.7 339.36 M670.7 32 C670.7 151.16, 670.7 270.32, 670.7 339.36 M670.7 339.36 C670.7 360.69, 660.04 371.36, 638.7 371.36 M670.7 339.36 C670.7 360.69, 660.04 371.36, 638.7 371.36 M638.7 371.36 C495.22 371.36, 351.74 371.36, 32 371.36 M638.7 371.36 C421.79 371.36, 204.88 371.36, 32 371.36 M32 371.36 C10.67 371.36, 0 360.69, 0 339.36 M32 371.36 C10.67 371.36, 0 360.69, 0 339.36 M0 339.36 C0 259.68, 0 180, 0 32 M0 339.36 C0 268.65, 0 197.94, 0 32 M0 32 C0 10.67, 10.67 0, 32 0 M0 32 C0 10.67, 10.67 0, 32 0" stroke="#1e1e1e" stroke-width="1" fill="none"></path></g><g stroke-linecap="round" transform="translate(302.1465860762762 802.0881393359446) rotate(0 92.58173424104581 28.80323760132842)"><path d="M14.4 0 C66.31 0, 118.21 0, 170.76 0 C180.36 0, 185.16 4.8, 185.16 14.4 C185.16 24.74, 185.16 35.09, 185.16 43.2 C185.16 52.81, 180.36 57.61, 170.76 57.61 C116.57 57.61, 62.38 57.61, 14.4 57.61 C4.8 57.61, 0 52.81, 0 43.2 C0 34.61, 0 26.01, 0 14.4 C0 4.8, 4.8 0, 14.4 0" stroke="none" stroke-width="0" fill="#b2f2bb"></path><path d="M14.4 0 C50.9 0, 87.39 0, 170.76 0 M14.4 0 C74.74 0, 135.07 0, 170.76 0 M170.76 0 C180.36 0, 185.16 4.8, 185.16 14.4 M170.76 0 C180.36 0, 185.16 4.8, 185.16 14.4 M185.16 14.4 C185.16 25.08, 185.16 35.75, 185.16 43.2 M185.16 14.4 C185.16 20.22, 185.16 26.04, 185.16 43.2 M185.16 43.2 C185.16 52.81, 180.36 57.61, 170.76 57.61 M185.16 43.2 C185.16 52.81, 180.36 57.61, 170.76 57.61 M170.76 57.61 C118.46 57.61, 66.16 57.61, 14.4 57.61 M170.76 57.61 C129.5 57.61, 88.24 57.61, 14.4 57.61 M14.4 57.61 C4.8 57.61, 0 52.81, 0 43.2 M14.4 57.61 C4.8 57.61, 0 52.81, 0 43.2 M0 43.2 C0 32.17, 0 21.13, 0 14.4 M0 43.2 C0 34.21, 0 25.22, 0 14.4 M0 14.4 C0 4.8, 4.8 0, 14.4 0 M0 14.4 C0 4.8, 4.8 0, 14.4 0" stroke="#1e1e1e" stroke-width="1" fill="none"></path></g><g transform="translate(380.2283203173221 821.6913769372732) rotate(0 14.5 9.200000000000045)"><text x="14.5" y="13.5203125" font-family="Helvetica, Segoe UI Emoji" font-size="16px" fill="#1e1e1e" text-anchor="middle" style="white-space: pre;" direction="ltr" dominant-baseline="alphabetic">NIC</text></g><g transform="translate(92.2945609508954 491.42501805343795) rotate(0 20.33984375 9.200000000000045)"><text x="0" y="13.5203125" font-family="Helvetica, Segoe UI Emoji" font-size="16px" fill="#1e1e1e" text-anchor="start" style="white-space: pre;" direction="ltr" dominant-baseline="alphabetic">driver</text></g><g stroke-linecap="round" transform="translate(104.63879218303464 595.3221720185984) rotate(0 286.48911166174474 90.52444085153115)"><path d="M32 0 C156.33 0, 280.67 0, 540.98 0 M32 0 C202.98 0, 373.96 0, 540.98 0 M540.98 0 C562.31 0, 572.98 10.67, 572.98 32 M540.98 0 C562.31 0, 572.98 10.67, 572.98 32 M572.98 32 C572.98 57.72, 572.98 83.44, 572.98 149.05 M572.98 32 C572.98 77.17, 572.98 122.35, 572.98 149.05 M572.98 149.05 C572.98 170.38, 562.31 181.05, 540.98 181.05 M572.98 149.05 C572.98 170.38, 562.31 181.05, 540.98 181.05 M540.98 181.05 C380.89 181.05, 220.8 181.05, 32 181.05 M540.98 181.05 C429.91 181.05, 318.83 181.05, 32 181.05 M32 181.05 C10.67 181.05, 0 170.38, 0 149.05 M32 181.05 C10.67 181.05, 0 170.38, 0 149.05 M0 149.05 C0 107.19, 0 65.34, 0 32 M0 149.05 C0 104.07, 0 59.09, 0 32 M0 32 C0 10.67, 10.67 0, 32 0 M0 32 C0 10.67, 10.67 0, 32 0" stroke="#1e1e1e" stroke-width="1" fill="none"></path></g><g transform="translate(123.15523321025444 604.0660338677003) rotate(0 13.44921875 9.200000000000045)"><text x="0" y="13.5203125" font-family="Helvetica, Segoe UI Emoji" font-size="16px" fill="#1e1e1e" text-anchor="start" style="white-space: pre;" direction="ltr" dominant-baseline="alphabetic">xdp</text></g><g stroke-linecap="round" transform="translate(72.7496851316912 341.23694987825024) rotate(0 334.8374605298032 53.49162943134991)"><path d="M26.75 0 C249.08 0, 471.41 0, 642.93 0 C660.76 0, 669.67 8.92, 669.67 26.75 C669.67 44.26, 669.67 61.77, 669.67 80.24 C669.67 98.07, 660.76 106.98, 642.93 106.98 C519.06 106.98, 395.2 106.98, 26.75 106.98 C8.92 106.98, 0 98.07, 0 80.24 C0 60.37, 0 40.51, 0 26.75 C0 8.92, 8.92 0, 26.75 0" stroke="none" stroke-width="0" fill="#e9ecef"></path><path d="M26.75 0 C162.57 0, 298.4 0, 642.93 0 M26.75 0 C166.83 0, 306.92 0, 642.93 0 M642.93 0 C660.76 0, 669.67 8.92, 669.67 26.75 M642.93 0 C660.76 0, 669.67 8.92, 669.67 26.75 M669.67 26.75 C669.67 39.13, 669.67 51.52, 669.67 80.24 M669.67 26.75 C669.67 39.8, 669.67 52.86, 669.67 80.24 M669.67 80.24 C669.67 98.07, 660.76 106.98, 642.93 106.98 M669.67 80.24 C669.67 98.07, 660.76 106.98, 642.93 106.98 M642.93 106.98 C406.81 106.98, 170.69 106.98, 26.75 106.98 M642.93 106.98 C441.22 106.98, 239.52 106.98, 26.75 106.98 M26.75 106.98 C8.92 106.98, 0 98.07, 0 80.24 M26.75 106.98 C8.92 106.98, 0 98.07, 0 80.24 M0 80.24 C0 64.17, 0 48.1, 0 26.75 M0 80.24 C0 67.3, 0 54.37, 0 26.75 M0 26.75 C0 8.92, 8.92 0, 26.75 0 M0 26.75 C0 8.92, 8.92 0, 26.75 0" stroke="#1e1e1e" stroke-width="1" fill="none"></path></g><g transform="translate(93.32346663793089 353.58103984187414) rotate(0 49.40625 9.200000000000045)"><text x="0" y="13.5203125" font-family="Helvetica, Segoe UI Emoji" font-size="16px" fill="#1e1e1e" text-anchor="start" style="white-space: pre;" direction="ltr" dominant-baseline="alphabetic">network stack</text></g><g stroke-linecap="round" transform="translate(521.3154344302246 157.10201108009755) rotate(0 80.75181458390875 23.14543356026161)"><path d="M11.57 0 C43.53 0, 75.48 0, 149.93 0 C157.65 0, 161.5 3.86, 161.5 11.57 C161.5 20.78, 161.5 29.99, 161.5 34.72 C161.5 42.43, 157.65 46.29, 149.93 46.29 C112.44 46.29, 74.95 46.29, 11.57 46.29 C3.86 46.29, 0 42.43, 0 34.72 C0 26.59, 0 18.47, 0 11.57 C0 3.86, 3.86 0, 11.57 0" stroke="none" stroke-width="0" fill="#b2f2bb"></path><path d="M11.57 0 C66.21 0, 120.84 0, 149.93 0 M11.57 0 C47.63 0, 83.68 0, 149.93 0 M149.93 0 C157.65 0, 161.5 3.86, 161.5 11.57 M149.93 0 C157.65 0, 161.5 3.86, 161.5 11.57 M161.5 11.57 C161.5 19.89, 161.5 28.22, 161.5 34.72 M161.5 11.57 C161.5 20.22, 161.5 28.86, 161.5 34.72 M161.5 34.72 C161.5 42.43, 157.65 46.29, 149.93 46.29 M161.5 34.72 C161.5 42.43, 157.65 46.29, 149.93 46.29 M149.93 46.29 C120.46 46.29, 90.99 46.29, 11.57 46.29 M149.93 46.29 C112.23 46.29, 74.53 46.29, 11.57 46.29 M11.57 46.29 C3.86 46.29, 0 42.43, 0 34.72 M11.57 46.29 C3.86 46.29, 0 42.43, 0 34.72 M0 34.72 C0 26.58, 0 18.44, 0 11.57 M0 34.72 C0 26.38, 0 18.04, 0 11.57 M0 11.57 C0 3.86, 3.86 0, 11.57 0 M0 11.57 C0 3.86, 3.86 0, 11.57 0" stroke="#1e1e1e" stroke-width="1" fill="none"></path></g><g transform="translate(563.4930302641334 171.04744464035912) rotate(0 38.57421875 9.200000000000045)"><text x="38.57421875" y="13.5203125" font-family="Helvetica, Segoe UI Emoji" font-size="16px" fill="#1e1e1e" text-anchor="middle" style="white-space: pre;" direction="ltr" dominant-baseline="alphabetic">app-server</text></g><g stroke-linecap="round" transform="translate(137.5014997156004 151.4443475946016) rotate(0 63.77849663971699 23.14543356026161)"><path d="M11.57 0 C43.68 0, 75.79 0, 115.98 0 C123.7 0, 127.56 3.86, 127.56 11.57 C127.56 19, 127.56 26.43, 127.56 34.72 C127.56 42.43, 123.7 46.29, 115.98 46.29 C91.76 46.29, 67.53 46.29, 11.57 46.29 C3.86 46.29, 0 42.43, 0 34.72 C0 26.27, 0 17.81, 0 11.57 C0 3.86, 3.86 0, 11.57 0" stroke="none" stroke-width="0" fill="#ffd8a8"></path><path d="M11.57 0 C36.39 0, 61.21 0, 115.98 0 M11.57 0 C48.39 0, 85.21 0, 115.98 0 M115.98 0 C123.7 0, 127.56 3.86, 127.56 11.57 M115.98 0 C123.7 0, 127.56 3.86, 127.56 11.57 M127.56 11.57 C127.56 20.27, 127.56 28.97, 127.56 34.72 M127.56 11.57 C127.56 16.89, 127.56 22.22, 127.56 34.72 M127.56 34.72 C127.56 42.43, 123.7 46.29, 115.98 46.29 M127.56 34.72 C127.56 42.43, 123.7 46.29, 115.98 46.29 M115.98 46.29 C75.53 46.29, 35.08 46.29, 11.57 46.29 M115.98 46.29 C85.82 46.29, 55.65 46.29, 11.57 46.29 M11.57 46.29 C3.86 46.29, 0 42.43, 0 34.72 M11.57 46.29 C3.86 46.29, 0 42.43, 0 34.72 M0 34.72 C0 28.6, 0 22.47, 0 11.57 M0 34.72 C0 29.81, 0 24.9, 0 11.57 M0 11.57 C0 3.86, 3.86 0, 11.57 0 M0 11.57 C0 3.86, 3.86 0, 11.57 0" stroke="#1e1e1e" stroke-width="1" fill="none"></path></g><g transform="translate(147.5924963553174 165.38978115486316) rotate(0 53.6875 9.200000000000045)"><text x="53.6875" y="13.5203125" font-family="Helvetica, Segoe UI Emoji" font-size="16px" fill="#1e1e1e" text-anchor="middle" style="white-space: pre;" direction="ltr" dominant-baseline="alphabetic">kmesh-manger</text></g><g stroke-linecap="round" transform="translate(19.25798506608453 10) rotate(0 372.38432453270815 27.260185152558847)"><path d="M13.63 0 C219.2 0, 424.76 0, 731.14 0 C740.23 0, 744.77 4.54, 744.77 13.63 C744.77 20.02, 744.77 26.4, 744.77 40.89 C744.77 49.98, 740.23 54.52, 731.14 54.52 C502.91 54.52, 274.67 54.52, 13.63 54.52 C4.54 54.52, 0 49.98, 0 40.89 C0 32.43, 0 23.97, 0 13.63 C0 4.54, 4.54 0, 13.63 0" stroke="none" stroke-width="0" fill="#e9ecef"></path><path d="M13.63 0 C236.42 0, 459.22 0, 731.14 0 M13.63 0 C213.74 0, 413.84 0, 731.14 0 M731.14 0 C740.23 0, 744.77 4.54, 744.77 13.63 M731.14 0 C740.23 0, 744.77 4.54, 744.77 13.63 M744.77 13.63 C744.77 23.23, 744.77 32.83, 744.77 40.89 M744.77 13.63 C744.77 19.84, 744.77 26.06, 744.77 40.89 M744.77 40.89 C744.77 49.98, 740.23 54.52, 731.14 54.52 M744.77 40.89 C744.77 49.98, 740.23 54.52, 731.14 54.52 M731.14 54.52 C487.24 54.52, 243.34 54.52, 13.63 54.52 M731.14 54.52 C488.49 54.52, 245.84 54.52, 13.63 54.52 M13.63 54.52 C4.54 54.52, 0 49.98, 0 40.89 M13.63 54.52 C4.54 54.52, 0 49.98, 0 40.89 M0 40.89 C0 30.07, 0 19.25, 0 13.63 M0 40.89 C0 35.24, 0 29.59, 0 13.63 M0 13.63 C0 4.54, 4.54 0, 13.63 0 M0 13.63 C0 4.54, 4.54 0, 13.63 0" stroke="#1e1e1e" stroke-width="1" fill="none"></path></g><g transform="translate(322.2059618285035 31.602381111491468) rotate(0 37.7890625 9.200000000000045)"><text x="0" y="13.5203125" font-family="Helvetica, Segoe UI Emoji" font-size="16px" fill="#1e1e1e" text-anchor="start" style="white-space: pre;" direction="ltr" dominant-baseline="alphabetic">istio/k8s/...</text></g><g mask="url(#mask-A5gZanOvYVkvrsZsVsGyI)" stroke-linecap="round"><g transform="translate(123.15560992629503 998.567310079181) rotate(0 135.73635519551357 -66.93634777028979)"><path d="M0 0 C83.94 0, 167.88 0, 255.47 0 M0 0 C91.18 0, 182.37 0, 255.47 0 M255.47 0 C266.14 0, 271.47 -5.33, 271.47 -16 M255.47 0 C266.14 0, 271.47 -5.33, 271.47 -16 M271.47 -16 C271.47 -58.91, 271.47 -101.81, 271.47 -133.87 M271.47 -16 C271.47 -56.33, 271.47 -96.67, 271.47 -133.87" stroke="#1e1e1e" stroke-width="1" fill="none"></path></g><g transform="translate(123.15560992629503 998.567310079181) rotate(0 135.73635519551357 -66.93634777028979)"><path d="M271.47 -133.87 L277.81 -120.28 L265.13 -120.28 L271.47 -133.87" stroke="none" stroke-width="0" fill="#1e1e1e" fill-rule="evenodd"></path><path d="M271.47 -133.87 C273.56 -129.41, 275.64 -124.94, 277.81 -120.28 M271.47 -133.87 C273.74 -129.02, 276 -124.17, 277.81 -120.28 M277.81 -120.28 C274.77 -120.28, 271.73 -120.28, 265.13 -120.28 M277.81 -120.28 C275.18 -120.28, 272.55 -120.28, 265.13 -120.28 M265.13 -120.28 C267.11 -124.51, 269.08 -128.75, 271.47 -133.87 M265.13 -120.28 C266.93 -124.13, 268.73 -127.99, 271.47 -133.87 M271.47 -133.87 C271.47 -133.87, 271.47 -133.87, 271.47 -133.87 M271.47 -133.87 C271.47 -133.87, 271.47 -133.87, 271.47 -133.87" stroke="#1e1e1e" stroke-width="1" fill="none"></path></g></g><mask id="mask-A5gZanOvYVkvrsZsVsGyI"><rect x="0" y="0" fill="#fff" width="494.62832031732216" height="1232.4400056197605"></rect><rect x="368.83925781732216" y="989.3673100791812" fill="#000" width="51.578125" height="18.4" opacity="1"></rect></mask><g transform="translate(368.8392578173223 989.3673100791812) rotate(0 -109.94729269551357 -57.73634777028997)"><text x="25.7890625" y="13.5203125" font-family="Helvetica, Segoe UI Emoji" font-size="16px" fill="#1e1e1e" text-anchor="middle" style="white-space: pre;" direction="ltr" dominant-baseline="alphabetic">ingress</text></g><g stroke-linecap="round" transform="translate(317.5770634744704 157.1020574566578) rotate(0 63.26427924372484 24.174103799771387)"><path d="M12.09 0 C50.51 0, 88.93 0, 114.44 0 C122.5 0, 126.53 4.03, 126.53 12.09 C126.53 20.42, 126.53 28.76, 126.53 36.26 C126.53 44.32, 122.5 48.35, 114.44 48.35 C73.52 48.35, 32.61 48.35, 12.09 48.35 C4.03 48.35, 0 44.32, 0 36.26 C0 30.8, 0 25.34, 0 12.09 C0 4.03, 4.03 0, 12.09 0" stroke="none" stroke-width="0" fill="#ffd8a8"></path><path d="M12.09 0 C50.45 0, 88.8 0, 114.44 0 M12.09 0 C48.19 0, 84.28 0, 114.44 0 M114.44 0 C122.5 0, 126.53 4.03, 126.53 12.09 M114.44 0 C122.5 0, 126.53 4.03, 126.53 12.09 M126.53 12.09 C126.53 17.42, 126.53 22.75, 126.53 36.26 M126.53 12.09 C126.53 18.35, 126.53 24.62, 126.53 36.26 M126.53 36.26 C126.53 44.32, 122.5 48.35, 114.44 48.35 M126.53 36.26 C126.53 44.32, 122.5 48.35, 114.44 48.35 M114.44 48.35 C89.51 48.35, 64.57 48.35, 12.09 48.35 M114.44 48.35 C89.26 48.35, 64.08 48.35, 12.09 48.35 M12.09 48.35 C4.03 48.35, 0 44.32, 0 36.26 M12.09 48.35 C4.03 48.35, 0 44.32, 0 36.26 M0 36.26 C0 29.06, 0 21.86, 0 12.09 M0 36.26 C0 29.48, 0 22.71, 0 12.09 M0 12.09 C0 4.03, 4.03 0, 12.09 0 M0 12.09 C0 4.03, 4.03 0, 12.09 0" stroke="#1e1e1e" stroke-width="1" fill="none"></path></g><g transform="translate(341.7085302181953 172.07616125642926) rotate(0 39.1328125 9.200000000000045)"><text x="39.1328125" y="13.5203125" font-family="Helvetica, Segoe UI Emoji" font-size="16px" fill="#1e1e1e" text-anchor="middle" style="white-space: pre;" direction="ltr" dominant-baseline="alphabetic">authz rules</text></g><g stroke-linecap="round" transform="translate(77.3783951277029 269.7432145394355) rotate(0 329.1795152202202 24.68846246427904)"><path d="M12.34 0 C154.7 0, 297.06 0, 646.01 0 C654.24 0, 658.36 4.11, 658.36 12.34 C658.36 18.03, 658.36 23.72, 658.36 37.03 C658.36 45.26, 654.24 49.38, 646.01 49.38 C491.46 49.38, 336.9 49.38, 12.34 49.38 C4.11 49.38, 0 45.26, 0 37.03 C0 31.45, 0 25.86, 0 12.34 C0 4.11, 4.11 0, 12.34 0" stroke="none" stroke-width="0" fill="#e9ecef"></path><path d="M12.34 0 C214.76 0, 417.18 0, 646.01 0 M12.34 0 C259.1 0, 505.86 0, 646.01 0 M646.01 0 C654.24 0, 658.36 4.11, 658.36 12.34 M646.01 0 C654.24 0, 658.36 4.11, 658.36 12.34 M658.36 12.34 C658.36 20.75, 658.36 29.15, 658.36 37.03 M658.36 12.34 C658.36 20.24, 658.36 28.14, 658.36 37.03 M658.36 37.03 C658.36 45.26, 654.24 49.38, 646.01 49.38 M658.36 37.03 C658.36 45.26, 654.24 49.38, 646.01 49.38 M646.01 49.38 C437.9 49.38, 229.79 49.38, 12.34 49.38 M646.01 49.38 C471.82 49.38, 297.62 49.38, 12.34 49.38 M12.34 49.38 C4.11 49.38, 0 45.26, 0 37.03 M12.34 49.38 C4.11 49.38, 0 45.26, 0 37.03 M0 37.03 C0 27.22, 0 17.41, 0 12.34 M0 37.03 C0 27.18, 0 17.32, 0 12.34 M0 12.34 C0 4.11, 4.11 0, 12.34 0 M0 12.34 C0 4.11, 4.11 0, 12.34 0" stroke="#1e1e1e" stroke-width="1" fill="none"></path></g><g stroke-linecap="round" transform="translate(307.2898901843205 641.6133216761518) rotate(0 88.98136485800859 28.288878936821447)"><path d="M14.14 0 C57.96 0, 101.77 0, 163.82 0 C173.25 0, 177.96 4.71, 177.96 14.14 C177.96 19.81, 177.96 25.48, 177.96 42.43 C177.96 51.86, 173.25 56.58, 163.82 56.58 C128.45 56.58, 93.08 56.58, 14.14 56.58 C4.71 56.58, 0 51.86, 0 42.43 C0 35.38, 0 28.32, 0 14.14 C0 4.71, 4.71 0, 14.14 0" stroke="none" stroke-width="0" fill="#ffd8a8"></path><path d="M14.14 0 C72.89 0, 131.63 0, 163.82 0 M14.14 0 C44.78 0, 75.42 0, 163.82 0 M163.82 0 C173.25 0, 177.96 4.71, 177.96 14.14 M163.82 0 C173.25 0, 177.96 4.71, 177.96 14.14 M177.96 14.14 C177.96 21.39, 177.96 28.64, 177.96 42.43 M177.96 14.14 C177.96 25.13, 177.96 36.12, 177.96 42.43 M177.96 42.43 C177.96 51.86, 173.25 56.58, 163.82 56.58 M177.96 42.43 C177.96 51.86, 173.25 56.58, 163.82 56.58 M163.82 56.58 C130.94 56.58, 98.06 56.58, 14.14 56.58 M163.82 56.58 C125.02 56.58, 86.22 56.58, 14.14 56.58 M14.14 56.58 C4.71 56.58, 0 51.86, 0 42.43 M14.14 56.58 C4.71 56.58, 0 51.86, 0 42.43 M0 42.43 C0 31.32, 0 20.2, 0 14.14 M0 42.43 C0 34.47, 0 26.5, 0 14.14 M0 14.14 C0 4.71, 4.71 0, 14.14 0 M0 14.14 C0 4.71, 4.71 0, 14.14 0" stroke="#1e1e1e" stroke-width="1" fill="none"></path></g><g transform="translate(344.365005042329 660.7022006129732) rotate(0 51.90625 9.200000000000045)"><text x="51.90625" y="13.5203125" font-family="Helvetica, Segoe UI Emoji" font-size="16px" fill="#1e1e1e" text-anchor="middle" style="white-space: pre;" direction="ltr" dominant-baseline="alphabetic">XDP  Program</text></g><g stroke-linecap="round" transform="translate(527.4285235257895 683.7894136596237) rotate(0 58.4016658901694 26.231491368296474)"><path d="M13.12 0 C45.94 0, 78.77 0, 103.69 0 C112.43 0, 116.8 4.37, 116.8 13.12 C116.8 21.82, 116.8 30.53, 116.8 39.35 C116.8 48.09, 112.43 52.46, 103.69 52.46 C84.42 52.46, 65.15 52.46, 13.12 52.46 C4.37 52.46, 0 48.09, 0 39.35 C0 32.05, 0 24.75, 0 13.12 C0 4.37, 4.37 0, 13.12 0" stroke="none" stroke-width="0" fill="#f08c00"></path><path d="M13.12 0 C44.69 0, 76.26 0, 103.69 0 M13.12 0 C33.57 0, 54.03 0, 103.69 0 M103.69 0 C112.43 0, 116.8 4.37, 116.8 13.12 M103.69 0 C112.43 0, 116.8 4.37, 116.8 13.12 M116.8 13.12 C116.8 22.32, 116.8 31.52, 116.8 39.35 M116.8 13.12 C116.8 22.12, 116.8 31.13, 116.8 39.35 M116.8 39.35 C116.8 48.09, 112.43 52.46, 103.69 52.46 M116.8 39.35 C116.8 48.09, 112.43 52.46, 103.69 52.46 M103.69 52.46 C84.82 52.46, 65.96 52.46, 13.12 52.46 M103.69 52.46 C76.44 52.46, 49.19 52.46, 13.12 52.46 M13.12 52.46 C4.37 52.46, 0 48.09, 0 39.35 M13.12 52.46 C4.37 52.46, 0 48.09, 0 39.35 M0 39.35 C0 32.87, 0 26.38, 0 13.12 M0 39.35 C0 29.1, 0 18.86, 0 13.12 M0 13.12 C0 4.37, 4.37 0, 13.12 0 M0 13.12 C0 4.37, 4.37 0, 13.12 0" stroke="#1e1e1e" stroke-width="1" fill="none"></path></g><g transform="translate(541.1544081659589 700.8209050279202) rotate(0 44.67578125 9.200000000000045)"><text x="44.67578125" y="13.5203125" font-family="Helvetica, Segoe UI Emoji" font-size="16px" fill="#1e1e1e" text-anchor="middle" style="white-space: pre;" direction="ltr" dominant-baseline="alphabetic">XDP_DROP</text></g><g stroke-linecap="round" transform="translate(340.2079029226985 516.113574696727) rotate(0 58.4016658901694 26.231491368296474)"><path d="M13.12 0 C34.58 0, 56.04 0, 103.69 0 C112.43 0, 116.8 4.37, 116.8 13.12 C116.8 21, 116.8 28.89, 116.8 39.35 C116.8 48.09, 112.43 52.46, 103.69 52.46 C72.48 52.46, 41.28 52.46, 13.12 52.46 C4.37 52.46, 0 48.09, 0 39.35 C0 32.15, 0 24.96, 0 13.12 C0 4.37, 4.37 0, 13.12 0" stroke="none" stroke-width="0" fill="#b2f2bb"></path><path d="M13.12 0 C36 0, 58.88 0, 103.69 0 M13.12 0 C43.42 0, 73.73 0, 103.69 0 M103.69 0 C112.43 0, 116.8 4.37, 116.8 13.12 M103.69 0 C112.43 0, 116.8 4.37, 116.8 13.12 M116.8 13.12 C116.8 19.46, 116.8 25.81, 116.8 39.35 M116.8 13.12 C116.8 19.65, 116.8 26.18, 116.8 39.35 M116.8 39.35 C116.8 48.09, 112.43 52.46, 103.69 52.46 M116.8 39.35 C116.8 48.09, 112.43 52.46, 103.69 52.46 M103.69 52.46 C71.95 52.46, 40.22 52.46, 13.12 52.46 M103.69 52.46 C77.42 52.46, 51.15 52.46, 13.12 52.46 M13.12 52.46 C4.37 52.46, 0 48.09, 0 39.35 M13.12 52.46 C4.37 52.46, 0 48.09, 0 39.35 M0 39.35 C0 31.53, 0 23.71, 0 13.12 M0 39.35 C0 30.18, 0 21, 0 13.12 M0 13.12 C0 4.37, 4.37 0, 13.12 0 M0 13.12 C0 4.37, 4.37 0, 13.12 0" stroke="#1e1e1e" stroke-width="1" fill="none"></path></g><g transform="translate(356.2970688128679 533.1450660650235) rotate(0 42.3125 9.200000000000045)"><text x="42.3125" y="13.5203125" font-family="Helvetica, Segoe UI Emoji" font-size="16px" fill="#1e1e1e" text-anchor="middle" style="white-space: pre;" direction="ltr" dominant-baseline="alphabetic">XDP_PASS</text></g><g stroke-linecap="round"><g transform="translate(390.68271294089243 635.6984089370885) rotate(0 0.07175647637518523 -33.06092575188427)"><path d="M0 0 C0.02 -11.02, 0.12 -55.1, 0.14 -66.12 M0 0 C0.02 -11.02, 0.12 -55.1, 0.14 -66.12" stroke="#1e1e1e" stroke-width="1" fill="none"></path></g><g transform="translate(390.68271294089243 635.6984089370885) rotate(0 0.07175647637518523 -33.06092575188427)"><path d="M0.14 -66.12 L6.45 -52.51 L-6.23 -52.54 L0.14 -66.12" stroke="none" stroke-width="0" fill="#1e1e1e" fill-rule="evenodd"></path><path d="M0.14 -66.12 C2.37 -61.32, 4.59 -56.52, 6.45 -52.51 M0.14 -66.12 C2.47 -61.11, 4.79 -56.09, 6.45 -52.51 M6.45 -52.51 C3.87 -52.52, 1.29 -52.52, -6.23 -52.54 M6.45 -52.51 C3.29 -52.52, 0.12 -52.53, -6.23 -52.54 M-6.23 -52.54 C-4.08 -57.11, -1.94 -61.68, 0.14 -66.12 M-6.23 -52.54 C-3.93 -57.43, -1.64 -62.33, 0.14 -66.12 M0.14 -66.12 C0.14 -66.12, 0.14 -66.12, 0.14 -66.12 M0.14 -66.12 C0.14 -66.12, 0.14 -66.12, 0.14 -66.12" stroke="#1e1e1e" stroke-width="1" fill="none"></path></g></g><mask></mask><g stroke-linecap="round"><g transform="translate(398.509568812868 511.113574696727) rotate(0 101.72884010063274 -151.36034824805313)"><path d="M0 0 C0 -41.44, 0 -82.89, 0 -125.36 M0 0 C0 -46.4, 0 -92.8, 0 -125.36 M0 -125.36 C0 -136.03, 5.33 -141.36, 16 -141.36 M0 -125.36 C0 -136.03, 5.33 -141.36, 16 -141.36 M16 -141.36 C68.52 -141.36, 121.03 -141.36, 187.46 -141.36 M16 -141.36 C65.19 -141.36, 114.37 -141.36, 187.46 -141.36 M187.46 -141.36 C198.12 -141.36, 203.46 -146.69, 203.46 -157.36 M187.46 -141.36 C198.12 -141.36, 203.46 -146.69, 203.46 -157.36 M203.46 -157.36 C203.46 -197.35, 203.46 -237.33, 203.46 -302.72 M203.46 -157.36 C203.46 -192.12, 203.46 -226.88, 203.46 -302.72" stroke="#1e1e1e" stroke-width="1" fill="none"></path></g><g transform="translate(398.509568812868 511.113574696727) rotate(0 101.72884010063274 -151.36034824805313)"><path d="M203.46 -302.72 L209.8 -289.13 L197.12 -289.13 L203.46 -302.72" stroke="none" stroke-width="0" fill="#1e1e1e" fill-rule="evenodd"></path><path d="M203.46 -302.72 C205.55 -298.23, 207.65 -293.73, 209.8 -289.13 M203.46 -302.72 C205.8 -297.69, 208.15 -292.66, 209.8 -289.13 M209.8 -289.13 C205.46 -289.13, 201.12 -289.13, 197.12 -289.13 M209.8 -289.13 C206.97 -289.13, 204.14 -289.13, 197.12 -289.13 M197.12 -289.13 C198.77 -292.66, 200.42 -296.2, 203.46 -302.72 M197.12 -289.13 C199.01 -293.18, 200.9 -297.23, 203.46 -302.72 M203.46 -302.72 C203.46 -302.72, 203.46 -302.72, 203.46 -302.72 M203.46 -302.72 C203.46 -302.72, 203.46 -302.72, 203.46 -302.72" stroke="#1e1e1e" stroke-width="1" fill="none"></path></g></g><mask></mask><g stroke-linecap="round"><g transform="translate(486.25261990033766 675.3416696689083) rotate(0 20.08795181272592 14.97257368183341)"><path d="M0 0 C13.15 9.8, 26.3 19.6, 40.18 29.95 M0 0 C13.02 9.71, 26.05 19.41, 40.18 29.95" stroke="#1e1e1e" stroke-width="1" fill="none"></path></g><g transform="translate(486.25261990033766 675.3416696689083) rotate(0 20.08795181272592 14.97257368183341)"><path d="M40.18 29.95 L25.49 26.9 L33.06 16.74 L40.18 29.95" stroke="none" stroke-width="0" fill="#1e1e1e" fill-rule="evenodd"></path><path d="M40.18 29.95 C35.37 28.95, 30.56 27.95, 25.49 26.9 M40.18 29.95 C35.41 28.96, 30.65 27.97, 25.49 26.9 M25.49 26.9 C28.25 23.19, 31.02 19.48, 33.06 16.74 M25.49 26.9 C28.27 23.17, 31.05 19.45, 33.06 16.74 M33.06 16.74 C35.21 20.73, 37.36 24.72, 40.18 29.95 M33.06 16.74 C35.82 21.86, 38.59 26.99, 40.18 29.95 M40.18 29.95 C40.18 29.95, 40.18 29.95, 40.18 29.95 M40.18 29.95 C40.18 29.95, 40.18 29.95, 40.18 29.95" stroke="#1e1e1e" stroke-width="1" fill="none"></path></g></g><mask></mask><g stroke-linecap="round"><g transform="translate(375.8255683158767 63.49167652085521) rotate(0 -0.19731152648375883 45.77649668363904)"><path d="M0 0 C-0.12 28.59, -0.25 57.17, -0.39 91.55 M0 0 C-0.13 31, -0.27 62, -0.39 91.55" stroke="#1e1e1e" stroke-width="1" fill="none"></path></g><g transform="translate(375.8255683158767 63.49167652085521) rotate(0 -0.19731152648375883 45.77649668363904)"><path d="M-0.39 91.55 L-6.68 77.93 L6 77.99 L-0.39 91.55" stroke="none" stroke-width="0" fill="#1e1e1e" fill-rule="evenodd"></path><path d="M-0.39 91.55 C-2.36 87.3, -4.32 83.05, -6.68 77.93 M-0.39 91.55 C-2.52 86.94, -4.65 82.33, -6.68 77.93 M-6.68 77.93 C-3.03 77.95, 0.62 77.96, 6 77.99 M-6.68 77.93 C-4.06 77.94, -1.45 77.95, 6 77.99 M6 77.99 C4.49 81.19, 2.98 84.39, -0.39 91.55 M6 77.99 C3.53 83.22, 1.06 88.46, -0.39 91.55 M-0.39 91.55 C-0.39 91.55, -0.39 91.55, -0.39 91.55 M-0.39 91.55 C-0.39 91.55, -0.39 91.55, -0.39 91.55" stroke="#1e1e1e" stroke-width="1" fill="none"></path></g></g><mask></mask><g stroke-linecap="round"><g transform="translate(201.2091612627513 197.22085605061716) rotate(0 -0.31734229828151683 38.78317355138449)"><path d="M0 0 C-0.18 22.55, -0.37 45.11, -0.63 77.57 M0 0 C-0.17 20.9, -0.34 41.8, -0.63 77.57" stroke="#1e1e1e" stroke-width="1" fill="none"></path></g><g transform="translate(201.2091612627513 197.22085605061716) rotate(0 -0.31734229828151683 38.78317355138449)"><path d="M-0.63 77.57 L-6.86 63.92 L5.82 64.02 L-0.63 77.57" stroke="none" stroke-width="0" fill="#1e1e1e" fill-rule="evenodd"></path><path d="M-0.63 77.57 C-2.45 73.6, -4.26 69.63, -6.86 63.92 M-0.63 77.57 C-2.31 73.89, -3.99 70.21, -6.86 63.92 M-6.86 63.92 C-4.14 63.94, -1.42 63.96, 5.82 64.02 M-6.86 63.92 C-3.98 63.94, -1.1 63.97, 5.82 64.02 M5.82 64.02 C4.17 67.48, 2.52 70.94, -0.63 77.57 M5.82 64.02 C3.51 68.87, 1.2 73.72, -0.63 77.57 M-0.63 77.57 C-0.63 77.57, -0.63 77.57, -0.63 77.57 M-0.63 77.57 C-0.63 77.57, -0.63 77.57, -0.63 77.57" stroke="#1e1e1e" stroke-width="1" fill="none"></path></g></g><mask></mask><g stroke-linecap="round" transform="translate(128.75782622451857 644.6990969471558) rotate(0 65.83593129774727 25.202821128786354)"><path d="M12.6 0 C41.42 0, 70.24 0, 119.07 0 C127.47 0, 131.67 4.2, 131.67 12.6 C131.67 19.38, 131.67 26.16, 131.67 37.8 C131.67 46.21, 127.47 50.41, 119.07 50.41 C84.53 50.41, 50 50.41, 12.6 50.41 C4.2 50.41, 0 46.21, 0 37.8 C0 30.77, 0 23.74, 0 12.6 C0 4.2, 4.2 0, 12.6 0" stroke="none" stroke-width="0" fill="#ffd8a8"></path><path d="M12.6 0 C49.96 0, 87.32 0, 119.07 0 M12.6 0 C48.5 0, 84.4 0, 119.07 0 M119.07 0 C127.47 0, 131.67 4.2, 131.67 12.6 M119.07 0 C127.47 0, 131.67 4.2, 131.67 12.6 M131.67 12.6 C131.67 20.14, 131.67 27.68, 131.67 37.8 M131.67 12.6 C131.67 17.8, 131.67 22.99, 131.67 37.8 M131.67 37.8 C131.67 46.21, 127.47 50.41, 119.07 50.41 M131.67 37.8 C131.67 46.21, 127.47 50.41, 119.07 50.41 M119.07 50.41 C94.31 50.41, 69.54 50.41, 12.6 50.41 M119.07 50.41 C78.34 50.41, 37.6 50.41, 12.6 50.41 M12.6 50.41 C4.2 50.41, 0 46.21, 0 37.8 M12.6 50.41 C4.2 50.41, 0 46.21, 0 37.8 M0 37.8 C0 28.44, 0 19.07, 0 12.6 M0 37.8 C0 31.32, 0 24.83, 0 12.6 M0 12.6 C0 4.2, 4.2 0, 12.6 0 M0 12.6 C0 4.2, 4.2 0, 12.6 0" stroke="#1e1e1e" stroke-width="1" fill="none"></path></g><g transform="translate(159.41016377226583 660.7019180759421) rotate(0 35.18359375 9.200000000000045)"><text x="35.18359375" y="13.5203125" font-family="Helvetica, Segoe UI Emoji" font-size="16px" fill="#1e1e1e" text-anchor="middle" style="white-space: pre;" direction="ltr" dominant-baseline="alphabetic">authzMap</text></g><g stroke-linecap="round"><g transform="translate(390.6662446366155 702.7209343901359) rotate(0 -0.08019890717343969 50.45868034395289)"><path d="M0 0 C-0.03 16.82, -0.13 84.1, -0.16 100.92 M0 0 C-0.03 16.82, -0.13 84.1, -0.16 100.92" stroke="#1e1e1e" stroke-width="1" fill="none"></path></g><g transform="translate(390.6662446366155 702.7209343901359) rotate(0 -0.08019890717343969 50.45868034395289)"><path d="M-0.16 100.92 L-6.48 87.31 L6.2 87.33 L-0.16 100.92" stroke="none" stroke-width="0" fill="#1e1e1e" fill-rule="evenodd"></path><path d="M-0.16 100.92 C-1.56 97.91, -2.95 94.9, -6.48 87.31 M-0.16 100.92 C-1.48 98.08, -2.79 95.25, -6.48 87.31 M-6.48 87.31 C-3.3 87.32, -0.13 87.32, 6.2 87.33 M-6.48 87.31 C-3.09 87.32, 0.29 87.32, 6.2 87.33 M6.2 87.33 C3.85 92.35, 1.5 97.38, -0.16 100.92 M6.2 87.33 C4.73 90.48, 3.25 93.63, -0.16 100.92 M-0.16 100.92 C-0.16 100.92, -0.16 100.92, -0.16 100.92 M-0.16 100.92 C-0.16 100.92, -0.16 100.92, -0.16 100.92" stroke="#1e1e1e" stroke-width="1" fill="none"></path></g></g><mask></mask><g stroke-linecap="round"><g transform="translate(312.5770634744704 174.58968697585237) rotate(0 -21.259285239717997 -0.04995291049453954)"><path d="M0 0 C-2.44 0, -4.88 0, -11.21 0 M0 0 C-3.2 0, -6.4 0, -11.21 0 M-11.21 0 C-11.24 0, -11.26 -0.02, -11.26 -0.05 M-11.21 0 C-11.24 0, -11.26 -0.02, -11.26 -0.05 M-11.26 -0.05 C-11.26 -0.05, -11.26 -0.05, -11.26 -0.05 M-11.26 -0.05 C-11.26 -0.05, -11.26 -0.05, -11.26 -0.05 M-11.26 -0.05 C-11.26 -0.08, -11.28 -0.1, -11.31 -0.1 M-11.26 -0.05 C-11.26 -0.08, -11.28 -0.1, -11.31 -0.1 M-11.31 -0.1 C-19.44 -0.1, -27.58 -0.1, -42.52 -0.1 M-11.31 -0.1 C-21.53 -0.1, -31.76 -0.1, -42.52 -0.1" stroke="#1e1e1e" stroke-width="1" fill="none"></path></g><g transform="translate(312.5770634744704 174.58968697585237) rotate(0 -21.259285239717997 -0.04995291049453954)"><path d="M-42.52 -0.1 L-28.92 -6.44 L-28.92 6.24 L-42.52 -0.1" stroke="none" stroke-width="0" fill="#1e1e1e" fill-rule="evenodd"></path><path d="M-42.52 -0.1 C-39.56 -1.48, -36.6 -2.86, -28.92 -6.44 M-42.52 -0.1 C-38.64 -1.91, -34.76 -3.72, -28.92 -6.44 M-28.92 -6.44 C-28.92 -2.7, -28.92 1.05, -28.92 6.24 M-28.92 -6.44 C-28.92 -2.75, -28.92 0.93, -28.92 6.24 M-28.92 6.24 C-32.13 4.74, -35.34 3.25, -42.52 -0.1 M-28.92 6.24 C-34.36 3.71, -39.79 1.17, -42.52 -0.1 M-42.52 -0.1 C-42.52 -0.1, -42.52 -0.1, -42.52 -0.1 M-42.52 -0.1 C-42.52 -0.1, -42.52 -0.1, -42.52 -0.1" stroke="#1e1e1e" stroke-width="1" fill="none"></path></g></g><mask></mask><g transform="translate(96.40943026695572 275.400971490998) rotate(0 28.453125 9.200000000000045)"><text x="0" y="13.5203125" font-family="Helvetica, Segoe UI Emoji" font-size="16px" fill="#1e1e1e" text-anchor="start" style="white-space: pre;" direction="ltr" dominant-baseline="alphabetic">sys_call</text></g><g stroke-linecap="round"><g transform="translate(203.39273621916095 324.12013946799357) rotate(0 -0.2848554799129488 157.7894787395811)"><path d="M0 0 C0 31.91, 0 63.82, 0 147.5 M0 147.5 C0 147.69, -0.09 147.79, -0.28 147.79 M-0.28 147.79 C-0.28 147.79, -0.28 147.79, -0.28 147.79 M-0.28 147.79 C-0.47 147.79, -0.57 147.88, -0.57 148.07 M-0.57 148.07 C-0.57 194.1, -0.57 240.13, -0.57 315.58" stroke="#1e1e1e" stroke-width="1.5" fill="none" stroke-dasharray="8 9"></path></g><g transform="translate(203.39273621916095 324.12013946799357) rotate(0 -0.2848554799129488 157.7894787395811)"><path d="M-0.57 315.58 L-6.91 301.98 L5.77 301.98 L-0.57 315.58" stroke="none" stroke-width="0" fill="#1e1e1e" fill-rule="evenodd"></path><path d="M-0.57 315.58 C-1.94 312.64, -3.31 309.7, -6.91 301.98 M-6.91 301.98 C-3.61 301.98, -0.32 301.98, 5.77 301.98 M5.77 301.98 C4.42 304.87, 3.07 307.76, -0.57 315.58 M-0.57 315.58 C-0.57 315.58, -0.57 315.58, -0.57 315.58" stroke="#1e1e1e" stroke-width="1.5" fill="none"></path></g></g><mask></mask><g stroke-linecap="round"><g transform="translate(265.4296888200131 669.801918075942) rotate(0 18.430100682153693 0.00014126851556284237)"><path d="M0 0 C2.9 0, 5.8 0, 8.43 0 M8.43 0 C8.43 0, 8.43 0, 8.43 0 M8.43 0 C8.43 0, 8.43 0, 8.43 0 M8.43 0 C8.43 0, 8.43 0, 8.43 0 M8.43 0 C18.17 0, 27.92 0, 36.86 0" stroke="#1e1e1e" stroke-width="1.5" fill="none" stroke-dasharray="8 9"></path></g><g transform="translate(265.4296888200131 669.801918075942) rotate(0 18.430100682153693 0.00014126851556284237)"><path d="M36.86 0 L23.98 6.01 L23.98 -6.01 L36.86 0" stroke="none" stroke-width="0" fill="#1e1e1e" fill-rule="evenodd"></path><path d="M36.86 0 C32.43 2.07, 28 4.13, 23.98 6.01 M23.98 6.01 C23.98 1.92, 23.98 -2.16, 23.98 -6.01 M23.98 -6.01 C27.44 -4.39, 30.9 -2.78, 36.86 0 M36.86 0 C36.86 0, 36.86 0, 36.86 0" stroke="#1e1e1e" stroke-width="1.5" fill="none"></path></g></g><mask></mask></svg>