<svg version="1.1" xmlns="http://www.w3.org/2000/svg" viewBox="0 0 948.3563478575668 264.75350265752877" width="948.3563478575668" height="264.75350265752877">
  <!-- svg-source:excalidraw -->
  
  <defs>
    <style class="style-fonts">
      
    </style>
    
  </defs>
  <rect x="0" y="0" width="948.3563478575668" height="264.75350265752877" fill="#ffffff"></rect><g stroke-linecap="round" transform="translate(186.93391820799172 10) rotate(0 292.66099183028854 78.18011544038131)"><path d="M32 0 C153.67 0, 275.35 0, 553.32 0 M553.32 0 C574.66 0, 585.32 10.67, 585.32 32 M585.32 32 C585.32 53.72, 585.32 75.43, 585.32 124.36 M585.32 124.36 C585.32 145.69, 574.66 156.36, 553.32 156.36 M553.32 156.36 C411.59 156.36, 269.87 156.36, 32 156.36 M32 156.36 C10.67 156.36, 0 145.69, 0 124.36 M0 124.36 C0 91.67, 0 58.99, 0 32 M0 32 C0 10.67, 10.67 0, 32 0" stroke="#1e1e1e" stroke-width="1.5" fill="none" stroke-dasharray="8 9"></path></g><g stroke-linecap="round" transform="translate(221.90931851489586 72.69447410488874) rotate(0 61.72115616069709 24.729503184594705)"><path d="M12.36 0 C40.62 0, 68.88 0, 111.08 0 M12.36 0 C48.57 0, 84.78 0, 111.08 0 M111.08 0 C119.32 0, 123.44 4.12, 123.44 12.36 M111.08 0 C119.32 0, 123.44 4.12, 123.44 12.36 M123.44 12.36 C123.44 19.64, 123.44 26.91, 123.44 37.09 M123.44 12.36 C123.44 19.17, 123.44 25.97, 123.44 37.09 M123.44 37.09 C123.44 45.34, 119.32 49.46, 111.08 49.46 M123.44 37.09 C123.44 45.34, 119.32 49.46, 111.08 49.46 M111.08 49.46 C74.87 49.46, 38.66 49.46, 12.36 49.46 M111.08 49.46 C78.43 49.46, 45.79 49.46, 12.36 49.46 M12.36 49.46 C4.12 49.46, 0 45.34, 0 37.09 M12.36 49.46 C4.12 49.46, 0 45.34, 0 37.09 M0 37.09 C0 30.98, 0 24.86, 0 12.36 M0 37.09 C0 28.27, 0 19.44, 0 12.36 M0 12.36 C0 4.12, 4.12 0, 12.36 0 M0 12.36 C0 4.12, 4.12 0, 12.36 0" stroke="#1e1e1e" stroke-width="1" fill="none"></path></g><g transform="translate(233.16758405059295 85.92397728948345) rotate(0 50.462890625 11.5)"><text x="50.462890625" y="16.900390625" font-family="Helvetica, Segoe UI Emoji" font-size="20px" fill="#1e1e1e" text-anchor="middle" style="white-space: pre;" direction="ltr" dominant-baseline="alphabetic">port_match</text></g><g stroke-linecap="round" transform="translate(424.52772281976274 72.22110907119259) rotate(0 60.178127256679716 24.729503184594705)"><path d="M12.36 0 C47.93 0, 83.49 0, 107.99 0 M12.36 0 C48.74 0, 85.12 0, 107.99 0 M107.99 0 C116.23 0, 120.36 4.12, 120.36 12.36 M107.99 0 C116.23 0, 120.36 4.12, 120.36 12.36 M120.36 12.36 C120.36 20.99, 120.36 29.61, 120.36 37.09 M120.36 12.36 C120.36 18.39, 120.36 24.41, 120.36 37.09 M120.36 37.09 C120.36 45.34, 116.23 49.46, 107.99 49.46 M120.36 37.09 C120.36 45.34, 116.23 49.46, 107.99 49.46 M107.99 49.46 C80.8 49.46, 53.6 49.46, 12.36 49.46 M107.99 49.46 C83.67 49.46, 59.34 49.46, 12.36 49.46 M12.36 49.46 C4.12 49.46, 0 45.34, 0 37.09 M12.36 49.46 C4.12 49.46, 0 45.34, 0 37.09 M0 37.09 C0 30.93, 0 24.76, 0 12.36 M0 37.09 C0 27.24, 0 17.39, 0 12.36 M0 12.36 C0 4.12, 4.12 0, 12.36 0 M0 12.36 C0 4.12, 4.12 0, 12.36 0" stroke="#1e1e1e" stroke-width="1" fill="none"></path></g><g transform="translate(443.6912016389425 85.45061225578729) rotate(0 41.0146484375 11.5)"><text x="41.0146484375" y="16.900390625" font-family="Helvetica, Segoe UI Emoji" font-size="20px" fill="#1e1e1e" text-anchor="middle" style="white-space: pre;" direction="ltr" dominant-baseline="alphabetic">ip_match</text></g><g stroke-linecap="round" transform="translate(618.0599751375858 72.22120325020296) rotate(0 60.17808016717447 24.729503184594705)"><path d="M12.36 0 C37.86 0, 63.36 0, 107.99 0 M12.36 0 C37.04 0, 61.71 0, 107.99 0 M107.99 0 C116.23 0, 120.36 4.12, 120.36 12.36 M107.99 0 C116.23 0, 120.36 4.12, 120.36 12.36 M120.36 12.36 C120.36 22.25, 120.36 32.14, 120.36 37.09 M120.36 12.36 C120.36 18.45, 120.36 24.53, 120.36 37.09 M120.36 37.09 C120.36 45.34, 116.23 49.46, 107.99 49.46 M120.36 37.09 C120.36 45.34, 116.23 49.46, 107.99 49.46 M107.99 49.46 C73.27 49.46, 38.55 49.46, 12.36 49.46 M107.99 49.46 C74.9 49.46, 41.81 49.46, 12.36 49.46 M12.36 49.46 C4.12 49.46, 0 45.34, 0 37.09 M12.36 49.46 C4.12 49.46, 0 45.34, 0 37.09 M0 37.09 C0 31.94, 0 26.78, 0 12.36 M0 37.09 C0 27.75, 0 18.41, 0 12.36 M0 12.36 C0 4.12, 4.12 0, 12.36 0 M0 12.36 C0 4.12, 4.12 0, 12.36 0" stroke="#1e1e1e" stroke-width="1" fill="none"></path></g><g transform="translate(633.2136412422603 85.45070643479767) rotate(0 45.0244140625 11.5)"><text x="45.0244140625" y="16.900390625" font-family="Helvetica, Segoe UI Emoji" font-size="20px" fill="#1e1e1e" text-anchor="middle" style="white-space: pre;" direction="ltr" dominant-baseline="alphabetic">other-type</text></g><g stroke-linecap="round"><g transform="translate(136.38478348435422 97.5084162968542) rotate(0 40.26226751527082 -0.09221950368532816)"><path d="M0 0 C10.36 0, 20.72 0, 28.67 0 M28.67 0 C28.73 0, 28.76 -0.03, 28.76 -0.09 M28.76 -0.09 C28.76 -0.09, 28.76 -0.09, 28.76 -0.09 M28.76 -0.09 C28.76 -0.15, 28.79 -0.18, 28.85 -0.18 M28.85 -0.18 C46.66 -0.18, 64.47 -0.18, 80.52 -0.18" stroke="#1e1e1e" stroke-width="1.5" fill="none" stroke-dasharray="8 9"></path></g><g transform="translate(136.38478348435422 97.5084162968542) rotate(0 40.26226751527082 -0.09221950368532816)"><path d="M80.52 -0.18 L66.93 6.15 L66.93 -6.52 L80.52 -0.18" stroke="none" stroke-width="0" fill="#1e1e1e" fill-rule="evenodd"></path><path d="M80.52 -0.18 C75.61 2.11, 70.7 4.4, 66.93 6.15 M66.93 6.15 C66.93 1.81, 66.93 -2.53, 66.93 -6.52 M66.93 -6.52 C70.08 -5.05, 73.24 -3.58, 80.52 -0.18 M80.52 -0.18 C80.52 -0.18, 80.52 -0.18, 80.52 -0.18" stroke="#1e1e1e" stroke-width="1.5" fill="none"></path></g></g><mask></mask><g stroke-linecap="round"><g transform="translate(350.35163083629004 97.32397728948354) rotate(0 34.58804599173635 -0.23668251684807728)"><path d="M0 0 C7.99 0, 15.98 0, 24.35 0 M24.35 0 C24.51 0, 24.59 -0.08, 24.59 -0.24 M24.59 -0.24 C24.59 -0.24, 24.59 -0.24, 24.59 -0.24 M24.59 -0.24 C24.59 -0.39, 24.67 -0.47, 24.82 -0.47 M24.82 -0.47 C35.94 -0.47, 47.05 -0.47, 69.18 -0.47" stroke="#1e1e1e" stroke-width="1.5" fill="none" stroke-dasharray="8 9"></path></g><g transform="translate(350.35163083629004 97.32397728948354) rotate(0 34.58804599173635 -0.23668251684807728)"><path d="M69.18 -0.47 L55.58 5.87 L55.58 -6.81 L69.18 -0.47" stroke="none" stroke-width="0" fill="#1e1e1e" fill-rule="evenodd"></path><path d="M69.18 -0.47 C64.72 1.61, 60.26 3.69, 55.58 5.87 M55.58 5.87 C55.58 2.32, 55.58 -1.22, 55.58 -6.81 M55.58 -6.81 C58.39 -5.5, 61.19 -4.2, 69.18 -0.47 M69.18 -0.47 C69.18 -0.47, 69.18 -0.47, 69.18 -0.47" stroke="#1e1e1e" stroke-width="1.5" fill="none"></path></g></g><mask></mask><g stroke-linecap="round"><g transform="translate(549.8839773331222 96.85061225578738) rotate(0 31.58799890223179 0.00004708950518761412)"><path d="M0 0 C6.96 0, 13.91 0, 21.59 0 M21.59 0 C21.59 0, 21.59 0, 21.59 0 M21.59 0 C21.59 0, 21.59 0, 21.59 0 M21.59 0 C21.59 0, 21.59 0, 21.59 0 M21.59 0 C34.76 0, 47.93 0, 63.18 0" stroke="#1e1e1e" stroke-width="1.5" fill="none" stroke-dasharray="8 9"></path></g><g transform="translate(549.8839773331222 96.85061225578738) rotate(0 31.58799890223179 0.00004708950518761412)"><path d="M63.18 0 L49.58 6.34 L49.58 -6.34 L63.18 0" stroke="none" stroke-width="0" fill="#1e1e1e" fill-rule="evenodd"></path><path d="M63.18 0 C58.8 2.04, 54.41 4.09, 49.58 6.34 M49.58 6.34 C49.58 1.84, 49.58 -2.66, 49.58 -6.34 M49.58 -6.34 C54.51 -4.04, 59.44 -1.74, 63.18 0 M63.18 0 C63.18 0, 63.18 0, 63.18 0" stroke="#1e1e1e" stroke-width="1.5" fill="none"></path></g></g><mask></mask><g stroke-linecap="round" transform="translate(10 74.76617324841664) rotate(0 61.72115616069709 24.729503184594705)"><path d="M12.36 0 C38.43 0, 64.5 0, 111.08 0 M12.36 0 C50.2 0, 88.03 0, 111.08 0 M111.08 0 C119.32 0, 123.44 4.12, 123.44 12.36 M111.08 0 C119.32 0, 123.44 4.12, 123.44 12.36 M123.44 12.36 C123.44 20.21, 123.44 28.06, 123.44 37.09 M123.44 12.36 C123.44 17.84, 123.44 23.32, 123.44 37.09 M123.44 37.09 C123.44 45.34, 119.32 49.46, 111.08 49.46 M123.44 37.09 C123.44 45.34, 119.32 49.46, 111.08 49.46 M111.08 49.46 C77.35 49.46, 43.61 49.46, 12.36 49.46 M111.08 49.46 C74.74 49.46, 38.41 49.46, 12.36 49.46 M12.36 49.46 C4.12 49.46, 0 45.34, 0 37.09 M12.36 49.46 C4.12 49.46, 0 45.34, 0 37.09 M0 37.09 C0 29.52, 0 21.95, 0 12.36 M0 37.09 C0 29.63, 0 22.17, 0 12.36 M0 12.36 C0 4.12, 4.12 0, 12.36 0 M0 12.36 C0 4.12, 4.12 0, 12.36 0" stroke="#1e1e1e" stroke-width="1" fill="none"></path></g><g transform="translate(37.64498428569709 87.99567643301134) rotate(0 34.076171875 11.5)"><text x="34.076171875" y="16.900390625" font-family="Helvetica, Segoe UI Emoji" font-size="20px" fill="#1e1e1e" text-anchor="middle" style="white-space: pre;" direction="ltr" dominant-baseline="alphabetic">request</text></g><g transform="translate(210.5936633432558 26.459006369188955) rotate(0 62.69921875 11.5)"><text x="0" y="16.900390625" font-family="Helvetica, Segoe UI Emoji" font-size="20px" fill="#1e1e1e" text-anchor="start" style="white-space: pre;" direction="ltr" dominant-baseline="alphabetic">xdp rule chain</text></g><g stroke-linecap="round" transform="translate(818.0001875232178 71.70883276939594) rotate(0 60.17808016717447 24.729503184594705)"><path d="M12.36 0 C39.43 0, 66.5 0, 107.99 0 M12.36 0 C38.75 0, 65.14 0, 107.99 0 M107.99 0 C116.23 0, 120.36 4.12, 120.36 12.36 M107.99 0 C116.23 0, 120.36 4.12, 120.36 12.36 M120.36 12.36 C120.36 19.23, 120.36 26.09, 120.36 37.09 M120.36 12.36 C120.36 17.64, 120.36 22.91, 120.36 37.09 M120.36 37.09 C120.36 45.34, 116.23 49.46, 107.99 49.46 M120.36 37.09 C120.36 45.34, 116.23 49.46, 107.99 49.46 M107.99 49.46 C75.12 49.46, 42.25 49.46, 12.36 49.46 M107.99 49.46 C76.48 49.46, 44.96 49.46, 12.36 49.46 M12.36 49.46 C4.12 49.46, 0 45.34, 0 37.09 M12.36 49.46 C4.12 49.46, 0 45.34, 0 37.09 M0 37.09 C0 28.53, 0 19.97, 0 12.36 M0 37.09 C0 28.72, 0 20.34, 0 12.36 M0 12.36 C0 4.12, 4.12 0, 12.36 0 M0 12.36 C0 4.12, 4.12 0, 12.36 0" stroke="#1e1e1e" stroke-width="1" fill="none"></path></g><g transform="translate(849.7251426903922 84.93833595399065) rotate(0 28.453125 11.5)"><text x="28.453125" y="16.900390625" font-family="Helvetica, Segoe UI Emoji" font-size="20px" fill="#1e1e1e" text-anchor="middle" style="white-space: pre;" direction="ltr" dominant-baseline="alphabetic">server</text></g><g stroke-linecap="round"><g transform="translate(743.4161354719347 96.85070643479776) rotate(0 34.792026025641576 -0.25618524040351076)"><path d="M0 0 C8.93 0, 17.87 0, 24.54 0 M24.54 0 C24.71 0, 24.79 -0.09, 24.79 -0.26 M24.79 -0.26 C24.79 -0.26, 24.79 -0.26, 24.79 -0.26 M24.79 -0.26 C24.79 -0.43, 24.88 -0.51, 25.05 -0.51 M25.05 -0.51 C35.06 -0.51, 45.06 -0.51, 69.58 -0.51" stroke="#1e1e1e" stroke-width="1.5" fill="none" stroke-dasharray="8 9"></path></g><g transform="translate(743.4161354719347 96.85070643479776) rotate(0 34.792026025641576 -0.25618524040351076)"><path d="M69.58 -0.51 L55.99 5.83 L55.99 -6.85 L69.58 -0.51" stroke="none" stroke-width="0" fill="#1e1e1e" fill-rule="evenodd"></path><path d="M69.58 -0.51 C64.63 1.8, 59.68 4.1, 55.99 5.83 M55.99 5.83 C55.99 2.69, 55.99 -0.45, 55.99 -6.85 M55.99 -6.85 C61.03 -4.5, 66.08 -2.15, 69.58 -0.51 M69.58 -0.51 C69.58 -0.51, 69.58 -0.51, 69.58 -0.51" stroke="#1e1e1e" stroke-width="1.5" fill="none"></path></g></g><mask></mask><g stroke-linecap="round" transform="translate(258.99921142181813 209.56513437226067) rotate(0 15.5 20.5)"><path d="M31 20.5 C31 21.69, 30.92 22.89, 30.76 24.06 C30.61 25.23, 30.37 26.4, 30.07 27.51 C29.76 28.63, 29.37 29.72, 28.92 30.75 C28.47 31.78, 27.95 32.77, 27.37 33.68 C26.8 34.59, 26.15 35.44, 25.46 36.2 C24.78 36.97, 24.03 37.66, 23.25 38.25 C22.47 38.85, 21.64 39.36, 20.8 39.76 C19.96 40.17, 19.08 40.48, 18.19 40.69 C17.31 40.89, 16.4 41, 15.5 41 C14.6 41, 13.69 40.89, 12.81 40.69 C11.92 40.48, 11.04 40.17, 10.2 39.76 C9.36 39.36, 8.53 38.85, 7.75 38.25 C6.97 37.66, 6.22 36.97, 5.54 36.2 C4.85 35.44, 4.2 34.59, 3.63 33.68 C3.05 32.77, 2.53 31.78, 2.08 30.75 C1.63 29.72, 1.24 28.63, 0.93 27.51 C0.63 26.4, 0.39 25.23, 0.24 24.06 C0.08 22.89, 0 21.69, 0 20.5 C0 19.31, 0.08 18.11, 0.24 16.94 C0.39 15.77, 0.63 14.6, 0.93 13.49 C1.24 12.37, 1.63 11.28, 2.08 10.25 C2.53 9.22, 3.05 8.23, 3.63 7.32 C4.2 6.41, 4.85 5.56, 5.54 4.8 C6.22 4.03, 6.97 3.34, 7.75 2.75 C8.53 2.15, 9.36 1.64, 10.2 1.24 C11.04 0.83, 11.92 0.52, 12.81 0.31 C13.69 0.11, 14.6 0, 15.5 0 C16.4 0, 17.31 0.11, 18.19 0.31 C19.08 0.52, 19.96 0.83, 20.8 1.24 C21.64 1.64, 22.47 2.15, 23.25 2.75 C24.03 3.34, 24.78 4.03, 25.46 4.8 C26.15 5.56, 26.8 6.41, 27.37 7.32 C27.95 8.23, 28.47 9.22, 28.92 10.25 C29.37 11.28, 29.76 12.37, 30.07 13.49 C30.37 14.6, 30.61 15.77, 30.76 16.94 C30.92 18.11, 30.96 19.91, 31 20.5 C31.04 21.09, 31.04 19.91, 31 20.5" stroke="#1e1e1e" stroke-width="1" fill="none"></path></g><g transform="translate(268.5390563134266 220.86944535793646) rotate(0 6 9.200000000000045)"><text x="6" y="13.5203125" font-family="Helvetica, Segoe UI Emoji" font-size="16px" fill="#1e1e1e" text-anchor="middle" style="white-space: pre;" direction="ltr" dominant-baseline="alphabetic">X</text></g><g stroke-linecap="round"><g transform="translate(273.34353683296797 127.15348047407815) rotate(0 -0.021353305242712395 38.705955805174426)"><path d="M0 0 C0 10.98, 0 21.95, 0 28.68 M0 28.68 C0 28.7, -0.01 28.71, -0.02 28.71 M-0.02 28.71 C-0.02 28.71, -0.02 28.71, -0.02 28.71 M-0.02 28.71 C-0.04 28.71, -0.04 28.71, -0.04 28.73 M-0.04 28.73 C-0.04 48.08, -0.04 67.42, -0.04 77.41" stroke="#1e1e1e" stroke-width="1.5" fill="none" stroke-dasharray="8 9"></path></g><g transform="translate(273.34353683296797 127.15348047407815) rotate(0 -0.021353305242712395 38.705955805174426)"><path d="M-0.04 77.41 L-6.38 63.82 L6.3 63.82 L-0.04 77.41" stroke="none" stroke-width="0" fill="#1e1e1e" fill-rule="evenodd"></path><path d="M-0.04 77.41 C-2.47 72.21, -4.89 67.01, -6.38 63.82 M-6.38 63.82 C-2.56 63.82, 1.26 63.82, 6.3 63.82 M6.3 63.82 C4.25 68.21, 2.2 72.6, -0.04 77.41 M-0.04 77.41 C-0.04 77.41, -0.04 77.41, -0.04 77.41" stroke="#1e1e1e" stroke-width="1.5" fill="none"></path></g></g><mask></mask><g stroke-linecap="round" transform="translate(469.7241851083535 213.75350265752877) rotate(0 15.5 20.5)"><path d="M31 20.5 C31 21.69, 30.92 22.89, 30.76 24.06 C30.61 25.23, 30.37 26.4, 30.07 27.51 C29.76 28.63, 29.37 29.72, 28.92 30.75 C28.47 31.78, 27.95 32.77, 27.37 33.68 C26.8 34.59, 26.15 35.44, 25.46 36.2 C24.78 36.97, 24.03 37.66, 23.25 38.25 C22.47 38.85, 21.64 39.36, 20.8 39.76 C19.96 40.17, 19.08 40.48, 18.19 40.69 C17.31 40.89, 16.4 41, 15.5 41 C14.6 41, 13.69 40.89, 12.81 40.69 C11.92 40.48, 11.04 40.17, 10.2 39.76 C9.36 39.36, 8.53 38.85, 7.75 38.25 C6.97 37.66, 6.22 36.97, 5.54 36.2 C4.85 35.44, 4.2 34.59, 3.63 33.68 C3.05 32.77, 2.53 31.78, 2.08 30.75 C1.63 29.72, 1.24 28.63, 0.93 27.51 C0.63 26.4, 0.39 25.23, 0.24 24.06 C0.08 22.89, 0 21.69, 0 20.5 C0 19.31, 0.08 18.11, 0.24 16.94 C0.39 15.77, 0.63 14.6, 0.93 13.49 C1.24 12.37, 1.63 11.28, 2.08 10.25 C2.53 9.22, 3.05 8.23, 3.63 7.32 C4.2 6.41, 4.85 5.56, 5.54 4.8 C6.22 4.03, 6.97 3.34, 7.75 2.75 C8.53 2.15, 9.36 1.64, 10.2 1.24 C11.04 0.83, 11.92 0.52, 12.81 0.31 C13.69 0.11, 14.6 0, 15.5 0 C16.4 0, 17.31 0.11, 18.19 0.31 C19.08 0.52, 19.96 0.83, 20.8 1.24 C21.64 1.64, 22.47 2.15, 23.25 2.75 C24.03 3.34, 24.78 4.03, 25.46 4.8 C26.15 5.56, 26.8 6.41, 27.37 7.32 C27.95 8.23, 28.47 9.22, 28.92 10.25 C29.37 11.28, 29.76 12.37, 30.07 13.49 C30.37 14.6, 30.61 15.77, 30.76 16.94 C30.92 18.11, 30.96 19.91, 31 20.5 C31.04 21.09, 31.04 19.91, 31 20.5" stroke="#1e1e1e" stroke-width="1" fill="none"></path></g><g transform="translate(479.26402999996196 225.05781364320455) rotate(0 6 9.200000000000045)"><text x="6" y="13.5203125" font-family="Helvetica, Segoe UI Emoji" font-size="16px" fill="#1e1e1e" text-anchor="middle" style="white-space: pre;" direction="ltr" dominant-baseline="alphabetic">X</text></g><g stroke-linecap="round"><g transform="translate(484.6058500764425 126.680115440382) rotate(0 0.2591675159554825 41.03684530489522)"><path d="M0 0 C0 8.5, 0 16.99, 0 30.78 M0 30.78 C0 30.95, 0.09 31.04, 0.26 31.04 M0.26 31.04 C0.26 31.04, 0.26 31.04, 0.26 31.04 M0.26 31.04 C0.43 31.04, 0.52 31.12, 0.52 31.3 M0.52 31.3 C0.52 45.67, 0.52 60.04, 0.52 82.07" stroke="#1e1e1e" stroke-width="1.5" fill="none" stroke-dasharray="8 9"></path></g><g transform="translate(484.6058500764425 126.680115440382) rotate(0 0.2591675159554825 41.03684530489522)"><path d="M0.52 82.07 L-5.82 68.48 L6.86 68.48 L0.52 82.07" stroke="none" stroke-width="0" fill="#1e1e1e" fill-rule="evenodd"></path><path d="M0.52 82.07 C-1.23 78.32, -2.98 74.57, -5.82 68.48 M-5.82 68.48 C-0.89 68.48, 4.04 68.48, 6.86 68.48 M6.86 68.48 C4.4 73.76, 1.94 79.03, 0.52 82.07 M0.52 82.07 C0.52 82.07, 0.52 82.07, 0.52 82.07" stroke="#1e1e1e" stroke-width="1.5" fill="none"></path></g></g><mask></mask><g stroke-linecap="round" transform="translate(659.0311460565104 209.6674448494946) rotate(0 15.5 20.5)"><path d="M31 20.5 C31 21.69, 30.92 22.89, 30.76 24.06 C30.61 25.23, 30.37 26.4, 30.07 27.51 C29.76 28.63, 29.37 29.72, 28.92 30.75 C28.47 31.78, 27.95 32.77, 27.37 33.68 C26.8 34.59, 26.15 35.44, 25.46 36.2 C24.78 36.97, 24.03 37.66, 23.25 38.25 C22.47 38.85, 21.64 39.36, 20.8 39.76 C19.96 40.17, 19.08 40.48, 18.19 40.69 C17.31 40.89, 16.4 41, 15.5 41 C14.6 41, 13.69 40.89, 12.81 40.69 C11.92 40.48, 11.04 40.17, 10.2 39.76 C9.36 39.36, 8.53 38.85, 7.75 38.25 C6.97 37.66, 6.22 36.97, 5.54 36.2 C4.85 35.44, 4.2 34.59, 3.63 33.68 C3.05 32.77, 2.53 31.78, 2.08 30.75 C1.63 29.72, 1.24 28.63, 0.93 27.51 C0.63 26.4, 0.39 25.23, 0.24 24.06 C0.08 22.89, 0 21.69, 0 20.5 C0 19.31, 0.08 18.11, 0.24 16.94 C0.39 15.77, 0.63 14.6, 0.93 13.49 C1.24 12.37, 1.63 11.28, 2.08 10.25 C2.53 9.22, 3.05 8.23, 3.63 7.32 C4.2 6.41, 4.85 5.56, 5.54 4.8 C6.22 4.03, 6.97 3.34, 7.75 2.75 C8.53 2.15, 9.36 1.64, 10.2 1.24 C11.04 0.83, 11.92 0.52, 12.81 0.31 C13.69 0.11, 14.6 0, 15.5 0 C16.4 0, 17.31 0.11, 18.19 0.31 C19.08 0.52, 19.96 0.83, 20.8 1.24 C21.64 1.64, 22.47 2.15, 23.25 2.75 C24.03 3.34, 24.78 4.03, 25.46 4.8 C26.15 5.56, 26.8 6.41, 27.37 7.32 C27.95 8.23, 28.47 9.22, 28.92 10.25 C29.37 11.28, 29.76 12.37, 30.07 13.49 C30.37 14.6, 30.61 15.77, 30.76 16.94 C30.92 18.11, 30.96 19.91, 31 20.5 C31.04 21.09, 31.04 19.91, 31 20.5" stroke="#1e1e1e" stroke-width="1" fill="none"></path></g><g transform="translate(668.5709909481188 220.97175583517037) rotate(0 6 9.200000000000045)"><text x="6" y="13.5203125" font-family="Helvetica, Segoe UI Emoji" font-size="16px" fill="#1e1e1e" text-anchor="middle" style="white-space: pre;" direction="ltr" dominant-baseline="alphabetic">X</text></g><g stroke-linecap="round"><g transform="translate(669.3876535904451 126.68020961939237) rotate(0 0 39.40145856700906)"><path d="M0 0 C0 24.61, 0 49.22, 0 78.8" stroke="#1e1e1e" stroke-width="1.5" fill="none" stroke-dasharray="8 9"></path></g><g transform="translate(669.3876535904451 126.68020961939237) rotate(0 0 39.40145856700906)"><path d="M0 78.8 L-6.34 65.21 L6.34 65.21 L0 78.8" stroke="none" stroke-width="0" fill="#1e1e1e" fill-rule="evenodd"></path><path d="M0 78.8 C-1.98 74.56, -3.96 70.31, -6.34 65.21 M-6.34 65.21 C-2.99 65.21, 0.35 65.21, 6.34 65.21 M6.34 65.21 C4.18 69.84, 2.02 74.48, 0 78.8 M0 78.8 C0 78.8, 0 78.8, 0 78.8" stroke="#1e1e1e" stroke-width="1.5" fill="none"></path></g></g><mask></mask></svg>