<svg version="1.1" xmlns="http://www.w3.org/2000/svg" viewBox="0 0 1018.4750178982799 755.2469000037639" width="1018.4750178982799" height="755.2469000037639">
  <!-- svg-source:excalidraw -->
  
  <defs>
    <style class="style-fonts">
      @font-face {
        font-family: "Virgil";
        src: url("https://excalidraw.com/Virgil.woff2");
      }
      @font-face {
        font-family: "Cascadia";
        src: url("https://excalidraw.com/Cascadia.woff2");
      }
      @font-face {
        font-family: "Assistant";
        src: url("https://excalidraw.com/Assistant-Regular.woff2");
      }
    </style>
    
  </defs>
  <rect x="0" y="0" width="1018.4750178982799" height="755.2469000037639" fill="#ffffff"></rect><g stroke-linecap="round" transform="translate(10 161.66391025946814) rotate(0 86.28566850934706 291.7914948721479)"><path d="M32 0 C73.51 0, 115.03 0, 140.57 0 M32 0 C70.04 0, 108.08 0, 140.57 0 M140.57 0 C161.9 0, 172.57 10.67, 172.57 32 M140.57 0 C161.9 0, 172.57 10.67, 172.57 32 M172.57 32 C172.57 151.89, 172.57 271.78, 172.57 551.58 M172.57 32 C172.57 147.09, 172.57 262.17, 172.57 551.58 M172.57 551.58 C172.57 572.92, 161.9 583.58, 140.57 583.58 M172.57 551.58 C172.57 572.92, 161.9 583.58, 140.57 583.58 M140.57 583.58 C110.68 583.58, 80.78 583.58, 32 583.58 M140.57 583.58 C102.82 583.58, 65.07 583.58, 32 583.58 M32 583.58 C10.67 583.58, 0 572.92, 0 551.58 M32 583.58 C10.67 583.58, 0 572.92, 0 551.58 M0 551.58 C0 405.96, 0 260.34, 0 32 M0 551.58 C0 386.09, 0 220.61, 0 32 M0 32 C0 10.67, 10.67 0, 32 0 M0 32 C0 10.67, 10.67 0, 32 0" stroke="#1e1e1e" stroke-width="1" fill="none"></path></g><g transform="translate(77.60988725934703 166.66391025946814) rotate(0 18.67578125 9.199999999999989)"><text x="18.67578125" y="14.720312499999999" font-family="Helvetica, Segoe UI Emoji" font-size="16px" fill="#1e1e1e" text-anchor="middle" style="white-space: pre;" direction="ltr" dominant-baseline="alphabetic">client</text></g><g stroke-linecap="round" transform="translate(377.38427938459523 152.58082309925067) rotate(0 83.95230974469865 289.6053280504088)"><path d="M32 0 C57.12 0, 82.23 0, 135.9 0 M32 0 C72.57 0, 113.15 0, 135.9 0 M135.9 0 C157.24 0, 167.9 10.67, 167.9 32 M135.9 0 C157.24 0, 167.9 10.67, 167.9 32 M167.9 32 C167.9 224.62, 167.9 417.24, 167.9 547.21 M167.9 32 C167.9 138.63, 167.9 245.25, 167.9 547.21 M167.9 547.21 C167.9 568.54, 157.24 579.21, 135.9 579.21 M167.9 547.21 C167.9 568.54, 157.24 579.21, 135.9 579.21 M135.9 579.21 C103.01 579.21, 70.11 579.21, 32 579.21 M135.9 579.21 C97.04 579.21, 58.17 579.21, 32 579.21 M32 579.21 C10.67 579.21, 0 568.54, 0 547.21 M32 579.21 C10.67 579.21, 0 568.54, 0 547.21 M0 547.21 C0 422.23, 0 297.24, 0 32 M0 547.21 C0 436.51, 0 325.82, 0 32 M0 32 C0 10.67, 10.67 0, 32 0 M0 32 C0 10.67, 10.67 0, 32 0" stroke="#1e1e1e" stroke-width="1" fill="none"></path></g><g transform="translate(439.1100266292938 157.58082309925067) rotate(0 22.2265625 9.199999999999989)"><text x="22.2265625" y="14.720312499999999" font-family="Helvetica, Segoe UI Emoji" font-size="16px" fill="#1e1e1e" text-anchor="middle" style="white-space: pre;" direction="ltr" dominant-baseline="alphabetic">server</text></g><g stroke-linecap="round" transform="translate(771.2366869804164 159.78167694407364) rotate(0 105.28562273297985 131.76199340820312)"><path d="M32 0 C72.92 0, 113.84 0, 178.57 0 M32 0 C83.49 0, 134.98 0, 178.57 0 M178.57 0 C199.9 0, 210.57 10.67, 210.57 32 M178.57 0 C199.9 0, 210.57 10.67, 210.57 32 M210.57 32 C210.57 85.79, 210.57 139.57, 210.57 231.52 M210.57 32 C210.57 103.33, 210.57 174.67, 210.57 231.52 M210.57 231.52 C210.57 252.86, 199.9 263.52, 178.57 263.52 M210.57 231.52 C210.57 252.86, 199.9 263.52, 178.57 263.52 M178.57 263.52 C147.76 263.52, 116.96 263.52, 32 263.52 M178.57 263.52 C138.15 263.52, 97.74 263.52, 32 263.52 M32 263.52 C10.67 263.52, 0 252.86, 0 231.52 M32 263.52 C10.67 263.52, 0 252.86, 0 231.52 M0 231.52 C0 160.54, 0 89.56, 0 32 M0 231.52 C0 160.72, 0 89.91, 0 32 M0 32 C0 10.67, 10.67 0, 32 0 M0 32 C0 10.67, 10.67 0, 32 0" stroke="#1e1e1e" stroke-width="1" fill="none"></path></g><g transform="translate(821.3855909633962 164.78167694407364) rotate(0 55.13671875 9.199999999999989)"><text x="55.13671875" y="14.720312499999999" font-family="Helvetica, Segoe UI Emoji" font-size="16px" fill="#1e1e1e" text-anchor="middle" style="white-space: pre;" direction="ltr" dominant-baseline="alphabetic">kmesh-deamon</text></g><g stroke-linecap="round" transform="translate(759.903182167358 190.63896802945305) rotate(0 84.76187569754467 53.33334786551336)"><path d="M26.67 0 C54.4 0, 82.13 0, 142.86 0 M26.67 0 C60.48 0, 94.3 0, 142.86 0 M142.86 0 C160.63 0, 169.52 8.89, 169.52 26.67 M142.86 0 C160.63 0, 169.52 8.89, 169.52 26.67 M169.52 26.67 C169.52 40.66, 169.52 54.66, 169.52 80 M169.52 26.67 C169.52 39.57, 169.52 52.47, 169.52 80 M169.52 80 C169.52 97.78, 160.63 106.67, 142.86 106.67 M169.52 80 C169.52 97.78, 160.63 106.67, 142.86 106.67 M142.86 106.67 C98.21 106.67, 53.57 106.67, 26.67 106.67 M142.86 106.67 C103.67 106.67, 64.49 106.67, 26.67 106.67 M26.67 106.67 C8.89 106.67, 0 97.78, 0 80 M26.67 106.67 C8.89 106.67, 0 97.78, 0 80 M0 80 C0 61, 0 42, 0 26.67 M0 80 C0 65.48, 0 50.96, 0 26.67 M0 26.67 C0 8.89, 8.89 0, 26.67 0 M0 26.67 C0 8.89, 8.89 0, 26.67 0" stroke="#ffffff" stroke-width="1" fill="none"></path></g><g mask="url(#mask-qDToIi6slOLBYoWQYszR7)" stroke-linecap="round"><g transform="translate(182.6494665469823 194.96143126691436) rotate(0 96.86740641880652 9.372084955730486)"><path d="M0 0 C32.29 3.12, 161.45 15.62, 193.73 18.74 M0 0 C32.29 3.12, 161.45 15.62, 193.73 18.74" stroke="#1e1e1e" stroke-width="1" fill="none"></path></g><g transform="translate(182.6494665469823 194.96143126691436) rotate(0 96.86740641880652 9.372084955730486)"><path d="M169.53 24.99 C176.36 23.23, 183.18 21.47, 193.73 18.74 M169.53 24.99 C175.26 23.51, 181 22.03, 193.73 18.74" stroke="#1e1e1e" stroke-width="1" fill="none"></path></g><g transform="translate(182.6494665469823 194.96143126691436) rotate(0 96.86740641880652 9.372084955730486)"><path d="M171.18 7.97 C177.54 11.01, 183.9 14.05, 193.73 18.74 M171.18 7.97 C176.52 10.52, 181.86 13.07, 193.73 18.74" stroke="#1e1e1e" stroke-width="1" fill="none"></path></g></g><mask id="mask-qDToIi6slOLBYoWQYszR7"><rect x="0" y="0" fill="#fff" width="476.38427938459535" height="313.70560117837533"></rect><rect x="263.0676542157887" y="195.13351622264474" fill="#000" width="32.8984375" height="18.4" opacity="1"></rect></mask><g transform="translate(263.0676542157888 195.13351622264474) rotate(0 16.449218750000057 9.200000000000102)"><text x="16.44921875" y="14.720312499999999" font-family="Helvetica, Segoe UI Emoji" font-size="16px" fill="#1e1e1e" text-anchor="middle" style="white-space: pre;" direction="ltr" dominant-baseline="alphabetic">SYN</text></g><g stroke-linecap="round"><g transform="translate(371.9555597277868 215.89500165484185) rotate(0 -94.19211135454628 15.994716815398192)"><path d="M0 0 C-31.4 5.33, -156.99 26.66, -188.38 31.99 M0 0 C-31.4 5.33, -156.99 26.66, -188.38 31.99" stroke="#1e1e1e" stroke-width="1" fill="none"></path></g><g transform="translate(371.9555597277868 215.89500165484185) rotate(0 -94.19211135454628 15.994716815398192)"><path d="M-166.65 19.63 C-171.63 22.46, -176.61 25.29, -188.38 31.99 M-166.65 19.63 C-174.37 24.01, -182.08 28.4, -188.38 31.99" stroke="#1e1e1e" stroke-width="1" fill="none"></path></g><g transform="translate(371.9555597277868 215.89500165484185) rotate(0 -94.19211135454628 15.994716815398192)"><path d="M-163.79 36.49 C-169.43 35.46, -175.06 34.43, -188.38 31.99 M-163.79 36.49 C-172.52 34.89, -181.24 33.29, -188.38 31.99" stroke="#1e1e1e" stroke-width="1" fill="none"></path></g></g><mask></mask><g stroke-linecap="round"><g transform="translate(183.57133701869424 248.9003813560313) rotate(0 73.61425827401837 19.674697086997526)"><path d="M0 0 C24.54 6.56, 122.69 32.79, 147.23 39.35 M0 0 C24.54 6.56, 122.69 32.79, 147.23 39.35" stroke="#1e1e1e" stroke-width="1" fill="none"></path></g><g transform="translate(183.57133701869424 248.9003813560313) rotate(0 73.61425827401837 19.674697086997526)"><path d="M122.33 41.54 C128 41.04, 133.67 40.54, 147.23 39.35 M122.33 41.54 C132.26 40.67, 142.2 39.79, 147.23 39.35" stroke="#1e1e1e" stroke-width="1" fill="none"></path></g><g transform="translate(183.57133701869424 248.9003813560313) rotate(0 73.61425827401837 19.674697086997526)"><path d="M126.74 25.02 C131.41 28.29, 136.07 31.55, 147.23 39.35 M126.74 25.02 C134.92 30.74, 143.09 36.46, 147.23 39.35" stroke="#1e1e1e" stroke-width="1" fill="none"></path></g></g><mask></mask><g stroke-linecap="round" transform="translate(331.799853566731 273.1889105401589) rotate(0 22.809613909040195 36.288731098337564)"><path d="M11.4 0 C20.05 0, 28.7 0, 34.21 0 C41.82 0, 45.62 3.8, 45.62 11.4 C45.62 24.39, 45.62 37.38, 45.62 61.17 C45.62 68.78, 41.82 72.58, 34.21 72.58 C28.49 72.58, 22.76 72.58, 11.4 72.58 C3.8 72.58, 0 68.78, 0 61.17 C0 44.63, 0 28.09, 0 11.4 C0 3.8, 3.8 0, 11.4 0" stroke="none" stroke-width="0" fill="#b2f2bb"></path><path d="M11.4 0 C19.3 0, 27.2 0, 34.21 0 M11.4 0 C16.39 0, 21.38 0, 34.21 0 M34.21 0 C41.82 0, 45.62 3.8, 45.62 11.4 M34.21 0 C41.82 0, 45.62 3.8, 45.62 11.4 M45.62 11.4 C45.62 26.68, 45.62 41.95, 45.62 61.17 M45.62 11.4 C45.62 29.64, 45.62 47.87, 45.62 61.17 M45.62 61.17 C45.62 68.78, 41.82 72.58, 34.21 72.58 M45.62 61.17 C45.62 68.78, 41.82 72.58, 34.21 72.58 M34.21 72.58 C25.78 72.58, 17.34 72.58, 11.4 72.58 M34.21 72.58 C26.65 72.58, 19.09 72.58, 11.4 72.58 M11.4 72.58 C3.8 72.58, 0 68.78, 0 61.17 M11.4 72.58 C3.8 72.58, 0 68.78, 0 61.17 M0 61.17 C0 48.93, 0 36.69, 0 11.4 M0 61.17 C0 42.62, 0 24.07, 0 11.4 M0 11.4 C0 3.8, 3.8 0, 11.4 0 M0 11.4 C0 3.8, 3.8 0, 11.4 0" stroke="#1e1e1e" stroke-width="1" fill="none"></path></g><g transform="translate(338.16024872577117 291.0776416384964) rotate(0 16.44921875 18.399999999999977)"><text x="16.44921875" y="14.720312499999999" font-family="Helvetica, Segoe UI Emoji" font-size="16px" fill="#1e1e1e" text-anchor="middle" style="white-space: pre;" direction="ltr" dominant-baseline="alphabetic">sock</text><text x="16.44921875" y="33.1203125" font-family="Helvetica, Segoe UI Emoji" font-size="16px" fill="#1e1e1e" text-anchor="middle" style="white-space: pre;" direction="ltr" dominant-baseline="alphabetic">bpf</text></g><g stroke-linecap="round" transform="translate(329.88123166896725 405.58785619786363) rotate(0 22.809613909040195 71.93260817047968)"><path d="M11.4 0 C17.31 0, 23.22 0, 34.21 0 C41.82 0, 45.62 3.8, 45.62 11.4 C45.62 59.49, 45.62 107.57, 45.62 132.46 C45.62 140.06, 41.82 143.87, 34.21 143.87 C26.1 143.87, 17.98 143.87, 11.4 143.87 C3.8 143.87, 0 140.06, 0 132.46 C0 92.3, 0 52.14, 0 11.4 C0 3.8, 3.8 0, 11.4 0" stroke="none" stroke-width="0" fill="#b2f2bb"></path><path d="M11.4 0 C19.03 0, 26.66 0, 34.21 0 M11.4 0 C20.41 0, 29.42 0, 34.21 0 M34.21 0 C41.82 0, 45.62 3.8, 45.62 11.4 M34.21 0 C41.82 0, 45.62 3.8, 45.62 11.4 M45.62 11.4 C45.62 46.85, 45.62 82.29, 45.62 132.46 M45.62 11.4 C45.62 47.74, 45.62 84.08, 45.62 132.46 M45.62 132.46 C45.62 140.06, 41.82 143.87, 34.21 143.87 M45.62 132.46 C45.62 140.06, 41.82 143.87, 34.21 143.87 M34.21 143.87 C25.34 143.87, 16.46 143.87, 11.4 143.87 M34.21 143.87 C25.78 143.87, 17.35 143.87, 11.4 143.87 M11.4 143.87 C3.8 143.87, 0 140.06, 0 132.46 M11.4 143.87 C3.8 143.87, 0 140.06, 0 132.46 M0 132.46 C0 88.83, 0 45.2, 0 11.4 M0 132.46 C0 89.17, 0 45.87, 0 11.4 M0 11.4 C0 3.8, 3.8 0, 11.4 0 M0 11.4 C0 3.8, 3.8 0, 11.4 0" stroke="#1e1e1e" stroke-width="1" fill="none"></path></g><g transform="translate(339.79240807800744 459.1204643683433) rotate(0 12.8984375 18.399999999999977)"><text x="12.8984375" y="14.720312499999999" font-family="Helvetica, Segoe UI Emoji" font-size="16px" fill="#1e1e1e" text-anchor="middle" style="white-space: pre;" direction="ltr" dominant-baseline="alphabetic">xdp</text><text x="12.8984375" y="33.1203125" font-family="Helvetica, Segoe UI Emoji" font-size="16px" fill="#1e1e1e" text-anchor="middle" style="white-space: pre;" direction="ltr" dominant-baseline="alphabetic">bpf</text></g><g transform="translate(318.2559048719641 248.83278745887446) rotate(0 60.484949469566345 5.866656494140614)"><text x="0" y="9.38684966564178" font-family="Helvetica, Segoe UI Emoji" font-size="10.202880859374996px" fill="#1e1e1e" text-anchor="start" style="white-space: pre;" direction="ltr" dominant-baseline="alphabetic">PASSIVE_ESTABILISHED</text></g><g stroke-linecap="round" transform="translate(600.4745933001705 264.16273686315833) rotate(0 36 35.33332824707031)"><path d="M72 35.33 C72 37.18, 71.85 39.04, 71.56 40.86 C71.26 42.68, 70.82 44.5, 70.24 46.25 C69.66 48, 68.93 49.73, 68.08 51.37 C67.22 53.02, 66.23 54.61, 65.12 56.1 C64.02 57.59, 62.78 59.01, 61.46 60.32 C60.13 61.62, 58.68 62.84, 57.16 63.92 C55.64 65, 54.02 65.98, 52.34 66.82 C50.67 67.65, 48.91 68.37, 47.12 68.94 C45.34 69.51, 43.49 69.94, 41.63 70.23 C39.78 70.52, 37.88 70.67, 36 70.67 C34.12 70.67, 32.22 70.52, 30.37 70.23 C28.51 69.94, 26.66 69.51, 24.88 68.94 C23.09 68.37, 21.33 67.65, 19.66 66.82 C17.98 65.98, 16.36 65, 14.84 63.92 C13.32 62.84, 11.87 61.62, 10.54 60.32 C9.22 59.01, 7.98 57.59, 6.88 56.1 C5.77 54.61, 4.78 53.02, 3.92 51.37 C3.07 49.73, 2.34 48, 1.76 46.25 C1.18 44.5, 0.74 42.68, 0.44 40.86 C0.15 39.04, 0 37.18, 0 35.33 C0 33.49, 0.15 31.63, 0.44 29.81 C0.74 27.99, 1.18 26.17, 1.76 24.41 C2.34 22.66, 3.07 20.93, 3.92 19.29 C4.78 17.65, 5.77 16.06, 6.88 14.56 C7.98 13.07, 9.22 11.65, 10.54 10.35 C11.87 9.05, 13.32 7.83, 14.84 6.75 C16.36 5.67, 17.98 4.69, 19.66 3.85 C21.33 3.01, 23.09 2.3, 24.88 1.73 C26.66 1.16, 28.51 0.72, 30.37 0.44 C32.22 0.15, 34.12 0, 36 0 C37.88 0, 39.78 0.15, 41.63 0.44 C43.49 0.72, 45.34 1.16, 47.12 1.73 C48.91 2.3, 50.67 3.01, 52.34 3.85 C54.02 4.69, 55.64 5.67, 57.16 6.75 C58.68 7.83, 60.13 9.05, 61.46 10.35 C62.78 11.65, 64.02 13.07, 65.12 14.56 C66.23 16.06, 67.22 17.65, 68.08 19.29 C68.93 20.93, 69.66 22.66, 70.24 24.41 C70.82 26.17, 71.26 27.99, 71.56 29.81 C71.85 31.63, 71.93 34.41, 72 35.33 C72.07 36.25, 72.07 34.41, 72 35.33" stroke="none" stroke-width="0" fill="#ffc9c9"></path><path d="M72 35.33 C72 37.18, 71.85 39.04, 71.56 40.86 C71.26 42.68, 70.82 44.5, 70.24 46.25 C69.66 48, 68.93 49.73, 68.08 51.37 C67.22 53.02, 66.23 54.61, 65.12 56.1 C64.02 57.59, 62.78 59.01, 61.46 60.32 C60.13 61.62, 58.68 62.84, 57.16 63.92 C55.64 65, 54.02 65.98, 52.34 66.82 C50.67 67.65, 48.91 68.37, 47.12 68.94 C45.34 69.51, 43.49 69.94, 41.63 70.23 C39.78 70.52, 37.88 70.67, 36 70.67 C34.12 70.67, 32.22 70.52, 30.37 70.23 C28.51 69.94, 26.66 69.51, 24.88 68.94 C23.09 68.37, 21.33 67.65, 19.66 66.82 C17.98 65.98, 16.36 65, 14.84 63.92 C13.32 62.84, 11.87 61.62, 10.54 60.32 C9.22 59.01, 7.98 57.59, 6.88 56.1 C5.77 54.61, 4.78 53.02, 3.92 51.37 C3.07 49.73, 2.34 48, 1.76 46.25 C1.18 44.5, 0.74 42.68, 0.44 40.86 C0.15 39.04, 0 37.18, 0 35.33 C0 33.49, 0.15 31.63, 0.44 29.81 C0.74 27.99, 1.18 26.17, 1.76 24.41 C2.34 22.66, 3.07 20.93, 3.92 19.29 C4.78 17.65, 5.77 16.06, 6.88 14.56 C7.98 13.07, 9.22 11.65, 10.54 10.35 C11.87 9.05, 13.32 7.83, 14.84 6.75 C16.36 5.67, 17.98 4.69, 19.66 3.85 C21.33 3.01, 23.09 2.3, 24.88 1.73 C26.66 1.16, 28.51 0.72, 30.37 0.44 C32.22 0.15, 34.12 0, 36 0 C37.88 0, 39.78 0.15, 41.63 0.44 C43.49 0.72, 45.34 1.16, 47.12 1.73 C48.91 2.3, 50.67 3.01, 52.34 3.85 C54.02 4.69, 55.64 5.67, 57.16 6.75 C58.68 7.83, 60.13 9.05, 61.46 10.35 C62.78 11.65, 64.02 13.07, 65.12 14.56 C66.23 16.06, 67.22 17.65, 68.08 19.29 C68.93 20.93, 69.66 22.66, 70.24 24.41 C70.82 26.17, 71.26 27.99, 71.56 29.81 C71.85 31.63, 71.93 34.41, 72 35.33 C72.07 36.25, 72.07 34.41, 72 35.33" stroke="#1e1e1e" stroke-width="1" fill="none"></path></g><g transform="translate(616.5070304274548 281.11162910483506) rotate(0 20.01171875 18.399999999999977)"><text x="20.01171875" y="14.720312499999999" font-family="Helvetica, Segoe UI Emoji" font-size="16px" fill="#1e1e1e" text-anchor="middle" style="white-space: pre;" direction="ltr" dominant-baseline="alphabetic">tuple</text><text x="20.01171875" y="33.1203125" font-family="Helvetica, Segoe UI Emoji" font-size="16px" fill="#1e1e1e" text-anchor="middle" style="white-space: pre;" direction="ltr" dominant-baseline="alphabetic">_map</text></g><g stroke-linecap="round" transform="translate(598.4745322650142 353.37671684529425) rotate(0 36 35.33332824707031)"><path d="M72 35.33 C72 37.18, 71.85 39.04, 71.56 40.86 C71.26 42.68, 70.82 44.5, 70.24 46.25 C69.66 48, 68.93 49.73, 68.08 51.37 C67.22 53.02, 66.23 54.61, 65.12 56.1 C64.02 57.59, 62.78 59.01, 61.46 60.32 C60.13 61.62, 58.68 62.84, 57.16 63.92 C55.64 65, 54.02 65.98, 52.34 66.82 C50.67 67.65, 48.91 68.37, 47.12 68.94 C45.34 69.51, 43.49 69.94, 41.63 70.23 C39.78 70.52, 37.88 70.67, 36 70.67 C34.12 70.67, 32.22 70.52, 30.37 70.23 C28.51 69.94, 26.66 69.51, 24.88 68.94 C23.09 68.37, 21.33 67.65, 19.66 66.82 C17.98 65.98, 16.36 65, 14.84 63.92 C13.32 62.84, 11.87 61.62, 10.54 60.32 C9.22 59.01, 7.98 57.59, 6.88 56.1 C5.77 54.61, 4.78 53.02, 3.92 51.37 C3.07 49.73, 2.34 48, 1.76 46.25 C1.18 44.5, 0.74 42.68, 0.44 40.86 C0.15 39.04, 0 37.18, 0 35.33 C0 33.49, 0.15 31.63, 0.44 29.81 C0.74 27.99, 1.18 26.17, 1.76 24.41 C2.34 22.66, 3.07 20.93, 3.92 19.29 C4.78 17.65, 5.77 16.06, 6.88 14.56 C7.98 13.07, 9.22 11.65, 10.54 10.35 C11.87 9.05, 13.32 7.83, 14.84 6.75 C16.36 5.67, 17.98 4.69, 19.66 3.85 C21.33 3.01, 23.09 2.3, 24.88 1.73 C26.66 1.16, 28.51 0.72, 30.37 0.44 C32.22 0.15, 34.12 0, 36 0 C37.88 0, 39.78 0.15, 41.63 0.44 C43.49 0.72, 45.34 1.16, 47.12 1.73 C48.91 2.3, 50.67 3.01, 52.34 3.85 C54.02 4.69, 55.64 5.67, 57.16 6.75 C58.68 7.83, 60.13 9.05, 61.46 10.35 C62.78 11.65, 64.02 13.07, 65.12 14.56 C66.23 16.06, 67.22 17.65, 68.08 19.29 C68.93 20.93, 69.66 22.66, 70.24 24.41 C70.82 26.17, 71.26 27.99, 71.56 29.81 C71.85 31.63, 71.93 34.41, 72 35.33 C72.07 36.25, 72.07 34.41, 72 35.33" stroke="none" stroke-width="0" fill="#ffc9c9"></path><path d="M72 35.33 C72 37.18, 71.85 39.04, 71.56 40.86 C71.26 42.68, 70.82 44.5, 70.24 46.25 C69.66 48, 68.93 49.73, 68.08 51.37 C67.22 53.02, 66.23 54.61, 65.12 56.1 C64.02 57.59, 62.78 59.01, 61.46 60.32 C60.13 61.62, 58.68 62.84, 57.16 63.92 C55.64 65, 54.02 65.98, 52.34 66.82 C50.67 67.65, 48.91 68.37, 47.12 68.94 C45.34 69.51, 43.49 69.94, 41.63 70.23 C39.78 70.52, 37.88 70.67, 36 70.67 C34.12 70.67, 32.22 70.52, 30.37 70.23 C28.51 69.94, 26.66 69.51, 24.88 68.94 C23.09 68.37, 21.33 67.65, 19.66 66.82 C17.98 65.98, 16.36 65, 14.84 63.92 C13.32 62.84, 11.87 61.62, 10.54 60.32 C9.22 59.01, 7.98 57.59, 6.88 56.1 C5.77 54.61, 4.78 53.02, 3.92 51.37 C3.07 49.73, 2.34 48, 1.76 46.25 C1.18 44.5, 0.74 42.68, 0.44 40.86 C0.15 39.04, 0 37.18, 0 35.33 C0 33.49, 0.15 31.63, 0.44 29.81 C0.74 27.99, 1.18 26.17, 1.76 24.41 C2.34 22.66, 3.07 20.93, 3.92 19.29 C4.78 17.65, 5.77 16.06, 6.88 14.56 C7.98 13.07, 9.22 11.65, 10.54 10.35 C11.87 9.05, 13.32 7.83, 14.84 6.75 C16.36 5.67, 17.98 4.69, 19.66 3.85 C21.33 3.01, 23.09 2.3, 24.88 1.73 C26.66 1.16, 28.51 0.72, 30.37 0.44 C32.22 0.15, 34.12 0, 36 0 C37.88 0, 39.78 0.15, 41.63 0.44 C43.49 0.72, 45.34 1.16, 47.12 1.73 C48.91 2.3, 50.67 3.01, 52.34 3.85 C54.02 4.69, 55.64 5.67, 57.16 6.75 C58.68 7.83, 60.13 9.05, 61.46 10.35 C62.78 11.65, 64.02 13.07, 65.12 14.56 C66.23 16.06, 67.22 17.65, 68.08 19.29 C68.93 20.93, 69.66 22.66, 70.24 24.41 C70.82 26.17, 71.26 27.99, 71.56 29.81 C71.85 31.63, 71.93 34.41, 72 35.33 C72.07 36.25, 72.07 34.41, 72 35.33" stroke="#1e1e1e" stroke-width="1" fill="none"></path></g><g transform="translate(614.4991568922985 370.325609086971) rotate(0 20.01953125 18.399999999999977)"><text x="20.01953125" y="14.720312499999999" font-family="Helvetica, Segoe UI Emoji" font-size="16px" fill="#1e1e1e" text-anchor="middle" style="white-space: pre;" direction="ltr" dominant-baseline="alphabetic">auth_</text><text x="20.01953125" y="33.1203125" font-family="Helvetica, Segoe UI Emoji" font-size="16px" fill="#1e1e1e" text-anchor="middle" style="white-space: pre;" direction="ltr" dominant-baseline="alphabetic">map</text></g><g mask="url(#mask-oYdpZpnoNJ39BCySo0z7f)" stroke-linecap="round"><g transform="translate(380.1810965912844 292.17842461006785) rotate(0 111.63903519448917 -7.413615958408627)"><path d="M0 0 C37.21 -2.47, 186.07 -12.36, 223.28 -14.83 M0 0 C37.21 -2.47, 186.07 -12.36, 223.28 -14.83" stroke="#1e1e1e" stroke-width="1" fill="none"></path></g><g transform="translate(380.1810965912844 292.17842461006785) rotate(0 111.63903519448917 -7.413615958408627)"><path d="M200.4 -4.74 C208.75 -8.42, 217.1 -12.1, 223.28 -14.83 M200.4 -4.74 C206.01 -7.21, 211.62 -9.69, 223.28 -14.83" stroke="#1e1e1e" stroke-width="1" fill="none"></path></g><g transform="translate(380.1810965912844 292.17842461006785) rotate(0 111.63903519448917 -7.413615958408627)"><path d="M199.27 -21.8 C208.03 -19.26, 216.8 -16.71, 223.28 -14.83 M199.27 -21.8 C205.16 -20.09, 211.05 -18.38, 223.28 -14.83" stroke="#1e1e1e" stroke-width="1" fill="none"></path></g></g><mask id="mask-oYdpZpnoNJ39BCySo0z7f"><rect x="0" y="0" fill="#fff" width="703.4591669802628" height="407.0056565268851"></rect><rect x="480.6990380357736" y="275.5648086516592" fill="#000" width="22.2421875" height="18.4" opacity="1"></rect></mask><g transform="translate(480.6990380357737 275.5648086516592) rotate(0 11.121093749999943 9.200000000000045)"><text x="11.12109375" y="14.720312499999999" font-family="Helvetica, Segoe UI Emoji" font-size="16px" fill="#1e1e1e" text-anchor="middle" style="white-space: pre;" direction="ltr" dominant-baseline="alphabetic">1.1</text></g><g mask="url(#mask-VSjinhh9xlSB4F50xq06l)" stroke-linecap="round"><g transform="translate(379.7523943730926 323.5089593300057) rotate(0 113.93771453691971 18.173434127159908)"><path d="M0 0 C16.11 2.08, 58.7 6.43, 96.68 12.49 C134.66 18.55, 206.01 32.37, 227.88 36.35 M0 0 C16.11 2.08, 58.7 6.43, 96.68 12.49 C134.66 18.55, 206.01 32.37, 227.88 36.35" stroke="#1e1e1e" stroke-width="1" fill="none"></path></g><g transform="translate(379.7523943730926 323.5089593300057) rotate(0 113.93771453691971 18.173434127159908)"><path d="M203.21 40.43 C210.3 39.26, 217.39 38.08, 227.88 36.35 M203.21 40.43 C208.88 39.49, 214.55 38.55, 227.88 36.35" stroke="#1e1e1e" stroke-width="1" fill="none"></path></g><g transform="translate(379.7523943730926 323.5089593300057) rotate(0 113.93771453691971 18.173434127159908)"><path d="M206.36 23.62 C212.54 27.28, 218.73 30.94, 227.88 36.35 M206.36 23.62 C211.3 26.55, 216.25 29.47, 227.88 36.35" stroke="#1e1e1e" stroke-width="1" fill="none"></path></g></g><mask id="mask-VSjinhh9xlSB4F50xq06l"><rect x="0" y="0" fill="#fff" width="707.6278234469321" height="459.85582758432554"></rect><rect x="443.08615529194344" y="317.59979356141184" fill="#000" width="66.6875" height="36.8" opacity="1"></rect></mask><g transform="translate(443.08615529194356 317.59979356141173) rotate(0 50.60395361806894 24.082599895753788)"><text x="33.34375" y="14.720312499999999" font-family="Helvetica, Segoe UI Emoji" font-size="16px" fill="#1e1e1e" text-anchor="middle" style="white-space: pre;" direction="ltr" dominant-baseline="alphabetic">1.2 mark </text><text x="33.34375" y="33.1203125" font-family="Helvetica, Segoe UI Emoji" font-size="16px" fill="#1e1e1e" text-anchor="middle" style="white-space: pre;" direction="ltr" dominant-baseline="alphabetic">init state</text></g><g stroke-linecap="round" transform="translate(826.474959511108 210.16267582800197) rotate(0 47.99993896484375 53.33337402343756)"><path d="M24 0 C39.41 0, 54.82 0, 72 0 C88 0, 96 8, 96 24 C96 37.32, 96 50.65, 96 82.67 C96 98.67, 88 106.67, 72 106.67 C61.75 106.67, 51.5 106.67, 24 106.67 C8 106.67, 0 98.67, 0 82.67 C0 65.87, 0 49.07, 0 24 C0 8, 8 0, 24 0" stroke="none" stroke-width="0" fill="#b2f2bb"></path><path d="M24 0 C42.56 0, 61.12 0, 72 0 M24 0 C34.32 0, 44.63 0, 72 0 M72 0 C88 0, 96 8, 96 24 M72 0 C88 0, 96 8, 96 24 M96 24 C96 45.46, 96 66.92, 96 82.67 M96 24 C96 44.45, 96 64.89, 96 82.67 M96 82.67 C96 98.67, 88 106.67, 72 106.67 M96 82.67 C96 98.67, 88 106.67, 72 106.67 M72 106.67 C61.86 106.67, 51.72 106.67, 24 106.67 M72 106.67 C56.93 106.67, 41.86 106.67, 24 106.67 M24 106.67 C8 106.67, 0 98.67, 0 82.67 M24 106.67 C8 106.67, 0 98.67, 0 82.67 M0 82.67 C0 69.38, 0 56.09, 0 24 M0 82.67 C0 64.5, 0 46.33, 0 24 M0 24 C0 8, 8 0, 24 0 M0 24 C0 8, 8 0, 24 0" stroke="#1e1e1e" stroke-width="1" fill="none"></path></g><g transform="translate(842.9006797259517 245.0960498514395) rotate(0 31.57421875 18.399999999999977)"><text x="31.57421875" y="14.720312499999999" font-family="Helvetica, Segoe UI Emoji" font-size="16px" fill="#1e1e1e" text-anchor="middle" style="white-space: pre;" direction="ltr" dominant-baseline="alphabetic">rbac </text><text x="31.57421875" y="33.1203125" font-family="Helvetica, Segoe UI Emoji" font-size="16px" fill="#1e1e1e" text-anchor="middle" style="white-space: pre;" direction="ltr" dominant-baseline="alphabetic">manager</text></g><g stroke-linecap="round" transform="translate(604.6530429302577 10) rotate(0 186.99999999999994 39.33332824707031)"><path d="M19.67 0 C97.83 0, 176 0, 354.33 0 M19.67 0 C122.88 0, 226.1 0, 354.33 0 M354.33 0 C367.44 0, 374 6.56, 374 19.67 M354.33 0 C367.44 0, 374 6.56, 374 19.67 M374 19.67 C374 29.15, 374 38.64, 374 59 M374 19.67 C374 35.35, 374 51.04, 374 59 M374 59 C374 72.11, 367.44 78.67, 354.33 78.67 M374 59 C374 72.11, 367.44 78.67, 354.33 78.67 M354.33 78.67 C284.69 78.67, 215.05 78.67, 19.67 78.67 M354.33 78.67 C224.73 78.67, 95.13 78.67, 19.67 78.67 M19.67 78.67 C6.56 78.67, 0 72.11, 0 59 M19.67 78.67 C6.56 78.67, 0 72.11, 0 59 M0 59 C0 43.71, 0 28.42, 0 19.67 M0 59 C0 44.21, 0 29.43, 0 19.67 M0 19.67 C0 6.56, 6.56 0, 19.67 0 M0 19.67 C0 6.56, 6.56 0, 19.67 0" stroke="#1e1e1e" stroke-width="1" fill="none"></path></g><g transform="translate(772.9772616802575 40.133328247070324) rotate(0 18.67578125 9.200000000000017)"><text x="18.67578125" y="14.720312499999999" font-family="Helvetica, Segoe UI Emoji" font-size="16px" fill="#1e1e1e" text-anchor="middle" style="white-space: pre;" direction="ltr" dominant-baseline="alphabetic">istiod</text></g><g stroke-linecap="round" transform="translate(848.474715370483 46.8294086160879) rotate(0 57 17.333328247070312)"><path d="M8.67 0 C39.31 0, 69.95 0, 105.33 0 M8.67 0 C35.06 0, 61.46 0, 105.33 0 M105.33 0 C111.11 0, 114 2.89, 114 8.67 M105.33 0 C111.11 0, 114 2.89, 114 8.67 M114 8.67 C114 13.5, 114 18.34, 114 26 M114 8.67 C114 15.21, 114 21.75, 114 26 M114 26 C114 31.78, 111.11 34.67, 105.33 34.67 M114 26 C114 31.78, 111.11 34.67, 105.33 34.67 M105.33 34.67 C68.81 34.67, 32.29 34.67, 8.67 34.67 M105.33 34.67 C69.87 34.67, 34.41 34.67, 8.67 34.67 M8.67 34.67 C2.89 34.67, 0 31.78, 0 26 M8.67 34.67 C2.89 34.67, 0 31.78, 0 26 M0 26 C0 19.55, 0 13.1, 0 8.67 M0 26 C0 22.23, 0 18.46, 0 8.67 M0 8.67 C0 2.89, 2.89 0, 8.67 0 M0 8.67 C0 2.89, 2.89 0, 8.67 0" stroke="#1e1e1e" stroke-width="1" fill="none"></path></g><g transform="translate(869.451277870483 54.96273686315823) rotate(0 36.0234375 9.200000000000017)"><text x="36.0234375" y="14.720312499999999" font-family="Helvetica, Segoe UI Emoji" font-size="16px" fill="#1e1e1e" text-anchor="middle" style="white-space: pre;" direction="ltr" dominant-baseline="alphabetic">authpolicy</text></g><g stroke-linecap="round"><g transform="translate(922.7937016833248 82.49606511022853) rotate(0 42.84050684357908 104.74595677871685)"><path d="M0 0 C14.28 21.39, 85.51 93.42, 85.68 128.33 C85.85 163.25, 15.13 195.97, 1.01 209.49" stroke="#1e1e1e" stroke-width="1.5" fill="none" stroke-dasharray="8 9"></path></g><g transform="translate(922.7937016833248 82.49606511022853) rotate(0 42.84050684357908 104.74595677871685)"><path d="M15.52 189.13 C12.24 193.73, 8.97 198.32, 1.01 209.49" stroke="#1e1e1e" stroke-width="1.5" fill="none"></path></g><g transform="translate(922.7937016833248 82.49606511022853) rotate(0 42.84050684357908 104.74595677871685)"><path d="M25.21 203.21 C19.75 204.63, 14.29 206.05, 1.01 209.49" stroke="#1e1e1e" stroke-width="1.5" fill="none"></path></g></g><mask></mask><g mask="url(#mask-7KZRaNVQ1oMhz09tbg6bS)" stroke-linecap="round"><g transform="translate(670.8920254786678 283.54914254193443) rotate(0 76.83197296186944 -2.488203332187595)"><path d="M0 0 C10.51 -0.43, 37.45 -1.74, 63.06 -2.57 C88.67 -3.4, 138.56 -4.57, 153.66 -4.98 M0 0 C10.51 -0.43, 37.45 -1.74, 63.06 -2.57 C88.67 -3.4, 138.56 -4.57, 153.66 -4.98" stroke="#1e1e1e" stroke-width="1" fill="none"></path></g><g transform="translate(670.8920254786678 283.54914254193443) rotate(0 76.83197296186944 -2.488203332187595)"><path d="M130.4 4.17 C136.17 1.9, 141.94 -0.37, 153.66 -4.98 M130.4 4.17 C138.3 1.06, 146.2 -2.05, 153.66 -4.98" stroke="#1e1e1e" stroke-width="1" fill="none"></path></g><g transform="translate(670.8920254786678 283.54914254193443) rotate(0 76.83197296186944 -2.488203332187595)"><path d="M129.96 -12.93 C135.84 -10.96, 141.72 -8.98, 153.66 -4.98 M129.96 -12.93 C138.01 -10.23, 146.06 -7.53, 153.66 -4.98" stroke="#1e1e1e" stroke-width="1" fill="none"></path></g></g><mask id="mask-7KZRaNVQ1oMhz09tbg6bS"><rect x="0" y="0" fill="#fff" width="924.5559714024068" height="388.5255492063096"></rect><rect x="703.2633175337174" y="271.7831443551389" fill="#000" width="61.3828125" height="18.4" opacity="1"></rect></mask><g transform="translate(703.2633175337173 271.7831443551389) rotate(0 44.460680906819846 9.277794854607919)"><text x="30.69140625" y="14.720312499999999" font-family="Helvetica, Segoe UI Emoji" font-size="16px" fill="#1e1e1e" text-anchor="middle" style="white-space: pre;" direction="ltr" dominant-baseline="alphabetic">2.1 tuple</text></g><g mask="url(#mask-FbOSt_oB0zG8mis3VbGDK)" stroke-linecap="round"><g transform="translate(825.474959511108 307.6854016190091) rotate(0 -77.05248618357177 42.43258011189744)"><path d="M0 0 C-25.68 14.14, -128.42 70.72, -154.1 84.87 M0 0 C-25.68 14.14, -128.42 70.72, -154.1 84.87" stroke="#1e1e1e" stroke-width="1" fill="none"></path></g><g transform="translate(825.474959511108 307.6854016190091) rotate(0 -77.05248618357177 42.43258011189744)"><path d="M-137.65 66.04 C-143.5 72.73, -149.35 79.42, -154.1 84.87 M-137.65 66.04 C-143.61 72.86, -149.57 79.68, -154.1 84.87" stroke="#1e1e1e" stroke-width="1" fill="none"></path></g><g transform="translate(825.474959511108 307.6854016190091) rotate(0 -77.05248618357177 42.43258011189744)"><path d="M-129.4 81.02 C-138.18 82.39, -146.96 83.75, -154.1 84.87 M-129.4 81.02 C-138.35 82.41, -147.3 83.81, -154.1 84.87" stroke="#1e1e1e" stroke-width="1" fill="none"></path></g></g><mask id="mask-FbOSt_oB0zG8mis3VbGDK"><rect x="0" y="0" fill="#fff" width="1079.5799318782515" height="492.550561842804"></rect><rect x="679.4810670775362" y="331.71798173090644" fill="#000" width="137.8828125" height="36.8" opacity="1"></rect></mask><g transform="translate(679.4810670775363 331.71798173090644) rotate(0 68.94140625 18.399999999999977)"><text x="68.94140625" y="14.720312499999999" font-family="Helvetica, Segoe UI Emoji" font-size="16px" fill="#1e1e1e" text-anchor="middle" style="white-space: pre;" direction="ltr" dominant-baseline="alphabetic">2.2 update deny or </text><text x="68.94140625" y="33.1203125" font-family="Helvetica, Segoe UI Emoji" font-size="16px" fill="#1e1e1e" text-anchor="middle" style="white-space: pre;" direction="ltr" dominant-baseline="alphabetic">clean init state</text></g><g mask="url(#mask-32Qcr-rrRmnGzP6DBScnV)" stroke-linecap="round"><g transform="translate(183.6051587464379 413.5426730702925) rotate(0 72.3453857319447 8.38807658206207)"><path d="M0 0 C24.12 2.8, 120.58 13.98, 144.69 16.78 M0 0 C24.12 2.8, 120.58 13.98, 144.69 16.78" stroke="#1e1e1e" stroke-width="1" fill="none"></path></g><g transform="translate(183.6051587464379 413.5426730702925) rotate(0 72.3453857319447 8.38807658206207)"><path d="M120.37 22.56 C128.79 20.56, 137.2 18.56, 144.69 16.78 M120.37 22.56 C127.65 20.83, 134.93 19.1, 144.69 16.78" stroke="#1e1e1e" stroke-width="1" fill="none"></path></g><g transform="translate(183.6051587464379 413.5426730702925) rotate(0 72.3453857319447 8.38807658206207)"><path d="M122.34 5.58 C130.07 9.45, 137.81 13.33, 144.69 16.78 M122.34 5.58 C129.03 8.93, 135.72 12.28, 144.69 16.78" stroke="#1e1e1e" stroke-width="1" fill="none"></path></g></g><mask id="mask-32Qcr-rrRmnGzP6DBScnV"><rect x="0" y="0" fill="#fff" width="428.2959302103273" height="530.3188262344166"></rect><rect x="238.60288822838265" y="412.7307496523546" fill="#000" width="34.6953125" height="18.4" opacity="1"></rect></mask><g transform="translate(238.60288822838254 412.7307496523546) rotate(0 17.34765625 9.199999999999989)"><text x="17.34765625" y="14.720312499999999" font-family="Helvetica, Segoe UI Emoji" font-size="16px" fill="#1e1e1e" text-anchor="middle" style="white-space: pre;" direction="ltr" dominant-baseline="alphabetic">send</text></g><g mask="url(#mask-Td-FPCfcld6nST-Jc5_rP)" stroke-linecap="round"><g transform="translate(601.0444699472916 373.1391774810644) rotate(0 -112.27200523012198 25.445382970582898)"><path d="M0 0 C-37.42 8.48, -187.12 42.41, -224.54 50.89" stroke="#1e1e1e" stroke-width="1.5" fill="none" stroke-dasharray="8 9"></path></g><g transform="translate(601.0444699472916 373.1391774810644) rotate(0 -112.27200523012198 25.445382970582898)"><path d="M-203.52 37.36 C-209.06 40.93, -214.6 44.49, -224.54 50.89" stroke="#1e1e1e" stroke-width="1.5" fill="none"></path></g><g transform="translate(601.0444699472916 373.1391774810644) rotate(0 -112.27200523012198 25.445382970582898)"><path d="M-199.74 54.04 C-206.28 53.21, -212.82 52.38, -224.54 50.89" stroke="#1e1e1e" stroke-width="1.5" fill="none"></path></g></g><mask id="mask-Td-FPCfcld6nST-Jc5_rP"><rect x="0" y="0" fill="#fff" width="925.5884804075356" height="524.0299434222302"></rect><rect x="441.1943397171698" y="389.3845604516473" fill="#000" width="95.15625" height="18.4" opacity="1"></rect></mask><g transform="translate(441.19433971716956 389.3845604516473) rotate(0 47.578125 9.200000000000102)"><text x="47.578125" y="14.720312499999999" font-family="Helvetica, Segoe UI Emoji" font-size="16px" fill="#1e1e1e" text-anchor="middle" style="white-space: pre;" direction="ltr" dominant-baseline="alphabetic">3.1 match init</text></g><g mask="url(#mask-K-qNXnI2_fwG9QpEuksPo)" stroke-linecap="round"><g transform="translate(328.88123166896725 441.1998833856179) rotate(0 -68.54354521787036 18.721291499460335)"><path d="M0 0 C-22.85 6.24, -114.24 31.2, -137.09 37.44 M0 0 C-22.85 6.24, -114.24 31.2, -137.09 37.44" stroke="#1e1e1e" stroke-width="1" fill="none"></path></g><g transform="translate(328.88123166896725 441.1998833856179) rotate(0 -68.54354521787036 18.721291499460335)"><path d="M-116.68 23 C-121.08 26.12, -125.49 29.24, -137.09 37.44 M-116.68 23 C-120.95 26.03, -125.23 29.05, -137.09 37.44" stroke="#1e1e1e" stroke-width="1" fill="none"></path></g><g transform="translate(328.88123166896725 441.1998833856179) rotate(0 -68.54354521787036 18.721291499460335)"><path d="M-112.17 39.5 C-117.55 39.06, -122.92 38.61, -137.09 37.44 M-112.17 39.5 C-117.39 39.07, -122.61 38.64, -137.09 37.44" stroke="#1e1e1e" stroke-width="1" fill="none"></path></g></g><mask id="mask-K-qNXnI2_fwG9QpEuksPo"><rect x="0" y="0" fill="#fff" width="565.968322104708" height="578.6424663845386"></rect><rect x="244.32596770109683" y="450.7211748850782" fill="#000" width="32.0234375" height="18.4" opacity="1"></rect></mask><g transform="translate(244.32596770109683 450.7211748850781) rotate(0 16.01171875 9.200000000000045)"><text x="16.01171875" y="14.720312499999999" font-family="Helvetica, Segoe UI Emoji" font-size="16px" fill="#1e1e1e" text-anchor="middle" style="white-space: pre;" direction="ltr" dominant-baseline="alphabetic">drop</text></g><g mask="url(#mask-Rw15C0rkGeN3_iK9ccLnu)" stroke-linecap="round"><g transform="translate(185.426579980025 501.53082510845286) rotate(0 72.01994978163418 -3.0482582206720394)"><path d="M0 0 C24.01 -1.02, 120.03 -5.08, 144.04 -6.1 M0 0 C24.01 -1.02, 120.03 -5.08, 144.04 -6.1" stroke="#1e1e1e" stroke-width="1" fill="none"></path></g><g transform="translate(185.426579980025 501.53082510845286) rotate(0 72.01994978163418 -3.0482582206720394)"><path d="M120.93 3.44 C128.62 0.27, 136.31 -2.91, 144.04 -6.1 M120.93 3.44 C127.34 0.79, 133.75 -1.85, 144.04 -6.1" stroke="#1e1e1e" stroke-width="1" fill="none"></path></g><g transform="translate(185.426579980025 501.53082510845286) rotate(0 72.01994978163418 -3.0482582206720394)"><path d="M120.21 -13.65 C128.14 -11.13, 136.07 -8.62, 144.04 -6.1 M120.21 -13.65 C126.82 -11.55, 133.43 -9.46, 144.04 -6.1" stroke="#1e1e1e" stroke-width="1" fill="none"></path></g></g><mask id="mask-Rw15C0rkGeN3_iK9ccLnu"><rect x="0" y="0" fill="#fff" width="429.46647954329336" height="607.6273415497969"></rect><rect x="240.09887351165924" y="489.28256688778083" fill="#000" width="34.6953125" height="18.4" opacity="1"></rect></mask><g transform="translate(240.09887351165912 489.2825668877806) rotate(0 17.34765625 9.200000000000102)"><text x="17.34765625" y="14.720312499999999" font-family="Helvetica, Segoe UI Emoji" font-size="16px" fill="#1e1e1e" text-anchor="middle" style="white-space: pre;" direction="ltr" dominant-baseline="alphabetic">send</text></g><g mask="url(#mask-06QV-xFSeVotCArjpCzXy)" stroke-linecap="round"><g transform="translate(594.9165062445466 397.0801516455658) rotate(0 -108.33007119078957 47.69426020879155)"><path d="M0 0 C-18.91 8.43, -77.35 34.7, -113.46 50.59 C-149.57 66.49, -199.46 87.92, -216.66 95.39" stroke="#1e1e1e" stroke-width="1.5" fill="none" stroke-dasharray="8 9"></path></g><g transform="translate(594.9165062445466 397.0801516455658) rotate(0 -108.33007119078957 47.69426020879155)"><path d="M-198.49 78.22 C-202.31 81.83, -206.14 85.45, -216.66 95.39" stroke="#1e1e1e" stroke-width="1.5" fill="none"></path></g><g transform="translate(594.9165062445466 397.0801516455658) rotate(0 -108.33007119078957 47.69426020879155)"><path d="M-191.7 93.92 C-196.96 94.23, -202.21 94.54, -216.66 95.39" stroke="#1e1e1e" stroke-width="1.5" fill="none"></path></g></g><mask id="mask-06QV-xFSeVotCArjpCzXy"><rect x="0" y="0" fill="#fff" width="911.5766486261257" height="592.4686720631489"></rect><rect x="426.7548496827559" y="438.4738186061153" fill="#000" width="109.3984375" height="18.4" opacity="1"></rect></mask><g transform="translate(426.7548496827558 438.47381860611506) rotate(0 59.8315853710011 6.300593248242194)"><text x="54.69921875" y="14.720312499999999" font-family="Helvetica, Segoe UI Emoji" font-size="16px" fill="#1e1e1e" text-anchor="middle" style="white-space: pre;" direction="ltr" dominant-baseline="alphabetic">3.2 match deny</text></g><g mask="url(#mask-_J2xfNxgQiVFTGEDAYciX)" stroke-linecap="round"><g transform="translate(373.36280291776046 500.21323566770707) rotate(0 -52.18777043920767 51.10975509569738)"><path d="M0 0 C-17.4 8.29, -103.48 32.68, -104.38 49.71 C-105.27 66.75, -21.89 93.47, -5.39 102.22 M0 0 C-17.4 8.29, -103.48 32.68, -104.38 49.71 C-105.27 66.75, -21.89 93.47, -5.39 102.22" stroke="#1e1e1e" stroke-width="1" fill="none"></path></g><g transform="translate(373.36280291776046 500.21323566770707) rotate(0 -52.18777043920767 51.10975509569738)"><path d="M-30.37 101.1 C-22.2 101.47, -14.03 101.83, -5.39 102.22 M-30.37 101.1 C-21.19 101.51, -12.01 101.92, -5.39 102.22" stroke="#1e1e1e" stroke-width="1" fill="none"></path></g><g transform="translate(373.36280291776046 500.21323566770707) rotate(0 -52.18777043920767 51.10975509569738)"><path d="M-23.8 85.31 C-17.78 90.84, -11.76 96.37, -5.39 102.22 M-23.8 85.31 C-17.04 91.52, -10.27 97.74, -5.39 102.22" stroke="#1e1e1e" stroke-width="1" fill="none"></path></g></g><mask id="mask-_J2xfNxgQiVFTGEDAYciX"><rect x="0" y="0" fill="#fff" width="577.7383437961757" height="702.4327458591018"></rect><rect x="235.65132453934518" y="540.7270061312155" fill="#000" width="66.671875" height="18.4" opacity="1"></rect></mask><g transform="translate(235.65132453934518 540.7270061312155) rotate(0 85.5201025254292 10.595984632188959)"><text x="33.3359375" y="14.720312499999999" font-family="Helvetica, Segoe UI Emoji" font-size="16px" fill="#1e1e1e" text-anchor="middle" style="white-space: pre;" direction="ltr" dominant-baseline="alphabetic">rst server</text></g><g mask="url(#mask-SNqx-Uu7_HxXb89fa_sTk)" stroke-linecap="round"><g transform="translate(188.36872672969633 619.9128439628938) rotate(0 94.00777632744945 18.440098182069733)"><path d="M0 0 C31.34 6.15, 156.68 30.73, 188.02 36.88 M0 0 C31.34 6.15, 156.68 30.73, 188.02 36.88" stroke="#1e1e1e" stroke-width="1" fill="none"></path></g><g transform="translate(188.36872672969633 619.9128439628938) rotate(0 94.00777632744945 18.440098182069733)"><path d="M163.32 40.75 C171.75 39.43, 180.19 38.11, 188.02 36.88 M163.32 40.75 C169.82 39.73, 176.33 38.71, 188.02 36.88" stroke="#1e1e1e" stroke-width="1" fill="none"></path></g><g transform="translate(188.36872672969633 619.9128439628938) rotate(0 94.00777632744945 18.440098182069733)"><path d="M166.61 23.97 C173.92 28.38, 181.23 32.79, 188.02 36.88 M166.61 23.97 C172.25 27.37, 177.89 30.77, 188.02 36.88" stroke="#1e1e1e" stroke-width="1" fill="none"></path></g></g><mask id="mask-SNqx-Uu7_HxXb89fa_sTk"><rect x="0" y="0" fill="#fff" width="476.38427938459523" height="756.7930403270333"></rect><rect x="237.9116593071459" y="629.1529421449636" fill="#000" width="88.9296875" height="18.4" opacity="1"></rect></mask><g transform="translate(237.91165930714578 629.1529421449636) rotate(0 44.46484374999994 9.200000000000045)"><text x="44.46484375" y="14.720312499999999" font-family="Helvetica, Segoe UI Emoji" font-size="16px" fill="#1e1e1e" text-anchor="middle" style="white-space: pre;" direction="ltr" dominant-baseline="alphabetic">4. retry send</text></g><g mask="url(#mask-DT37PxYJnwFvJijjcrJZZ)" stroke-linecap="round"><g transform="translate(376.38427938459523 668.1219586890037) rotate(0 -94.65062039134443 22.789111971382)"><path d="M0 0 C-31.55 7.6, -157.75 37.98, -189.3 45.58 M0 0 C-31.55 7.6, -157.75 37.98, -189.3 45.58" stroke="#1e1e1e" stroke-width="1" fill="none"></path></g><g transform="translate(376.38427938459523 668.1219586890037) rotate(0 -94.65062039134443 22.789111971382)"><path d="M-168.46 31.77 C-176.15 36.86, -183.85 41.96, -189.3 45.58 M-168.46 31.77 C-173.35 35.01, -178.24 38.25, -189.3 45.58" stroke="#1e1e1e" stroke-width="1" fill="none"></path></g><g transform="translate(376.38427938459523 668.1219586890037) rotate(0 -94.65062039134443 22.789111971382)"><path d="M-164.46 48.39 C-173.63 47.35, -182.8 46.31, -189.3 45.58 M-164.46 48.39 C-170.29 47.73, -176.12 47.07, -189.3 45.58" stroke="#1e1e1e" stroke-width="1" fill="none"></path></g></g><mask id="mask-DT37PxYJnwFvJijjcrJZZ"><rect x="0" y="0" fill="#fff" width="665.685520167284" height="813.7001826317677"></rect><rect x="263.05787774325086" y="672.5110706603855" fill="#000" width="37.3515625" height="36.8" opacity="1"></rect></mask><g transform="translate(263.05787774325074 672.5110706603855) rotate(0 18.67578125 18.40000000000009)"><text x="18.67578125" y="14.720312499999999" font-family="Helvetica, Segoe UI Emoji" font-size="16px" fill="#1e1e1e" text-anchor="middle" style="white-space: pre;" direction="ltr" dominant-baseline="alphabetic">rst</text><text x="18.67578125" y="33.1203125" font-family="Helvetica, Segoe UI Emoji" font-size="16px" fill="#1e1e1e" text-anchor="middle" style="white-space: pre;" direction="ltr" dominant-baseline="alphabetic">client</text></g><g mask="url(#mask-p_6ymPYP88jlqM8M0GbJB)" stroke-linecap="round"><g transform="translate(381.50864674920814 522.9313832496767) rotate(0 118.33097358038879 -50.802809383318845)"><path d="M0 0 C39.44 -16.93, 197.22 -84.67, 236.66 -101.61 M0 0 C39.44 -16.93, 197.22 -84.67, 236.66 -101.61" stroke="#1e1e1e" stroke-width="1" fill="none"></path></g><g transform="translate(381.50864674920814 522.9313832496767) rotate(0 118.33097358038879 -50.802809383318845)"><path d="M218.45 -84.48 C225.1 -90.74, 231.76 -97, 236.66 -101.61 M218.45 -84.48 C222.37 -88.17, 226.29 -91.85, 236.66 -101.61" stroke="#1e1e1e" stroke-width="1" fill="none"></path></g><g transform="translate(381.50864674920814 522.9313832496767) rotate(0 118.33097358038879 -50.802809383318845)"><path d="M211.7 -100.19 C220.82 -100.71, 229.94 -101.23, 236.66 -101.61 M211.7 -100.19 C217.07 -100.5, 222.45 -100.8, 236.66 -101.61" stroke="#1e1e1e" stroke-width="1" fill="none"></path></g></g><mask id="mask-p_6ymPYP88jlqM8M0GbJB"><rect x="0" y="0" fill="#fff" width="718.1705939099857" height="724.5370020163144"></rect><rect x="461.144307829597" y="462.92857386635797" fill="#000" width="77.390625" height="18.4" opacity="1"></rect></mask><g transform="translate(461.144307829597 462.92857386635785) rotate(0 38.6953125 9.200000000000045)"><text x="38.6953125" y="14.720312499999999" font-family="Helvetica, Segoe UI Emoji" font-size="16px" fill="#1e1e1e" text-anchor="middle" style="white-space: pre;" direction="ltr" dominant-baseline="alphabetic">clean deny</text></g><g transform="translate(100.99617368552953 199.62870648261708) rotate(0 35.14970660705865 11.541138854167627)"><text x="0" y="18.466214189047776" font-family="Helvetica, Segoe UI Emoji" font-size="20.071545833335023px" fill="#1e1e1e" text-anchor="start" style="white-space: pre;" direction="ltr" dominant-baseline="alphabetic">connect</text></g><g transform="translate(94.92854445953776 433.20711205954876) rotate(0 23.410457122176098 12.419064249970688)"><text x="0" y="19.87092464316809" font-family="Helvetica, Segoe UI Emoji" font-size="21.598372608644652px" fill="#1e1e1e" text-anchor="start" style="white-space: pre;" direction="ltr" dominant-baseline="alphabetic">send</text></g></svg>