<svg version="1.1" xmlns="http://www.w3.org/2000/svg" viewBox="0 0 752.5 446.25" width="752.5" height="446.25">
  <!-- svg-source:excalidraw -->
  
  <defs>
    <style class="style-fonts">
      @font-face {
        font-family: "Virgil";
        src: url("https://excalidraw.com/Virgil.woff2");
      }
      @font-face {
        font-family: "Cascadia";
        src: url("https://excalidraw.com/Cascadia.woff2");
      }
      @font-face {
        font-family: "Assistant";
        src: url("https://excalidraw.com/Assistant-Regular.woff2");
      }
    </style>
    
  </defs>
  <rect x="0" y="0" width="752.5" height="446.25" fill="#ffffff"></rect><g stroke-linecap="round" transform="translate(61.25 77.5) rotate(0 127.5 78.75)"><path d="M7.86 8.16 C7.86 8.16, 7.86 8.16, 7.86 8.16 M7.86 8.16 C7.86 8.16, 7.86 8.16, 7.86 8.16 M1.43 27.75 C10.69 17.1, 19.94 6.46, 25.05 0.58 M1.43 27.75 C9.15 18.87, 16.87 9.99, 25.05 0.58 M0.91 40.54 C14.7 24.68, 28.49 8.82, 36.34 -0.21 M0.91 40.54 C8.71 31.57, 16.51 22.6, 36.34 -0.21 M1.04 52.58 C13.76 37.95, 26.48 23.33, 46.97 -0.25 M1.04 52.58 C11.03 41.09, 21.02 29.6, 46.97 -0.25 M1.18 64.62 C13.08 50.93, 24.98 37.24, 57.6 -0.28 M1.18 64.62 C18.54 44.65, 35.9 24.68, 57.6 -0.28 M0.65 77.42 C16.64 59.03, 32.63 40.63, 67.57 0.44 M0.65 77.42 C22.44 52.36, 44.23 27.29, 67.57 0.44 M0.79 89.46 C18.2 69.44, 35.6 49.41, 78.2 0.41 M0.79 89.46 C18.37 69.24, 35.95 49.02, 78.2 0.41 M0.92 101.5 C33.81 63.67, 66.7 25.83, 88.83 0.37 M0.92 101.5 C32.94 64.67, 64.95 27.84, 88.83 0.37 M0.4 114.3 C35.92 73.44, 71.43 32.58, 99.46 0.34 M0.4 114.3 C36.07 73.26, 71.74 32.23, 99.46 0.34 M0.53 126.34 C26.96 95.93, 53.4 65.52, 110.09 0.3 M0.53 126.34 C42.59 77.95, 84.65 29.57, 110.09 0.3 M1.98 136.87 C25.96 109.28, 49.94 81.69, 120.72 0.27 M1.98 136.87 C28.81 106, 55.65 75.13, 120.72 0.27 M5.39 145.14 C38.35 107.22, 71.3 69.31, 131.35 0.23 M5.39 145.14 C52.34 91.12, 99.3 37.11, 131.35 0.23 M10.77 151.14 C38.03 119.79, 65.28 88.43, 141.98 0.2 M10.77 151.14 C47.73 108.62, 84.69 66.1, 141.98 0.2 M17.47 155.63 C60.58 106.03, 103.7 56.43, 152.61 0.16 M17.47 155.63 C52.11 115.77, 86.76 75.91, 152.61 0.16 M26.13 157.86 C66.01 111.99, 105.88 66.11, 163.24 0.13 M26.13 157.86 C70.21 107.15, 114.3 56.44, 163.24 0.13 M36.76 157.83 C86.09 101.08, 135.42 44.34, 173.87 0.09 M36.76 157.83 C77.6 110.85, 118.44 63.86, 173.87 0.09 M47.39 157.79 C78.77 121.7, 110.15 85.6, 184.5 0.06 M47.39 157.79 C85.41 114.06, 123.43 70.32, 184.5 0.06 M58.02 157.76 C111.85 95.84, 165.68 33.91, 195.13 0.03 M58.02 157.76 C98.85 110.79, 139.67 63.83, 195.13 0.03 M68.65 157.73 C104.55 116.43, 140.44 75.13, 205.76 -0.01 M68.65 157.73 C98.59 123.28, 128.52 88.84, 205.76 -0.01 M79.28 157.69 C118.88 112.14, 158.48 66.58, 216.39 -0.04 M79.28 157.69 C133.33 95.51, 187.38 33.34, 216.39 -0.04 M89.91 157.66 C129.79 111.78, 169.67 65.91, 226.37 0.68 M89.91 157.66 C137.88 102.47, 185.85 47.29, 226.37 0.68 M99.88 158.38 C151.79 98.67, 203.69 38.96, 235.69 2.15 M99.88 158.38 C135.56 117.33, 171.24 76.29, 235.69 2.15 M110.51 158.34 C148.49 114.65, 186.47 70.96, 243.69 5.14 M110.51 158.34 C139.97 124.46, 169.42 90.57, 243.69 5.14 M121.14 158.31 C155.56 118.71, 189.99 79.11, 249.07 11.14 M121.14 158.31 C161.62 111.74, 202.11 65.17, 249.07 11.14 M131.77 158.27 C164.32 120.83, 196.87 83.39, 253.14 18.65 M131.77 158.27 C169.29 115.11, 206.81 71.96, 253.14 18.65 M142.4 158.24 C165.76 131.37, 189.12 104.5, 254.59 29.18 M142.4 158.24 C176.72 118.76, 211.04 79.28, 254.59 29.18 M153.03 158.2 C186.94 119.2, 220.84 80.2, 255.38 40.47 M153.03 158.2 C177.05 130.57, 201.07 102.94, 255.38 40.47 M163.66 158.17 C193.14 124.26, 222.61 90.36, 255.51 52.51 M163.66 158.17 C192.99 124.43, 222.31 90.7, 255.51 52.51 M174.29 158.14 C192.76 136.89, 211.23 115.65, 255.64 64.55 M174.29 158.14 C203.15 124.94, 232.01 91.74, 255.64 64.55 M184.92 158.1 C212.62 126.24, 240.32 94.37, 255.78 76.59 M184.92 158.1 C211.99 126.96, 239.07 95.81, 255.78 76.59 M195.55 158.07 C217.91 132.35, 240.26 106.63, 255.91 88.63 M195.55 158.07 C217.5 132.82, 239.44 107.58, 255.91 88.63 M206.18 158.03 C219.2 143.06, 232.22 128.08, 255.39 101.43 M206.18 158.03 C218.85 143.46, 231.52 128.89, 255.39 101.43 M216.81 158 C226.06 147.36, 235.31 136.71, 255.52 113.47 M216.81 158 C228.16 144.95, 239.5 131.9, 255.52 113.47 M227.44 157.96 C234.51 149.83, 241.58 141.7, 255.65 125.51 M227.44 157.96 C234.38 149.98, 241.32 142, 255.65 125.51 M242.01 153.4 C246.41 148.33, 250.82 143.27, 253.82 139.82 M242.01 153.4 C245.7 149.15, 249.39 144.91, 253.82 139.82" stroke="#a5d8ff" stroke-width="1" fill="none"></path><path d="M32 0 C92.64 0, 153.29 0, 223 0 M32 0 C72.99 0, 113.99 0, 223 0 M223 0 C244.33 0, 255 10.67, 255 32 M223 0 C244.33 0, 255 10.67, 255 32 M255 32 C255 65.57, 255 99.14, 255 125.5 M255 32 C255 54.22, 255 76.44, 255 125.5 M255 125.5 C255 146.83, 244.33 157.5, 223 157.5 M255 125.5 C255 146.83, 244.33 157.5, 223 157.5 M223 157.5 C174.17 157.5, 125.35 157.5, 32 157.5 M223 157.5 C169.79 157.5, 116.57 157.5, 32 157.5 M32 157.5 C10.67 157.5, 0 146.83, 0 125.5 M32 157.5 C10.67 157.5, 0 146.83, 0 125.5 M0 125.5 C0 106.08, 0 86.65, 0 32 M0 125.5 C0 92.84, 0 60.19, 0 32 M0 32 C0 10.67, 10.67 0, 32 0 M0 32 C0 10.67, 10.67 0, 32 0" stroke="#1971c2" stroke-width="2" fill="none"></path></g><g stroke-linecap="round" transform="translate(260 297.5) rotate(0 108.125 48.125)"><path d="M5.75 6.32 C5.75 6.32, 5.75 6.32, 5.75 6.32 M5.75 6.32 C5.75 6.32, 5.75 6.32, 5.75 6.32 M0.63 24.4 C6.14 18.07, 11.65 11.73, 21.63 0.25 M0.63 24.4 C8.66 15.17, 16.69 5.93, 21.63 0.25 M0.77 36.44 C8.75 27.26, 16.74 18.07, 32.26 0.22 M0.77 36.44 C11.08 24.57, 21.4 12.7, 32.26 0.22 M0.24 49.24 C14.52 32.81, 28.8 16.38, 42.89 0.18 M0.24 49.24 C16.67 30.34, 33.1 11.44, 42.89 0.18 M0.38 61.28 C11.79 48.15, 23.2 35.02, 53.52 0.15 M0.38 61.28 C19.2 39.62, 38.03 17.97, 53.52 0.15 M0.51 73.32 C23.94 46.37, 47.36 19.42, 64.15 0.11 M0.51 73.32 C13.52 58.35, 26.54 43.38, 64.15 0.11 M1.96 83.85 C28.27 53.58, 54.59 23.3, 74.78 0.08 M1.96 83.85 C27.6 54.35, 53.24 24.85, 74.78 0.08 M6.68 90.61 C36.38 56.45, 66.07 22.29, 85.41 0.04 M6.68 90.61 C33.01 60.33, 59.33 30.04, 85.41 0.04 M13.37 95.1 C41.46 62.79, 69.55 30.48, 96.04 0.01 M13.37 95.1 C36.89 68.05, 60.4 41, 96.04 0.01 M23.35 95.82 C43.31 72.86, 63.28 49.89, 106.67 -0.03 M23.35 95.82 C40.58 76, 57.81 56.18, 106.67 -0.03 M33.32 96.54 C55.05 71.55, 76.77 46.56, 117.3 -0.06 M33.32 96.54 C54.47 72.22, 75.61 47.9, 117.3 -0.06 M43.95 96.51 C68.76 67.97, 93.56 39.44, 127.93 -0.09 M43.95 96.51 C76.79 58.73, 109.63 20.96, 127.93 -0.09 M54.58 96.47 C78.89 68.51, 103.2 40.55, 138.56 -0.13 M54.58 96.47 C79.12 68.25, 103.65 40.02, 138.56 -0.13 M65.21 96.44 C94.13 63.17, 123.05 29.91, 148.53 0.59 M65.21 96.44 C98.04 58.68, 130.86 20.92, 148.53 0.59 M75.84 96.4 C97.99 70.92, 120.14 45.44, 159.16 0.56 M75.84 96.4 C107.61 59.86, 139.37 23.32, 159.16 0.56 M86.47 96.37 C108.11 71.48, 129.75 46.58, 169.79 0.52 M86.47 96.37 C108.13 71.46, 129.79 46.54, 169.79 0.52 M97.1 96.34 C120.78 69.1, 144.45 41.87, 180.42 0.49 M97.1 96.34 C116.44 74.09, 135.77 51.85, 180.42 0.49 M107.73 96.3 C137.8 61.71, 167.87 27.13, 191.05 0.45 M107.73 96.3 C138.62 60.77, 169.51 25.23, 191.05 0.45 M118.36 96.27 C143.42 67.44, 168.48 38.62, 201.03 1.17 M118.36 96.27 C142.77 68.2, 167.17 40.12, 201.03 1.17 M128.99 96.23 C148.09 74.27, 167.18 52.3, 208.38 4.91 M128.99 96.23 C148.5 73.79, 168.01 51.35, 208.38 4.91 M139.62 96.2 C165.13 66.85, 190.64 37.51, 213.76 10.92 M139.62 96.2 C166.22 65.6, 192.82 35, 213.76 10.92 M150.25 96.16 C173.53 69.39, 196.81 42.61, 216.52 19.94 M150.25 96.16 C172.9 70.11, 195.55 44.06, 216.52 19.94 M160.88 96.13 C177.1 77.47, 193.32 58.81, 216.65 31.98 M160.88 96.13 C180.31 73.78, 199.74 51.43, 216.65 31.98 M171.51 96.09 C180.8 85.41, 190.08 74.73, 216.13 44.77 M171.51 96.09 C182.81 83.1, 194.1 70.11, 216.13 44.77 M182.14 96.06 C192.03 84.69, 201.91 73.32, 216.26 56.81 M182.14 96.06 C193.3 83.23, 204.46 70.39, 216.26 56.81 M192.12 96.78 C201.55 85.93, 210.98 75.08, 216.39 68.86 M192.12 96.78 C199.69 88.07, 207.25 79.37, 216.39 68.86 M205.37 93.73 C208.58 90.04, 211.79 86.34, 214.56 83.16 M205.37 93.73 C208.09 90.61, 210.8 87.48, 214.56 83.16" stroke="#a5d8ff" stroke-width="1" fill="none"></path><path d="M24.06 0 C62.73 0, 101.4 0, 192.19 0 M24.06 0 C79.07 0, 134.07 0, 192.19 0 M192.19 0 C208.23 0, 216.25 8.02, 216.25 24.06 M192.19 0 C208.23 0, 216.25 8.02, 216.25 24.06 M216.25 24.06 C216.25 43.16, 216.25 62.26, 216.25 72.19 M216.25 24.06 C216.25 34.08, 216.25 44.1, 216.25 72.19 M216.25 72.19 C216.25 88.23, 208.23 96.25, 192.19 96.25 M216.25 72.19 C216.25 88.23, 208.23 96.25, 192.19 96.25 M192.19 96.25 C128.4 96.25, 64.62 96.25, 24.06 96.25 M192.19 96.25 C153.04 96.25, 113.9 96.25, 24.06 96.25 M24.06 96.25 C8.02 96.25, 0 88.23, 0 72.19 M24.06 96.25 C8.02 96.25, 0 88.23, 0 72.19 M0 72.19 C0 57.04, 0 41.89, 0 24.06 M0 72.19 C0 58.29, 0 44.4, 0 24.06 M0 24.06 C0 8.02, 8.02 0, 24.06 0 M0 24.06 C0 8.02, 8.02 0, 24.06 0" stroke="#1971c2" stroke-width="2" fill="none"></path></g><g transform="translate(344.7802734375 334.125) rotate(0 23.3447265625 11.5)"><text x="23.3447265625" y="0" font-family="Helvetica, Segoe UI Emoji" font-size="20px" fill="#1971c2" text-anchor="middle" style="white-space: pre;" direction="ltr" dominant-baseline="text-before-edge">istiod</text></g><g stroke-linecap="round" transform="translate(207.5 88.75) rotate(0 34.375 29.25)"><path d="M6.43 12.21 C6.43 12.21, 6.43 12.21, 6.43 12.21 M6.43 12.21 C6.43 12.21, 6.43 12.21, 6.43 12.21 M0.66 31.05 C10.81 19.37, 20.97 7.69, 26.24 1.61 M0.66 31.05 C5.98 24.92, 11.31 18.79, 26.24 1.61 M2.76 40.82 C13.9 28.01, 25.04 15.19, 37.53 0.82 M2.76 40.82 C10.01 32.49, 17.25 24.15, 37.53 0.82 M7.48 47.58 C18.73 34.64, 29.98 21.7, 46.85 2.3 M7.48 47.58 C18.95 34.39, 30.42 21.2, 46.85 2.3 M13.52 52.83 C22.11 42.95, 30.7 33.07, 54.85 5.28 M13.52 52.83 C27.96 36.22, 42.39 19.62, 54.85 5.28 M20.87 56.57 C35.58 39.65, 50.29 22.73, 60.89 10.53 M20.87 56.57 C30.73 45.23, 40.58 33.9, 60.89 10.53 M29.53 58.8 C41.72 44.79, 53.9 30.77, 65.62 17.29 M29.53 58.8 C40.07 46.68, 50.6 34.57, 65.62 17.29 M40.16 58.76 C48.83 48.8, 57.49 38.84, 68.37 26.31 M40.16 58.76 C49.11 48.47, 58.07 38.17, 68.37 26.31 M55.39 53.45 C57.42 51.11, 59.45 48.78, 65.23 42.13 M55.39 53.45 C58.82 49.49, 62.26 45.54, 65.23 42.13" stroke="#ffc9c9" stroke-width="1" fill="none"></path><path d="M68.75 29.25 C68.75 30.78, 68.61 32.32, 68.33 33.83 C68.05 35.33, 67.62 36.84, 67.07 38.29 C66.51 39.74, 65.82 41.17, 65 42.53 C64.19 43.89, 63.24 45.21, 62.18 46.44 C61.13 47.68, 59.95 48.85, 58.68 49.93 C57.41 51.01, 56.03 52.02, 54.58 52.91 C53.13 53.81, 51.58 54.62, 49.98 55.31 C48.38 56, 46.7 56.6, 45 57.07 C43.29 57.54, 41.52 57.9, 39.75 58.14 C37.98 58.38, 36.17 58.5, 34.38 58.5 C32.58 58.5, 30.77 58.38, 29 58.14 C27.23 57.9, 25.46 57.54, 23.75 57.07 C22.05 56.6, 20.37 56, 18.77 55.31 C17.17 54.62, 15.62 53.81, 14.17 52.91 C12.72 52.02, 11.34 51.01, 10.07 49.93 C8.8 48.85, 7.62 47.68, 6.57 46.44 C5.51 45.21, 4.56 43.89, 3.75 42.53 C2.93 41.17, 2.24 39.74, 1.68 38.29 C1.13 36.84, 0.7 35.33, 0.42 33.83 C0.14 32.32, 0 30.78, 0 29.25 C0 27.72, 0.14 26.18, 0.42 24.67 C0.7 23.17, 1.13 21.66, 1.68 20.21 C2.24 18.76, 2.93 17.33, 3.75 15.97 C4.56 14.61, 5.51 13.29, 6.57 12.06 C7.62 10.82, 8.8 9.65, 10.07 8.57 C11.34 7.49, 12.72 6.48, 14.17 5.59 C15.62 4.69, 17.17 3.88, 18.77 3.19 C20.37 2.5, 22.05 1.9, 23.75 1.43 C25.46 0.96, 27.23 0.6, 29 0.36 C30.77 0.12, 32.58 0, 34.37 0 C36.17 0, 37.98 0.12, 39.75 0.36 C41.52 0.6, 43.29 0.96, 45 1.43 C46.7 1.9, 48.38 2.5, 49.98 3.19 C51.58 3.88, 53.13 4.69, 54.58 5.59 C56.03 6.48, 57.41 7.49, 58.68 8.57 C59.95 9.65, 61.13 10.82, 62.18 12.06 C63.24 13.29, 64.19 14.61, 65 15.97 C65.82 17.33, 66.51 18.76, 67.07 20.21 C67.62 21.66, 68.05 23.17, 68.33 24.67 C68.61 26.18, 68.68 28.49, 68.75 29.25 C68.82 30.01, 68.82 28.49, 68.75 29.25" stroke="#f08c00" stroke-width="2" fill="none"></path></g><g transform="translate(226.50570439671242 108.61712665029336) rotate(0 15.5625 9.199999999999818)"><text x="15.5625" y="0" font-family="Helvetica, Segoe UI Emoji" font-size="16px" fill="#f08c00" text-anchor="middle" style="white-space: pre;" direction="ltr" dominant-baseline="text-before-edge">map</text></g><g stroke-linecap="round" transform="translate(85 170) rotate(0 52.5 21.09999999999991)"><path d="M2.81 2.44 C2.81 2.44, 2.81 2.44, 2.81 2.44 M2.81 2.44 C2.81 2.44, 2.81 2.44, 2.81 2.44 M0.32 17.5 C6.16 10.78, 12 4.06, 15.41 0.14 M0.32 17.5 C5.4 11.65, 10.48 5.81, 15.41 0.14 M0.45 29.54 C6.57 22.5, 12.7 15.45, 25.38 0.86 M0.45 29.54 C9.41 19.24, 18.36 8.94, 25.38 0.86 M2.55 39.32 C12.01 28.44, 21.47 17.56, 36.01 0.83 M2.55 39.32 C9.69 31.11, 16.82 22.9, 36.01 0.83 M10.56 42.3 C20.16 31.25, 29.77 20.2, 46.64 0.79 M10.56 42.3 C20.97 30.33, 31.38 18.35, 46.64 0.79 M21.19 42.27 C29.51 32.69, 37.84 23.12, 57.27 0.76 M21.19 42.27 C30.05 32.07, 38.91 21.88, 57.27 0.76 M31.82 42.23 C39.09 33.86, 46.37 25.49, 67.9 0.72 M31.82 42.23 C42.32 30.15, 52.83 18.07, 67.9 0.72 M42.45 42.2 C54.04 28.86, 65.64 15.52, 78.53 0.69 M42.45 42.2 C51.58 31.7, 60.7 21.2, 78.53 0.69 M53.08 42.16 C66.54 26.68, 80.01 11.19, 89.16 0.66 M53.08 42.16 C62.28 31.58, 71.48 20.99, 89.16 0.66 M63.71 42.13 C74.59 29.62, 85.47 17.1, 99.14 1.38 M63.71 42.13 C77.61 26.14, 91.51 10.15, 99.14 1.38 M74.34 42.1 C85.34 29.44, 96.34 16.79, 104.52 7.38 M74.34 42.1 C80.55 34.95, 86.77 27.8, 104.52 7.38 M84.97 42.06 C89.1 37.31, 93.23 32.56, 105.31 18.67 M84.97 42.06 C92.25 33.68, 99.53 25.31, 105.31 18.67 M94.94 42.78 C97.27 40.1, 99.6 37.42, 105.44 30.71 M94.94 42.78 C98.16 39.08, 101.38 35.37, 105.44 30.71" stroke="#b2f2bb" stroke-width="1" fill="none"></path><path d="M10.55 0 C30.83 0, 51.12 0, 94.45 0 M10.55 0 C35.2 0, 59.85 0, 94.45 0 M94.45 0 C101.48 0, 105 3.52, 105 10.55 M94.45 0 C101.48 0, 105 3.52, 105 10.55 M105 10.55 C105 17.71, 105 24.87, 105 31.65 M105 10.55 C105 18.82, 105 27.09, 105 31.65 M105 31.65 C105 38.68, 101.48 42.2, 94.45 42.2 M105 31.65 C105 38.68, 101.48 42.2, 94.45 42.2 M94.45 42.2 C65.35 42.2, 36.25 42.2, 10.55 42.2 M94.45 42.2 C72.61 42.2, 50.78 42.2, 10.55 42.2 M10.55 42.2 C3.52 42.2, 0 38.68, 0 31.65 M10.55 42.2 C3.52 42.2, 0 38.68, 0 31.65 M0 31.65 C0 23.25, 0 14.85, 0 10.55 M0 31.65 C0 26.61, 0 21.56, 0 10.55 M0 10.55 C0 3.52, 3.52 0, 10.55 0 M0 10.55 C0 3.52, 3.52 0, 10.55 0" stroke="#2f9e44" stroke-width="2" fill="none"></path></g><g transform="translate(104.15234375 181.89999999999964) rotate(0 33.34765625 9.199999999999818)"><text x="33.34765625" y="0" font-family="Helvetica, Segoe UI Emoji" font-size="16px" fill="#2f9e44" text-anchor="middle" style="white-space: pre;" direction="ltr" dominant-baseline="text-before-edge">xds client</text></g><g stroke-linecap="round"><g transform="translate(118.75 211.25) rotate(0 67.5 67.01883273637804)"><path d="M0 0 C3.33 16.25, -2.5 75.16, 20 97.5 C42.5 119.84, 115.83 127.95, 135 134.04 M0 0 C3.33 16.25, -2.5 75.16, 20 97.5 C42.5 119.84, 115.83 127.95, 135 134.04" stroke="#f08c00" stroke-width="2" fill="none"></path></g><g transform="translate(118.75 211.25) rotate(0 67.5 67.01883273637804)"><path d="M110.22 137.37 C116.97 136.46, 123.72 135.55, 135 134.04 M110.22 137.37 C115.81 136.62, 121.4 135.87, 135 134.04" stroke="#f08c00" stroke-width="2" fill="none"></path></g><g transform="translate(118.75 211.25) rotate(0 67.5 67.01883273637804)"><path d="M113.88 120.66 C119.63 124.3, 125.38 127.95, 135 134.04 M113.88 120.66 C118.64 123.68, 123.41 126.7, 135 134.04" stroke="#f08c00" stroke-width="2" fill="none"></path></g></g><mask></mask><g stroke-linecap="round"><g transform="translate(255 309.1429473479693) rotate(0 -56.25 -46.446473673984656)"><path d="M0 0 C-15.42 -4.44, -73.75 -11.16, -92.5 -26.64 C-111.25 -42.13, -109.17 -81.85, -112.5 -92.89" stroke="#f08c00" stroke-width="2.5" fill="none" stroke-dasharray="8 10"></path></g><g transform="translate(255 309.1429473479693) rotate(0 -56.25 -46.446473673984656)"><path d="M-100.81 -70.79 C-104.79 -78.32, -108.77 -85.84, -112.5 -92.89" stroke="#f08c00" stroke-width="2.5" fill="none"></path></g><g transform="translate(255 309.1429473479693) rotate(0 -56.25 -46.446473673984656)"><path d="M-117.75 -68.45 C-115.97 -76.77, -114.18 -85.09, -112.5 -92.89" stroke="#f08c00" stroke-width="2.5" fill="none"></path></g></g><mask></mask><g transform="translate(46.25 332.5) rotate(0 83.58984375 9.199999999999818)"><text x="0" y="0" font-family="Helvetica, Segoe UI Emoji" font-size="16px" fill="#1971c2" text-anchor="start" style="white-space: pre;" direction="ltr" dominant-baseline="text-before-edge">DeltaDiscoveryRequest</text></g><g transform="translate(133.75 253.75) rotate(0 89.81640625 9.199999999999818)"><text x="0" y="0" font-family="Helvetica, Segoe UI Emoji" font-size="16px" fill="#1971c2" text-anchor="start" style="white-space: pre;" direction="ltr" dominant-baseline="text-before-edge">DeltaDiscoveryResponse</text></g><g stroke-linecap="round"><g transform="translate(133.75 168.75) rotate(0 34.375 -25)"><path d="M0 0 C2.08 -6.67, 1.04 -31.67, 12.5 -40 C23.96 -48.33, 59.38 -48.33, 68.75 -50 M0 0 C2.08 -6.67, 1.04 -31.67, 12.5 -40 C23.96 -48.33, 59.38 -48.33, 68.75 -50" stroke="#f08c00" stroke-width="2" fill="none"></path></g><g transform="translate(133.75 168.75) rotate(0 34.375 -25)"><path d="M46.16 -39.3 C54.27 -43.14, 62.38 -46.98, 68.75 -50 M46.16 -39.3 C51.52 -41.84, 56.89 -44.38, 68.75 -50" stroke="#f08c00" stroke-width="2" fill="none"></path></g><g transform="translate(133.75 168.75) rotate(0 34.375 -25)"><path d="M44.56 -56.33 C53.25 -54.06, 61.93 -51.78, 68.75 -50 M44.56 -56.33 C50.31 -54.82, 56.06 -53.32, 68.75 -50" stroke="#f08c00" stroke-width="2" fill="none"></path></g></g><mask></mask><g transform="translate(236.25 198.94999999999982) rotate(0 22.24609375 11.5)"><text x="0" y="0" font-family="Helvetica, Segoe UI Emoji" font-size="20px" fill="#1971c2" text-anchor="start" style="white-space: pre;" direction="ltr" dominant-baseline="text-before-edge">node</text></g><g stroke-linecap="round" transform="translate(10 10) rotate(0 366.25 213.125)"><path d="M32 0 C241.43 0, 450.86 0, 700.5 0 M32 0 C266.74 0, 501.49 0, 700.5 0 M700.5 0 C721.83 0, 732.5 10.67, 732.5 32 M700.5 0 C721.83 0, 732.5 10.67, 732.5 32 M732.5 32 C732.5 123.26, 732.5 214.52, 732.5 394.25 M732.5 32 C732.5 153.67, 732.5 275.34, 732.5 394.25 M732.5 394.25 C732.5 415.58, 721.83 426.25, 700.5 426.25 M732.5 394.25 C732.5 415.58, 721.83 426.25, 700.5 426.25 M700.5 426.25 C449.21 426.25, 197.92 426.25, 32 426.25 M700.5 426.25 C529.63 426.25, 358.75 426.25, 32 426.25 M32 426.25 C10.67 426.25, 0 415.58, 0 394.25 M32 426.25 C10.67 426.25, 0 415.58, 0 394.25 M0 394.25 C0 317.1, 0 239.95, 0 32 M0 394.25 C0 264.85, 0 135.46, 0 32 M0 32 C0 10.67, 10.67 0, 32 0 M0 32 C0 10.67, 10.67 0, 32 0" stroke="#1e1e1e" stroke-width="2" fill="none"></path></g><g stroke-linecap="round" transform="translate(446.25 76.25) rotate(0 128.125 81.25)"><path d="M7.86 8.16 C7.86 8.16, 7.86 8.16, 7.86 8.16 M7.86 8.16 C7.86 8.16, 7.86 8.16, 7.86 8.16 M1.43 27.75 C7.97 20.22, 14.51 12.7, 25.05 0.58 M1.43 27.75 C6.57 21.84, 11.71 15.93, 25.05 0.58 M0.91 40.54 C8.38 31.95, 15.86 23.35, 36.34 -0.21 M0.91 40.54 C11.81 28, 22.71 15.46, 36.34 -0.21 M1.04 52.58 C12.02 39.96, 22.99 27.34, 46.97 -0.25 M1.04 52.58 C16 35.38, 30.95 18.18, 46.97 -0.25 M1.18 64.62 C13.86 50.03, 26.55 35.43, 57.6 -0.28 M1.18 64.62 C13.99 49.89, 26.8 35.15, 57.6 -0.28 M0.65 77.42 C25.69 48.62, 50.73 19.82, 67.57 0.44 M0.65 77.42 C25.03 49.38, 49.4 21.35, 67.57 0.44 M0.79 89.46 C28.54 57.53, 56.3 25.6, 78.2 0.41 M0.79 89.46 C28.66 57.4, 56.54 25.33, 78.2 0.41 M0.92 101.5 C22.13 77.1, 43.34 52.7, 88.83 0.37 M0.92 101.5 C34.67 62.68, 68.42 23.86, 88.83 0.37 M0.4 114.3 C20.41 91.28, 40.41 68.27, 99.46 0.34 M0.4 114.3 C22.79 88.54, 45.17 62.79, 99.46 0.34 M0.53 126.34 C29.2 93.36, 57.86 60.39, 110.09 0.3 M0.53 126.34 C41.37 79.36, 82.21 32.38, 110.09 0.3 M0.66 138.38 C25.6 109.69, 50.54 81, 120.72 0.27 M0.66 138.38 C34.48 99.47, 68.3 60.57, 120.72 0.27 M3.42 147.4 C44.24 100.45, 85.05 53.5, 131.35 0.23 M3.42 147.4 C36.22 109.67, 69.02 71.94, 131.35 0.23 M8.15 154.16 C47.07 109.38, 86 64.6, 141.98 0.2 M8.15 154.16 C51.18 104.66, 94.21 55.16, 141.98 0.2 M14.84 158.65 C64.41 101.63, 113.97 44.62, 152.61 0.16 M14.84 158.65 C55.88 111.45, 96.91 64.24, 152.61 0.16 M22.85 161.64 C54.98 124.68, 87.11 87.71, 163.24 0.13 M22.85 161.64 C61.78 116.85, 100.71 72.07, 163.24 0.13 M32.16 163.11 C87.8 99.11, 143.43 35.12, 173.87 0.09 M32.16 163.11 C74.36 114.57, 116.56 66.03, 173.87 0.09 M42.79 163.08 C79.9 120.4, 117 77.72, 184.5 0.06 M42.79 163.08 C73.74 127.48, 104.68 91.89, 184.5 0.06 M53.43 163.04 C94.35 115.96, 135.28 68.88, 195.13 0.03 M53.43 163.04 C109.28 98.78, 165.14 34.52, 195.13 0.03 M64.06 163.01 C105.47 115.37, 146.88 67.73, 205.76 -0.01 M64.06 163.01 C113.87 105.7, 163.68 48.4, 205.76 -0.01 M74.69 162.97 C128.85 100.67, 183.01 38.36, 216.39 -0.04 M74.69 162.97 C111.91 120.15, 149.14 77.32, 216.39 -0.04 M85.32 162.94 C125.73 116.45, 166.14 69.96, 227.02 -0.08 M85.32 162.94 C116.66 126.88, 148 90.83, 227.02 -0.08 M95.95 162.9 C133.72 119.45, 171.5 75.99, 236.34 1.4 M95.95 162.9 C140.37 111.8, 184.8 60.69, 236.34 1.4 M106.58 162.87 C143.52 120.37, 180.47 77.86, 244.35 4.38 M106.58 162.87 C149.16 113.88, 191.75 64.89, 244.35 4.38 M117.21 162.84 C144.8 131.09, 172.39 99.35, 249.73 10.38 M117.21 162.84 C157.75 116.2, 198.29 69.56, 249.73 10.38 M127.84 162.8 C169.56 114.8, 211.29 66.8, 253.8 17.9 M127.84 162.8 C157.4 128.8, 186.96 94.79, 253.8 17.9 M138.47 162.77 C176.15 119.42, 213.83 76.07, 255.9 27.67 M138.47 162.77 C175.96 119.63, 213.45 76.5, 255.9 27.67 M149.1 162.73 C173.52 134.64, 197.94 106.54, 256.69 38.96 M149.1 162.73 C187.26 118.83, 225.43 74.92, 256.69 38.96 M159.73 162.7 C197.68 119.03, 235.64 75.37, 256.82 51 M159.73 162.7 C196.83 120.02, 233.92 77.34, 256.82 51 M170.36 162.66 C202.43 125.76, 234.51 88.87, 256.96 63.04 M170.36 162.66 C201.84 126.45, 233.32 90.23, 256.96 63.04 M180.99 162.63 C201.12 139.47, 221.25 116.31, 257.09 75.08 M180.99 162.63 C200.58 140.09, 220.17 117.56, 257.09 75.08 M191.62 162.59 C207.3 144.56, 222.98 126.52, 257.22 87.12 M191.62 162.59 C210.84 140.48, 230.07 118.36, 257.22 87.12 M202.25 162.56 C215.89 146.86, 229.54 131.16, 256.7 99.92 M202.25 162.56 C215.64 147.16, 229.02 131.76, 256.7 99.92 M212.88 162.53 C229.27 143.67, 245.65 124.82, 256.83 111.96 M212.88 162.53 C226.61 146.72, 240.35 130.92, 256.83 111.96 M223.51 162.49 C234.23 150.16, 244.95 137.83, 256.97 124 M223.51 162.49 C236.41 147.65, 249.31 132.81, 256.97 124 M235.45 160.95 C243.07 152.19, 250.68 143.42, 255.79 137.55 M235.45 160.95 C242.13 153.26, 248.82 145.56, 255.79 137.55" stroke="#a5d8ff" stroke-width="1" fill="none"></path><path d="M32 0 C80.67 0, 129.34 0, 224.25 0 M32 0 C91.85 0, 151.69 0, 224.25 0 M224.25 0 C245.58 0, 256.25 10.67, 256.25 32 M224.25 0 C245.58 0, 256.25 10.67, 256.25 32 M256.25 32 C256.25 63.86, 256.25 95.73, 256.25 130.5 M256.25 32 C256.25 55.58, 256.25 79.17, 256.25 130.5 M256.25 130.5 C256.25 151.83, 245.58 162.5, 224.25 162.5 M256.25 130.5 C256.25 151.83, 245.58 162.5, 224.25 162.5 M224.25 162.5 C181.61 162.5, 138.96 162.5, 32 162.5 M224.25 162.5 C179.31 162.5, 134.37 162.5, 32 162.5 M32 162.5 C10.67 162.5, 0 151.83, 0 130.5 M32 162.5 C10.67 162.5, 0 151.83, 0 130.5 M0 130.5 C0 97.25, 0 63.99, 0 32 M0 130.5 C0 101.75, 0 73, 0 32 M0 32 C0 10.67, 10.67 0, 32 0 M0 32 C0 10.67, 10.67 0, 32 0" stroke="#1971c2" stroke-width="2" fill="none"></path></g><g stroke-linecap="round" transform="translate(597.5 90) rotate(0 34.375 29.25)"><path d="M6.43 12.21 C6.43 12.21, 6.43 12.21, 6.43 12.21 M6.43 12.21 C6.43 12.21, 6.43 12.21, 6.43 12.21 M0.66 31.05 C7.1 23.63, 13.55 16.22, 26.24 1.61 M0.66 31.05 C9.25 21.16, 17.85 11.28, 26.24 1.61 M2.76 40.82 C10.23 32.23, 17.71 23.63, 37.53 0.82 M2.76 40.82 C10.53 31.88, 18.31 22.94, 37.53 0.82 M7.48 47.58 C23.15 29.56, 38.82 11.53, 46.85 2.3 M7.48 47.58 C16.89 36.76, 26.31 25.93, 46.85 2.3 M13.52 52.83 C25.68 38.85, 37.83 24.87, 54.85 5.28 M13.52 52.83 C23.72 41.1, 33.92 29.36, 54.85 5.28 M20.87 56.57 C31.37 44.49, 41.87 32.41, 60.89 10.53 M20.87 56.57 C36.18 38.96, 51.48 21.36, 60.89 10.53 M29.53 58.8 C38.68 48.27, 47.83 37.75, 65.62 17.29 M29.53 58.8 C41.36 45.2, 53.18 31.6, 65.62 17.29 M40.16 58.76 C49.61 47.9, 59.06 37.03, 68.37 26.31 M40.16 58.76 C51.03 46.26, 61.9 33.76, 68.37 26.31 M55.39 53.45 C57.5 51.02, 59.61 48.58, 65.23 42.13 M55.39 53.45 C58.87 49.44, 62.36 45.43, 65.23 42.13" stroke="#ffc9c9" stroke-width="1" fill="none"></path><path d="M68.75 29.25 C68.75 30.78, 68.61 32.32, 68.33 33.83 C68.05 35.33, 67.62 36.84, 67.07 38.29 C66.51 39.74, 65.82 41.17, 65 42.53 C64.19 43.89, 63.24 45.21, 62.18 46.44 C61.13 47.68, 59.95 48.85, 58.68 49.93 C57.41 51.01, 56.03 52.02, 54.58 52.91 C53.13 53.81, 51.58 54.62, 49.98 55.31 C48.38 56, 46.7 56.6, 45 57.07 C43.29 57.54, 41.52 57.9, 39.75 58.14 C37.98 58.38, 36.17 58.5, 34.38 58.5 C32.58 58.5, 30.77 58.38, 29 58.14 C27.23 57.9, 25.46 57.54, 23.75 57.07 C22.05 56.6, 20.37 56, 18.77 55.31 C17.17 54.62, 15.62 53.81, 14.17 52.91 C12.72 52.02, 11.34 51.01, 10.07 49.93 C8.8 48.85, 7.62 47.68, 6.57 46.44 C5.51 45.21, 4.56 43.89, 3.75 42.53 C2.93 41.17, 2.24 39.74, 1.68 38.29 C1.13 36.84, 0.7 35.33, 0.42 33.83 C0.14 32.32, 0 30.78, 0 29.25 C0 27.72, 0.14 26.18, 0.42 24.67 C0.7 23.17, 1.13 21.66, 1.68 20.21 C2.24 18.76, 2.93 17.33, 3.75 15.97 C4.56 14.61, 5.51 13.29, 6.57 12.06 C7.62 10.82, 8.8 9.65, 10.07 8.57 C11.34 7.49, 12.72 6.48, 14.17 5.59 C15.62 4.69, 17.17 3.88, 18.77 3.19 C20.37 2.5, 22.05 1.9, 23.75 1.43 C25.46 0.96, 27.23 0.6, 29 0.36 C30.77 0.12, 32.58 0, 34.37 0 C36.17 0, 37.98 0.12, 39.75 0.36 C41.52 0.6, 43.29 0.96, 45 1.43 C46.7 1.9, 48.38 2.5, 49.98 3.19 C51.58 3.88, 53.13 4.69, 54.58 5.59 C56.03 6.48, 57.41 7.49, 58.68 8.57 C59.95 9.65, 61.13 10.82, 62.18 12.06 C63.24 13.29, 64.19 14.61, 65 15.97 C65.82 17.33, 66.51 18.76, 67.07 20.21 C67.62 21.66, 68.05 23.17, 68.33 24.67 C68.61 26.18, 68.68 28.49, 68.75 29.25 C68.82 30.01, 68.82 28.49, 68.75 29.25" stroke="#f08c00" stroke-width="2" fill="none"></path></g><g transform="translate(616.5057043967124 109.86712665029336) rotate(0 15.5625 9.199999999999818)"><text x="15.5625" y="0" font-family="Helvetica, Segoe UI Emoji" font-size="16px" fill="#f08c00" text-anchor="middle" style="white-space: pre;" direction="ltr" dominant-baseline="text-before-edge">map</text></g><g stroke-linecap="round" transform="translate(475 171.25) rotate(0 52.5 21.09999999999991)"><path d="M2.81 2.44 C2.81 2.44, 2.81 2.44, 2.81 2.44 M2.81 2.44 C2.81 2.44, 2.81 2.44, 2.81 2.44 M0.32 17.5 C3.82 13.47, 7.32 9.45, 15.41 0.14 M0.32 17.5 C4.64 12.53, 8.96 7.56, 15.41 0.14 M0.45 29.54 C9.74 18.86, 19.02 8.18, 25.38 0.86 M0.45 29.54 C9.73 18.86, 19.02 8.18, 25.38 0.86 M2.55 39.32 C13.67 26.53, 24.79 13.74, 36.01 0.83 M2.55 39.32 C11.68 28.82, 20.8 18.32, 36.01 0.83 M10.56 42.3 C19.85 31.61, 29.14 20.92, 46.64 0.79 M10.56 42.3 C23.15 27.82, 35.74 13.34, 46.64 0.79 M21.19 42.27 C30.59 31.45, 39.99 20.64, 57.27 0.76 M21.19 42.27 C33.21 28.43, 45.24 14.6, 57.27 0.76 M31.82 42.23 C44.28 27.9, 56.73 13.57, 67.9 0.72 M31.82 42.23 C39.2 33.74, 46.58 25.25, 67.9 0.72 M42.45 42.2 C54.42 28.43, 66.39 14.65, 78.53 0.69 M42.45 42.2 C51.91 31.31, 61.38 20.42, 78.53 0.69 M53.08 42.16 C66.86 26.31, 80.64 10.46, 89.16 0.66 M53.08 42.16 C60.38 33.76, 67.68 25.36, 89.16 0.66 M63.71 42.13 C75.17 28.94, 86.64 15.76, 99.14 1.38 M63.71 42.13 C77.58 26.17, 91.46 10.21, 99.14 1.38 M74.34 42.1 C85.69 29.03, 97.05 15.97, 104.52 7.38 M74.34 42.1 C84.69 30.19, 95.05 18.27, 104.52 7.38 M84.97 42.06 C90.58 35.61, 96.19 29.15, 105.31 18.67 M84.97 42.06 C92.91 32.92, 100.86 23.78, 105.31 18.67 M94.94 42.78 C99.14 37.95, 103.33 33.13, 105.44 30.71 M94.94 42.78 C98.77 38.38, 102.6 33.97, 105.44 30.71" stroke="#b2f2bb" stroke-width="1" fill="none"></path><path d="M10.55 0 C40.54 0, 70.53 0, 94.45 0 M10.55 0 C36.35 0, 62.14 0, 94.45 0 M94.45 0 C101.48 0, 105 3.52, 105 10.55 M94.45 0 C101.48 0, 105 3.52, 105 10.55 M105 10.55 C105 17.01, 105 23.47, 105 31.65 M105 10.55 C105 16.07, 105 21.58, 105 31.65 M105 31.65 C105 38.68, 101.48 42.2, 94.45 42.2 M105 31.65 C105 38.68, 101.48 42.2, 94.45 42.2 M94.45 42.2 C75.84 42.2, 57.22 42.2, 10.55 42.2 M94.45 42.2 C70.19 42.2, 45.94 42.2, 10.55 42.2 M10.55 42.2 C3.52 42.2, 0 38.68, 0 31.65 M10.55 42.2 C3.52 42.2, 0 38.68, 0 31.65 M0 31.65 C0 26.82, 0 21.99, 0 10.55 M0 31.65 C0 25.52, 0 19.39, 0 10.55 M0 10.55 C0 3.52, 3.52 0, 10.55 0 M0 10.55 C0 3.52, 3.52 0, 10.55 0" stroke="#2f9e44" stroke-width="2" fill="none"></path></g><g transform="translate(494.15234375 183.14999999999964) rotate(0 33.34765625 9.199999999999818)"><text x="33.34765625" y="0" font-family="Helvetica, Segoe UI Emoji" font-size="16px" fill="#2f9e44" text-anchor="middle" style="white-space: pre;" direction="ltr" dominant-baseline="text-before-edge">xds client</text></g><g stroke-linecap="round"><g transform="translate(523.75 170) rotate(0 34.375 -25)"><path d="M0 0 C2.08 -6.67, 1.04 -31.67, 12.5 -40 C23.96 -48.33, 59.38 -48.33, 68.75 -50 M0 0 C2.08 -6.67, 1.04 -31.67, 12.5 -40 C23.96 -48.33, 59.38 -48.33, 68.75 -50" stroke="#f08c00" stroke-width="2" fill="none"></path></g><g transform="translate(523.75 170) rotate(0 34.375 -25)"><path d="M46.16 -39.3 C53.39 -42.73, 60.63 -46.16, 68.75 -50 M46.16 -39.3 C50.87 -41.53, 55.57 -43.76, 68.75 -50" stroke="#f08c00" stroke-width="2" fill="none"></path></g><g transform="translate(523.75 170) rotate(0 34.375 -25)"><path d="M44.56 -56.33 C52.31 -54.3, 60.06 -52.27, 68.75 -50 M44.56 -56.33 C49.61 -55.01, 54.65 -53.69, 68.75 -50" stroke="#f08c00" stroke-width="2" fill="none"></path></g></g><mask></mask><g transform="translate(626.25 198.94999999999982) rotate(0 22.24609375 11.5)"><text x="0" y="0" font-family="Helvetica, Segoe UI Emoji" font-size="20px" fill="#1971c2" text-anchor="start" style="white-space: pre;" direction="ltr" dominant-baseline="text-before-edge">node</text></g><g stroke-linecap="round"><g transform="translate(547.5 215) rotate(0 -33.125 69.94984555741166)"><path d="M0 0 C-1.25 15.63, 3.54 70.43, -7.5 93.75 C-18.54 117.07, -56.46 132.21, -66.25 139.9 M0 0 C-1.25 15.63, 3.54 70.43, -7.5 93.75 C-18.54 117.07, -56.46 132.21, -66.25 139.9" stroke="#f08c00" stroke-width="2" fill="none"></path></g><g transform="translate(547.5 215) rotate(0 -33.125 69.94984555741166)"><path d="M-50.51 120.48 C-56.75 128.19, -63 135.89, -66.25 139.9 M-50.51 120.48 C-56.69 128.1, -62.87 135.73, -66.25 139.9" stroke="#f08c00" stroke-width="2" fill="none"></path></g><g transform="translate(547.5 215) rotate(0 -33.125 69.94984555741166)"><path d="M-41.71 135.14 C-51.45 137.03, -61.18 138.92, -66.25 139.9 M-41.71 135.14 C-51.34 137.01, -60.98 138.88, -66.25 139.9" stroke="#f08c00" stroke-width="2" fill="none"></path></g></g><mask></mask><g stroke-linecap="round"><g transform="translate(481.25 323.84846053658293) rotate(0 19.375 -53.79923026829147)"><path d="M0 0 C6.46 -8.77, 33.13 -34.67, 38.75 -52.6 C44.38 -70.53, 34.58 -98.43, 33.75 -107.6" stroke="#f08c00" stroke-width="2.5" fill="none" stroke-dasharray="8 10"></path></g><g transform="translate(481.25 323.84846053658293) rotate(0 19.375 -53.79923026829147)"><path d="M46.75 -86.24 C43.43 -91.7, 40.1 -97.16, 33.75 -107.6" stroke="#f08c00" stroke-width="2.5" fill="none"></path></g><g transform="translate(481.25 323.84846053658293) rotate(0 19.375 -53.79923026829147)"><path d="M29.98 -82.88 C30.94 -89.2, 31.91 -95.52, 33.75 -107.6" stroke="#f08c00" stroke-width="2.5" fill="none"></path></g></g><mask></mask><g transform="translate(660 395.1999999999998) rotate(0 29.453125 11.5)"><text x="0" y="0" font-family="Helvetica, Segoe UI Emoji" font-size="20px" fill="#1971c2" text-anchor="start" style="white-space: pre;" direction="ltr" dominant-baseline="text-before-edge">cluster</text></g><g transform="translate(531.41015625 325.7999999999993) rotate(0 83.58984375 9.199999999999818)"><text x="0" y="0" font-family="Helvetica, Segoe UI Emoji" font-size="16px" fill="#1971c2" text-anchor="start" style="white-space: pre;" direction="ltr" dominant-baseline="text-before-edge">DeltaDiscoveryRequest</text></g><g transform="translate(361.43359375 252.04999999999927) rotate(0 89.81640625 9.199999999999818)"><text x="0" y="0" font-family="Helvetica, Segoe UI Emoji" font-size="16px" fill="#1971c2" text-anchor="start" style="white-space: pre;" direction="ltr" dominant-baseline="text-before-edge">DeltaDiscoveryResponse</text></g><g transform="translate(100 265) rotate(0 5.4499969482421875 12.5)"><text x="0" y="0" font-family="Virgil, Segoe UI Emoji" font-size="20px" fill="#e03131" text-anchor="start" style="white-space: pre;" direction="ltr" dominant-baseline="text-before-edge">1.</text></g><g transform="translate(112.5 111.25) rotate(0 9.859992980957031 12.5)"><text x="0" y="0" font-family="Virgil, Segoe UI Emoji" font-size="20px" fill="#e03131" text-anchor="start" style="white-space: pre;" direction="ltr" dominant-baseline="text-before-edge">2.</text></g><g transform="translate(497.64000701904297 123.75) rotate(0 9.859992980957031 12.5)"><text x="0" y="0" font-family="Virgil, Segoe UI Emoji" font-size="20px" fill="#e03131" text-anchor="start" style="white-space: pre;" direction="ltr" dominant-baseline="text-before-edge">2.</text></g><g transform="translate(555.8000030517578 273.75) rotate(0 5.4499969482421875 12.5)"><text x="0" y="0" font-family="Virgil, Segoe UI Emoji" font-size="20px" fill="#e03131" text-anchor="start" style="white-space: pre;" direction="ltr" dominant-baseline="text-before-edge">1.</text></g></svg>