<svg version="1.1" xmlns="http://www.w3.org/2000/svg" viewBox="0 0 920.4285714285706 509.2816935077244" width="920.4285714285706" height="509.2816935077244">
  <!-- svg-source:excalidraw -->
  
  <defs>
    <style class="style-fonts">
      @font-face {
        font-family: "Virgil";
        src: url("https://excalidraw.com/Virgil.woff2");
      }
      @font-face {
        font-family: "Cascadia";
        src: url("https://excalidraw.com/Cascadia.woff2");
      }
      @font-face {
        font-family: "Assistant";
        src: url("https://excalidraw.com/Assistant-Regular.woff2");
      }
    </style>
    
  </defs>
  <rect x="0" y="0" width="920.4285714285706" height="509.2816935077244" fill="#ffffff"></rect><g transform="translate(31.580047607421875 259.7816935077244) rotate(0 65.43196105957031 30)"><text x="0" y="0" font-family="Virgil, Segoe UI Emoji" font-size="16px" fill="#1e1e1e" text-anchor="start" style="white-space: pre;" direction="ltr" dominant-baseline="text-before-edge">key: ip</text><text x="0" y="20" font-family="Virgil, Segoe UI Emoji" font-size="16px" fill="#1e1e1e" text-anchor="start" style="white-space: pre;" direction="ltr" dominant-baseline="text-before-edge">    service_port</text><text x="0" y="40" font-family="Virgil, Segoe UI Emoji" font-size="16px" fill="#1e1e1e" text-anchor="start" style="white-space: pre;" direction="ltr" dominant-baseline="text-before-edge">val: service_id</text></g><g stroke-linecap="round" transform="translate(28.496009826660156 218.7816935077244) rotate(0 62.5 15)"><path d="M7.5 0 C44.08 1.52, 81.82 0.69, 117.5 0 C124.74 -0.48, 127.65 -0.97, 125 7.5 C124.49 11.56, 122.8 18.5, 125 22.5 C123.38 29.22, 125.69 29.58, 117.5 30 C78.49 30.32, 42.06 27.55, 7.5 30 C1.67 32.61, 3.06 25.28, 0 22.5 C1.01 15.67, -1.31 9.64, 0 7.5 C-0.8 1.58, 3.31 0.45, 7.5 0" stroke="none" stroke-width="0" fill="#b2f2bb"></path><path d="M7.5 0 C50.89 -1.42, 88.99 -0.64, 117.5 0 M7.5 0 C35.11 0.54, 63.95 -0.69, 117.5 0 M117.5 0 C124.04 -0.77, 126.44 4.2, 125 7.5 M117.5 0 C123.47 0.4, 124.64 1.8, 125 7.5 M125 7.5 C126.23 12.79, 126.02 15.59, 125 22.5 M125 7.5 C125.29 11.29, 125.56 14.83, 125 22.5 M125 22.5 C124.85 28.79, 121.99 30.12, 117.5 30 M125 22.5 C125.23 27.82, 122.46 31.08, 117.5 30 M117.5 30 C79.56 30.18, 40.42 27.88, 7.5 30 M117.5 30 C82.33 28.97, 48.48 29.44, 7.5 30 M7.5 30 C3.98 29.68, 1.47 26.67, 0 22.5 M7.5 30 C3.4 29.38, 1.67 28.26, 0 22.5 M0 22.5 C0.2 19.01, -0.82 15.06, 0 7.5 M0 22.5 C0.53 18.35, 0.38 15.61, 0 7.5 M0 7.5 C0.9 1.42, 1.9 -1.19, 7.5 0 M0 7.5 C-2.12 1.68, 3.97 -0.7, 7.5 0" stroke="#1e1e1e" stroke-width="1" fill="none"></path></g><g transform="translate(58.31603240966797 223.7816935077244) rotate(0 32.67997741699219 10)"><text x="32.67997741699219" y="0" font-family="Virgil, Segoe UI Emoji" font-size="16px" fill="#1e1e1e" text-anchor="middle" style="white-space: pre;" direction="ltr" dominant-baseline="text-before-edge">frontend</text></g><g stroke-linecap="round" transform="translate(10 201.7816935077244) rotate(0 91 67.5)"><path d="M32 0 C55.6 -0.99, 81.9 0.1, 150 0 M32 0 C79.9 -0.11, 126.99 1.13, 150 0 M150 0 C172.18 0.35, 181.68 10.06, 182 32 M150 0 C171.43 -0.14, 182.4 12.57, 182 32 M182 32 C181.01 56.92, 183.87 82.18, 182 103 M182 32 C182.44 57.69, 182.27 82.15, 182 103 M182 103 C182.2 124.62, 171.3 135.94, 150 135 M182 103 C183.13 124.42, 170.88 135.53, 150 135 M150 135 C112.49 133.53, 73.76 132.04, 32 135 M150 135 C122.52 134.67, 94.28 134.41, 32 135 M32 135 C11.45 134.46, 1.46 125, 0 103 M32 135 C10.38 134.63, 0.1 124.61, 0 103 M0 103 C-0.66 76.34, 1 53.77, 0 32 M0 103 C0.2 85.36, -0.55 68.2, 0 32 M0 32 C-1.84 9.95, 11.95 -0.61, 32 0 M0 32 C1.24 11.78, 10.72 -1.51, 32 0" stroke="#1e1e1e" stroke-width="1" fill="none"></path></g><g transform="translate(46.40204620361328 450.2816935077244) rotate(0 76.46395874023438 20)"><text x="0" y="0" font-family="Virgil, Segoe UI Emoji" font-size="16px" fill="#1e1e1e" text-anchor="start" style="white-space: pre;" direction="ltr" dominant-baseline="text-before-edge">key: service_id</text><text x="0" y="20" font-family="Virgil, Segoe UI Emoji" font-size="16px" fill="#1e1e1e" text-anchor="start" style="white-space: pre;" direction="ltr" dominant-baseline="text-before-edge">val: endpoint_count</text></g><g stroke-linecap="round" transform="translate(43.496009826660156 411.2816935077244) rotate(0 62.5 15)"><path d="M7.5 0 C40.13 -0.13, 69.46 1.43, 117.5 0 C121.3 -2.73, 126.44 0.88, 125 7.5 C126.42 10.05, 123.82 17.03, 125 22.5 C126.36 27.67, 121.09 29.17, 117.5 30 C79.1 29.97, 32.65 30.25, 7.5 30 C0.82 28.37, -2.28 26.7, 0 22.5 C0.21 16.68, -0.83 16.29, 0 7.5 C-1.9 5.86, 5.63 -3.57, 7.5 0" stroke="none" stroke-width="0" fill="#b2f2bb"></path><path d="M7.5 0 C33.57 1.69, 55.19 1.83, 117.5 0 M7.5 0 C36.71 -0.76, 64.91 -1.24, 117.5 0 M117.5 0 C122.58 -0.12, 125.35 4.15, 125 7.5 M117.5 0 C123.61 1.58, 123.42 0.8, 125 7.5 M125 7.5 C125.9 13.24, 126.19 16.67, 125 22.5 M125 7.5 C125.04 13.07, 124.95 18.79, 125 22.5 M125 22.5 C125.98 27.57, 122.1 30.46, 117.5 30 M125 22.5 C125.46 27.16, 120.32 30.26, 117.5 30 M117.5 30 C85.22 27.93, 55.08 30.47, 7.5 30 M117.5 30 C86.65 29.27, 55.74 29.87, 7.5 30 M7.5 30 C2.25 29.68, 0.08 27.74, 0 22.5 M7.5 30 C3.75 28.71, 1.8 26.28, 0 22.5 M0 22.5 C-0.93 19.65, 1 16.41, 0 7.5 M0 22.5 C-0.65 18.54, 0.53 14.89, 0 7.5 M0 7.5 C1.08 3.47, 2.55 -1.31, 7.5 0 M0 7.5 C1 0.22, 2.98 1.43, 7.5 0" stroke="#1e1e1e" stroke-width="1" fill="none"></path></g><g transform="translate(79.50802612304688 416.2816935077244) rotate(0 26.48798370361328 10)"><text x="26.48798370361328" y="0" font-family="Virgil, Segoe UI Emoji" font-size="16px" fill="#1e1e1e" text-anchor="middle" style="white-space: pre;" direction="ltr" dominant-baseline="text-before-edge">service</text></g><g stroke-linecap="round" transform="translate(21 397.2816935077244) rotate(0 97.5 51)"><path d="M25.5 0 C78.05 0.33, 133.83 -0.27, 169.5 0 M25.5 0 C71.25 0.38, 117.09 1.26, 169.5 0 M169.5 0 C187.47 1.38, 193.62 7.02, 195 25.5 M169.5 0 C186.72 1.59, 195.83 9.71, 195 25.5 M195 25.5 C196.66 44.03, 195.49 63.78, 195 76.5 M195 25.5 C195.48 41.55, 194.79 57.77, 195 76.5 M195 76.5 C195.4 93.21, 184.6 102.23, 169.5 102 M195 76.5 C194.6 92.63, 184.38 100.6, 169.5 102 M169.5 102 C133.61 104.54, 97.53 103.85, 25.5 102 M169.5 102 C130.04 102.32, 90.87 102.6, 25.5 102 M25.5 102 C9.59 100.87, 1.57 92.44, 0 76.5 M25.5 102 C6.79 102.69, 1.27 92.14, 0 76.5 M0 76.5 C-1.44 58.78, -1.55 40.41, 0 25.5 M0 76.5 C0.21 63.51, -0.3 48.88, 0 25.5 M0 25.5 C0.87 6.52, 8.91 1.25, 25.5 0 M0 25.5 C-0.31 10.19, 6.29 0.7, 25.5 0" stroke="#1e1e1e" stroke-width="1" fill="none"></path></g><g transform="translate(693.9020462036133 221.0316935077244) rotate(0 71.49596405029297 30)"><text x="0" y="0" font-family="Virgil, Segoe UI Emoji" font-size="16px" fill="#1e1e1e" text-anchor="start" style="white-space: pre;" direction="ltr" dominant-baseline="text-before-edge">key: service_id</text><text x="0" y="20" font-family="Virgil, Segoe UI Emoji" font-size="16px" fill="#1e1e1e" text-anchor="start" style="white-space: pre;" direction="ltr" dominant-baseline="text-before-edge">    backend_index</text><text x="0" y="40" font-family="Virgil, Segoe UI Emoji" font-size="16px" fill="#1e1e1e" text-anchor="start" style="white-space: pre;" direction="ltr" dominant-baseline="text-before-edge">val: backend_uid</text></g><g stroke-linecap="round" transform="translate(696.7460098266602 172.0316935077244) rotate(0 62.5 15)"><path d="M7.5 0 C33.87 4.09, 56.38 2.46, 117.5 0 C118.95 -1.89, 123.79 3.86, 125 7.5 C126.85 14.36, 123.23 18.57, 125 22.5 C126.19 24.62, 123.97 28.32, 117.5 30 C88.56 30.37, 61.91 29.92, 7.5 30 C0.23 28.97, 2.69 25.6, 0 22.5 C-1.6 15.14, -0.13 8.49, 0 7.5 C-2.61 4.2, -0.82 0.14, 7.5 0" stroke="none" stroke-width="0" fill="#b2f2bb"></path><path d="M7.5 0 C48.76 -0.78, 88.72 -0.38, 117.5 0 M7.5 0 C40.33 -0.22, 71.5 -1.65, 117.5 0 M117.5 0 C122.69 1.38, 125.72 3.56, 125 7.5 M117.5 0 C124.19 1.67, 124.83 3.99, 125 7.5 M125 7.5 C125.22 11.59, 125.71 16.47, 125 22.5 M125 7.5 C125.12 11.94, 124.26 16.69, 125 22.5 M125 22.5 C124.65 26.74, 120.66 28.78, 117.5 30 M125 22.5 C123.78 27.17, 124.21 29.63, 117.5 30 M117.5 30 C75.85 31.88, 35.94 30.18, 7.5 30 M117.5 30 C86.81 29.57, 55.81 29.6, 7.5 30 M7.5 30 C1.01 30.6, 1.1 26.32, 0 22.5 M7.5 30 C3.32 31.6, 1.04 26.26, 0 22.5 M0 22.5 C-0.45 19.41, -0.37 15.2, 0 7.5 M0 22.5 C0.32 16.53, 0.15 12.51, 0 7.5 M0 7.5 C-0.27 3.97, 0.57 0.61, 7.5 0 M0 7.5 C-1.3 1.79, 2.2 -0.77, 7.5 0" stroke="#1e1e1e" stroke-width="1" fill="none"></path></g><g transform="translate(728.1980285644531 177.0316935077244) rotate(0 31.04798126220703 10)"><text x="31.04798126220703" y="0" font-family="Virgil, Segoe UI Emoji" font-size="16px" fill="#1e1e1e" text-anchor="middle" style="white-space: pre;" direction="ltr" dominant-baseline="text-before-edge">endpoint</text></g><g stroke-linecap="round" transform="translate(671.25 166.0316935077244) rotate(0 92 67)"><path d="M32 0 C65.99 0.3, 101.87 0.92, 152 0 M32 0 C76.36 1.58, 120.89 1.41, 152 0 M152 0 C174.8 1.45, 183.85 11.96, 184 32 M152 0 C172.75 0.14, 184.23 10.99, 184 32 M184 32 C184.4 52.5, 184.79 74.18, 184 102 M184 32 C183.16 51.6, 182.41 71.35, 184 102 M184 102 C182.94 123.04, 174.82 133.68, 152 134 M184 102 C185.7 122.38, 174.23 133.38, 152 134 M152 134 C106.95 133.93, 62.78 134.94, 32 134 M152 134 C122.01 133.66, 94.06 132.77, 32 134 M32 134 C11.38 135.39, 0.9 122.25, 0 102 M32 134 C9.98 132.63, -2.12 122.51, 0 102 M0 102 C1.18 76.56, -1.1 51.9, 0 32 M0 102 C-0.28 88.68, -1.11 74.19, 0 32 M0 32 C-1.13 10.05, 10.4 -0.67, 32 0 M0 32 C-1.75 11.59, 9.63 1.1, 32 0" stroke="#1e1e1e" stroke-width="1" fill="none"></path></g><g stroke-linecap="round" transform="translate(359.49600982666016 10) rotate(0 62.5 15)"><path d="M7.5 0 C51.06 2.41, 86.58 2.69, 117.5 0 C120.82 -1.63, 122.72 1.7, 125 7.5 C125.33 9.91, 124.29 17.75, 125 22.5 C123.1 30.86, 125.63 26.43, 117.5 30 C87.1 27.47, 64.29 26.75, 7.5 30 C2.64 27.87, -0.02 25.1, 0 22.5 C-0.92 15.11, 1.76 8.67, 0 7.5 C1.48 2.36, 4.17 -2.33, 7.5 0" stroke="none" stroke-width="0" fill="#ffec99"></path><path d="M7.5 0 C42.61 1.07, 77.06 -0.55, 117.5 0 M7.5 0 C47.71 0.08, 87.7 0.4, 117.5 0 M117.5 0 C123.48 0.07, 124.6 2.96, 125 7.5 M117.5 0 C122.96 -0.34, 122.82 2.76, 125 7.5 M125 7.5 C124.03 10.94, 124.73 17.09, 125 22.5 M125 7.5 C125.4 11.56, 125.66 16.27, 125 22.5 M125 22.5 C124.75 27.18, 122.58 30.24, 117.5 30 M125 22.5 C126.25 26.21, 124.3 28.78, 117.5 30 M117.5 30 C91.5 31.32, 69.27 31.51, 7.5 30 M117.5 30 C89.53 28.99, 64.05 29.04, 7.5 30 M7.5 30 C3.58 30.97, 0.05 26.19, 0 22.5 M7.5 30 C3.5 27.72, 0.48 28.93, 0 22.5 M0 22.5 C0.35 17.35, -0.57 13.7, 0 7.5 M0 22.5 C-0.22 18.86, 0.78 14.41, 0 7.5 M0 7.5 C0.87 0.53, 1.45 -0.67, 7.5 0 M0 7.5 C0.87 2.61, 1.6 -0.53, 7.5 0" stroke="#1e1e1e" stroke-width="1" fill="none"></path></g><g transform="translate(367.20404052734375 15) rotate(0 54.791969299316406 10)"><text x="54.791969299316406" y="0" font-family="Virgil, Segoe UI Emoji" font-size="16px" fill="#1e1e1e" text-anchor="middle" style="white-space: pre;" direction="ltr" dominant-baseline="text-before-edge">service_cache</text></g><g stroke-linecap="round" transform="translate(335.25 58.75) rotate(0 85.5 59)"><path d="M29.5 0 C72.6 -0.42, 113.24 0.28, 141.5 0 M29.5 0 C65.17 -0.49, 99.66 -0.3, 141.5 0 M141.5 0 C161.56 -0.29, 169.1 10.06, 171 29.5 M141.5 0 C160.76 -0.87, 168.88 8.44, 171 29.5 M171 29.5 C170.6 45.55, 170.08 59.42, 171 88.5 M171 29.5 C171.3 45.46, 171.47 61.85, 171 88.5 M171 88.5 C172.09 107.04, 162.73 116.94, 141.5 118 M171 88.5 C169.29 108.85, 162.44 116.64, 141.5 118 M141.5 118 C102.81 117.91, 65.1 116.66, 29.5 118 M141.5 118 C112.44 118.14, 82.32 117, 29.5 118 M29.5 118 C10.7 116.02, 0.41 109.41, 0 88.5 M29.5 118 C9.53 119.69, -2.21 108.87, 0 88.5 M0 88.5 C-0.49 72.62, 0.98 58.88, 0 29.5 M0 88.5 C-0.09 67, -1.05 47.13, 0 29.5 M0 29.5 C0.76 9.93, 9.05 -0.46, 29.5 0 M0 29.5 C1.67 11.79, 8.42 1.65, 29.5 0" stroke="#1e1e1e" stroke-width="1" fill="none"></path></g><g stroke-linecap="round" transform="translate(357.75 127) rotate(0 62.5 15)"><path d="M7.5 0 C42.7 0.1, 81.54 1.7, 117.5 0 C122.95 0.36, 122.73 1.47, 125 7.5 C127.2 10.44, 123.5 17.28, 125 22.5 C125.14 24.55, 119.89 31.7, 117.5 30 C94.64 26.43, 74.9 28.84, 7.5 30 C4.48 28.78, -2.14 29.85, 0 22.5 C1.14 17.51, -1.64 14.11, 0 7.5 C0.14 -0.57, 2.8 2.44, 7.5 0" stroke="none" stroke-width="0" fill="#ffec99"></path><path d="M7.5 0 C39.78 0.48, 72.11 0.25, 117.5 0 M7.5 0 C45.48 0.19, 84.05 -0.19, 117.5 0 M117.5 0 C120.6 0.23, 124.65 1.74, 125 7.5 M117.5 0 C120.38 -1.4, 123.78 2.17, 125 7.5 M125 7.5 C124.35 13.7, 124.57 19.82, 125 22.5 M125 7.5 C125.01 12.59, 125.39 17.07, 125 22.5 M125 22.5 C126.57 26.44, 121.01 30.6, 117.5 30 M125 22.5 C126.27 26.14, 123.32 31.6, 117.5 30 M117.5 30 C78.35 27.83, 40.88 30.95, 7.5 30 M117.5 30 C87.88 29.88, 58.64 29.54, 7.5 30 M7.5 30 C2.91 31.25, -0.27 28.97, 0 22.5 M7.5 30 C0.29 30.7, -1.3 26.79, 0 22.5 M0 22.5 C0.65 17.52, 0.77 15.23, 0 7.5 M0 22.5 C-0.46 17.92, 0.22 13.88, 0 7.5 M0 7.5 C-0.78 2.04, 3.95 1.7, 7.5 0 M0 7.5 C-1.42 4.15, 3.26 -1.84, 7.5 0" stroke="#1e1e1e" stroke-width="1" fill="none"></path></g><g transform="translate(389.20201873779297 132) rotate(0 31.04798126220703 10)"><text x="31.04798126220703" y="0" font-family="Virgil, Segoe UI Emoji" font-size="16px" fill="#1e1e1e" text-anchor="middle" style="white-space: pre;" direction="ltr" dominant-baseline="text-before-edge">endpoint</text></g><g stroke-linecap="round" transform="translate(357.25 77) rotate(0 62.5 15)"><path d="M7.5 0 C38.51 -0.09, 66.36 -1.47, 117.5 0 C125.19 -1.9, 128.36 5.63, 125 7.5 C124.97 8.3, 122.91 14.8, 125 22.5 C121.68 27.64, 120.37 29.98, 117.5 30 C93.81 28.78, 64.02 32.35, 7.5 30 C-0.52 31.48, -0.14 29.17, 0 22.5 C0.26 16.67, 0.38 17.28, 0 7.5 C-1.89 -0.86, -0.34 -0.39, 7.5 0" stroke="none" stroke-width="0" fill="#ffec99"></path><path d="M7.5 0 C42.54 1, 75.77 -0.38, 117.5 0 M7.5 0 C42.09 0.27, 78.4 -0.22, 117.5 0 M117.5 0 C120.66 -1.22, 123.94 2.21, 125 7.5 M117.5 0 C124.21 -0.37, 126.7 1.54, 125 7.5 M125 7.5 C125.46 12.39, 124.72 17.73, 125 22.5 M125 7.5 C125.67 11.78, 124.52 17.08, 125 22.5 M125 22.5 C126.1 26.32, 123.22 31.39, 117.5 30 M125 22.5 C126.04 26.26, 121.82 28.63, 117.5 30 M117.5 30 C94.02 31.79, 72.73 30.76, 7.5 30 M117.5 30 C91.92 29.53, 65.8 29.65, 7.5 30 M7.5 30 C0.57 30.61, -1.13 26.89, 0 22.5 M7.5 30 C2.2 29.23, -1.75 28.42, 0 22.5 M0 22.5 C-0.25 19.33, -1.55 14.06, 0 7.5 M0 22.5 C-0.35 18.33, 0.49 15.14, 0 7.5 M0 7.5 C-1.23 3.93, 3.16 -1.6, 7.5 0 M0 7.5 C0.94 1.43, 1.46 -1.46, 7.5 0" stroke="#1e1e1e" stroke-width="1" fill="none"></path></g><g transform="translate(393.2620162963867 82) rotate(0 26.48798370361328 10)"><text x="26.48798370361328" y="0" font-family="Virgil, Segoe UI Emoji" font-size="16px" fill="#1e1e1e" text-anchor="middle" style="white-space: pre;" direction="ltr" dominant-baseline="text-before-edge">service</text></g><g transform="translate(287.3900375366211 217.25) rotate(0 171.06988525390625 75)"><text x="0" y="0" font-family="Virgil, Segoe UI Emoji" font-size="20px" fill="#1e1e1e" text-anchor="start" style="white-space: pre;" direction="ltr" dominant-baseline="text-before-edge">new workload info</text><text x="0" y="25" font-family="Virgil, Segoe UI Emoji" font-size="20px" fill="#1e1e1e" text-anchor="start" style="white-space: pre;" direction="ltr" dominant-baseline="text-before-edge">1. have service info</text><text x="0" y="50" font-family="Virgil, Segoe UI Emoji" font-size="20px" fill="#1e1e1e" text-anchor="start" style="white-space: pre;" direction="ltr" dominant-baseline="text-before-edge">    a. service exist  </text><text x="0" y="75" font-family="Virgil, Segoe UI Emoji" font-size="20px" fill="#1e1e1e" text-anchor="start" style="white-space: pre;" direction="ltr" dominant-baseline="text-before-edge">    b. service not exist</text><text x="0" y="100" font-family="Virgil, Segoe UI Emoji" font-size="20px" fill="#1e1e1e" text-anchor="start" style="white-space: pre;" direction="ltr" dominant-baseline="text-before-edge">        cache service and endpoint</text><text x="0" y="125" font-family="Virgil, Segoe UI Emoji" font-size="20px" fill="#1e1e1e" text-anchor="start" style="white-space: pre;" direction="ltr" dominant-baseline="text-before-edge">2. not have service</text></g><g transform="translate(117.30892166375725 52.225000000000364) rotate(0 56.1376953125 11.5)"><text x="0" y="0" font-family="Helvetica, Segoe UI Emoji" font-size="20px" fill="#1971c2" text-anchor="start" style="white-space: pre;" direction="ltr" dominant-baseline="text-before-edge">new process</text></g><g transform="translate(293.9451599121094 389.875) rotate(0 174.17984008789062 37.5)"><text x="0" y="0" font-family="Virgil, Segoe UI Emoji" font-size="20px" fill="#1e1e1e" text-anchor="start" style="white-space: pre;" direction="ltr" dominant-baseline="text-before-edge">new service</text><text x="0" y="25" font-family="Virgil, Segoe UI Emoji" font-size="20px" fill="#1e1e1e" text-anchor="start" style="white-space: pre;" direction="ltr" dominant-baseline="text-before-edge">1.associate ip、port with service_id</text><text x="0" y="50" font-family="Virgil, Segoe UI Emoji" font-size="20px" fill="#1e1e1e" text-anchor="start" style="white-space: pre;" direction="ltr" dominant-baseline="text-before-edge">2.process service_cache</text></g><g stroke-linecap="round"><g transform="translate(491.125 276.375) rotate(0 89.5 -22.928834148644455)"><path d="M-0.55 -1.07 C29.39 -8.73, 149.47 -37.37, 179.57 -44.99 M1.37 0.98 C31.2 -7.1, 149.17 -38.83, 178.92 -46.66" stroke="#2f9e44" stroke-width="1" fill="none"></path></g><g transform="translate(491.125 276.375) rotate(0 89.5 -22.928834148644455)"><path d="M158.42 -32.35 C162.57 -35.53, 171.85 -38.94, 178.92 -46.66 M158.42 -32.35 C163.63 -36.02, 166.91 -39.01, 178.92 -46.66" stroke="#2f9e44" stroke-width="1" fill="none"></path></g><g transform="translate(491.125 276.375) rotate(0 89.5 -22.928834148644455)"><path d="M154.02 -48.87 C159.6 -47.16, 170.18 -45.68, 178.92 -46.66 M154.02 -48.87 C160.24 -48.88, 164.49 -48.24, 178.92 -46.66" stroke="#2f9e44" stroke-width="1" fill="none"></path></g></g><mask></mask><g stroke-linecap="round"><g transform="translate(353.125 327.375) rotate(0 -46 -81.685390725675)"><path d="M-0.19 1.11 C-15.59 -10.98, -88.41 -45.33, -91.89 -72.78 C-95.38 -100.24, -33.14 -148.4, -21.11 -163.62 M-1.74 0.64 C-17.35 -11.82, -89.38 -47.61, -92.78 -74.79 C-96.18 -101.97, -34.44 -147.66, -22.14 -162.43" stroke="#2f9e44" stroke-width="1" fill="none"></path></g><g transform="translate(353.125 327.375) rotate(0 -46 -81.685390725675)"><path d="M-33.26 -140.04 C-27.52 -147.6, -25.15 -156.38, -22.14 -162.43 M-33.26 -140.04 C-31.11 -145.29, -26.64 -152.57, -22.14 -162.43" stroke="#2f9e44" stroke-width="1" fill="none"></path></g><g transform="translate(353.125 327.375) rotate(0 -46 -81.685390725675)"><path d="M-45.05 -152.43 C-35.25 -155.67, -28.8 -160.17, -22.14 -162.43 M-45.05 -152.43 C-39.52 -154.14, -31.75 -157.97, -22.14 -162.43" stroke="#2f9e44" stroke-width="1" fill="none"></path></g></g><mask></mask><g stroke-linecap="round"><g transform="translate(323.125 280.375) rotate(0 -78.87545713957297 56.453346753862206)"><path d="M-0.12 0.78 C-26.66 19.6, -131.71 94.49, -158.14 113.3 M-1.64 0.14 C-28.48 18.56, -133.51 92.8, -159.3 111.39" stroke="#2f9e44" stroke-width="1" fill="none"></path></g><g transform="translate(323.125 280.375) rotate(0 -78.87545713957297 56.453346753862206)"><path d="M-145.12 90.79 C-149.36 98.25, -155.58 105.38, -159.3 111.39 M-145.12 90.79 C-150.13 97.64, -155.89 106.49, -159.3 111.39" stroke="#2f9e44" stroke-width="1" fill="none"></path></g><g transform="translate(323.125 280.375) rotate(0 -78.87545713957297 56.453346753862206)"><path d="M-135.2 104.72 C-143.39 106.67, -153.53 108.32, -159.3 111.39 M-135.2 104.72 C-143.74 106.64, -153.06 110.48, -159.3 111.39" stroke="#2f9e44" stroke-width="1" fill="none"></path></g></g><mask></mask><g stroke-linecap="round"><g transform="translate(487.125 358.375) rotate(0 87.87500000000023 16.645516856067843)"><path d="M0.32 -0.08 C29.87 5.49, 147.38 27.25, 176.44 32.93 M-0.97 -1.17 C28.55 4.62, 146.2 28.75, 175.86 34.28" stroke="#2f9e44" stroke-width="1" fill="none"></path></g><g transform="translate(487.125 358.375) rotate(0 87.87500000000023 16.645516856067843)"><path d="M151.16 38.13 C156.75 38.33, 161.98 34.5, 175.86 34.28 M151.16 38.13 C159.77 37.39, 168.99 35.55, 175.86 34.28" stroke="#2f9e44" stroke-width="1" fill="none"></path></g><g transform="translate(487.125 358.375) rotate(0 87.87500000000023 16.645516856067843)"><path d="M154.46 21.35 C159.22 25.43, 163.69 25.48, 175.86 34.28 M154.46 21.35 C162.03 26.61, 170.07 30.79, 175.86 34.28" stroke="#2f9e44" stroke-width="1" fill="none"></path></g></g><mask></mask><g stroke-linecap="round"><g transform="translate(295.125 426.7322921283012) rotate(0 -56.543861890580956 -43.09967151441742)"><path d="M-0.27 0.54 C-6.03 -3.3, -14.82 -9.1, -33.61 -23.46 C-52.41 -37.82, -99.91 -74.96, -113.01 -85.62 M1.79 -0.23 C-4.18 -3.92, -15.11 -7.93, -34.36 -22.5 C-53.61 -37.07, -100.88 -76.92, -113.74 -87.65" stroke="#2f9e44" stroke-width="1" fill="none"></path></g><g transform="translate(295.125 426.7322921283012) rotate(0 -56.543861890580956 -43.09967151441742)"><path d="M-90.23 -79.13 C-98.26 -81.79, -109.94 -85.55, -113.74 -87.65 M-90.23 -79.13 C-99.38 -82.88, -106.57 -85.35, -113.74 -87.65" stroke="#2f9e44" stroke-width="1" fill="none"></path></g><g transform="translate(295.125 426.7322921283012) rotate(0 -56.543861890580956 -43.09967151441742)"><path d="M-101.21 -66.02 C-105.01 -73.64, -112.51 -82.4, -113.74 -87.65 M-101.21 -66.02 C-106.63 -74.23, -109.99 -81.26, -113.74 -87.65" stroke="#2f9e44" stroke-width="1" fill="none"></path></g></g><mask></mask><g stroke-linecap="round"><g transform="translate(291.9451599121094 453.24600118141825) rotate(0 -16.320159912109375 -164.57334703801143)"><path d="M1.05 1.16 C-11.27 -33.48, -80.7 -152.15, -73.67 -207.22 C-66.63 -262.29, 24.11 -308.96, 43.27 -329.26 M0.15 0.72 C-12.25 -33.8, -81.16 -151.08, -74.01 -205.87 C-66.86 -260.65, 23.9 -307.67, 43.07 -328.01" stroke="#2f9e44" stroke-width="1" fill="none"></path></g><g transform="translate(291.9451599121094 453.24600118141825) rotate(0 -16.320159912109375 -164.57334703801143)"><path d="M29.69 -306.89 C35.83 -311.89, 37.62 -318.81, 43.07 -328.01 M29.69 -306.89 C33.32 -313.79, 37.27 -319.45, 43.07 -328.01" stroke="#2f9e44" stroke-width="1" fill="none"></path></g><g transform="translate(291.9451599121094 453.24600118141825) rotate(0 -16.320159912109375 -164.57334703801143)"><path d="M19.25 -320.43 C28.82 -321.16, 33.98 -323.71, 43.07 -328.01 M19.25 -320.43 C25.8 -323.41, 32.78 -325.14, 43.07 -328.01" stroke="#2f9e44" stroke-width="1" fill="none"></path></g></g><mask></mask><g stroke-linecap="round"><g transform="translate(631.125 332.8692523658574) rotate(0 16.875 16.53349840512692)"><path d="M0.44 0.02 C6.3 5.8, 28.67 28.4, 34.33 34.03 M-0.79 -1.02 C5.04 4.5, 27.89 26.94, 33.69 32.41" stroke="#2f9e44" stroke-width="1" fill="none"></path></g><g transform="translate(631.125 332.8692523658574) rotate(0 16.875 16.53349840512692)"><path d="M12.1 22.81 C17.07 25.92, 23.63 28.29, 33.69 32.41 M12.1 22.81 C20.12 27.18, 28.23 30.04, 33.69 32.41" stroke="#2f9e44" stroke-width="1" fill="none"></path></g><g transform="translate(631.125 332.8692523658574) rotate(0 16.875 16.53349840512692)"><path d="M23.32 11.18 C25.64 17.02, 29.6 22.08, 33.69 32.41 M23.32 11.18 C27.42 19.64, 31.51 26.67, 33.69 32.41" stroke="#2f9e44" stroke-width="1" fill="none"></path></g></g><mask></mask><g transform="translate(716.4245812552308 375.6488095238092) rotate(0 89.51994323730469 50)"><text x="0" y="0" font-family="Virgil, Segoe UI Emoji" font-size="16px" fill="#1e1e1e" text-anchor="start" style="white-space: pre;" direction="ltr" dominant-baseline="text-before-edge">key: backend_uid</text><text x="0" y="20" font-family="Virgil, Segoe UI Emoji" font-size="16px" fill="#1e1e1e" text-anchor="start" style="white-space: pre;" direction="ltr" dominant-baseline="text-before-edge">val: ip</text><text x="0" y="40" font-family="Virgil, Segoe UI Emoji" font-size="16px" fill="#1e1e1e" text-anchor="start" style="white-space: pre;" direction="ltr" dominant-baseline="text-before-edge">    count</text><text x="0" y="60" font-family="Virgil, Segoe UI Emoji" font-size="16px" fill="#1e1e1e" text-anchor="start" style="white-space: pre;" direction="ltr" dominant-baseline="text-before-edge">    service_port[MAX]</text><text x="0" y="80" font-family="Virgil, Segoe UI Emoji" font-size="16px" fill="#1e1e1e" text-anchor="start" style="white-space: pre;" direction="ltr" dominant-baseline="text-before-edge">    target_port[MAX]</text></g><g stroke-linecap="round" transform="translate(707.1745812552308 340.3988095238092) rotate(0 62.5 15)"><path d="M7.5 0 C29.67 -2.16, 61.08 0.86, 117.5 0 C122.24 0.87, 127.7 0.88, 125 7.5 C125.45 12.95, 127.28 12.22, 125 22.5 C124.42 27.06, 123.59 27.87, 117.5 30 C78.97 29.4, 45.2 31.19, 7.5 30 C0.45 28.6, 0.3 26.98, 0 22.5 C0.7 20.1, -2.62 15.66, 0 7.5 C0.27 3.6, -0.31 -0.28, 7.5 0" stroke="none" stroke-width="0" fill="#b2f2bb"></path><path d="M7.5 0 C35.37 -1.86, 59.64 0.96, 117.5 0 M7.5 0 C30.72 -0.38, 54.52 -0.8, 117.5 0 M117.5 0 C124.42 -1.46, 124.34 2.74, 125 7.5 M117.5 0 C120.44 0.33, 125.24 3.85, 125 7.5 M125 7.5 C125.91 11.88, 126.17 18.11, 125 22.5 M125 7.5 C125.01 13.05, 124.55 18.35, 125 22.5 M125 22.5 C125.66 26.75, 121.97 31.03, 117.5 30 M125 22.5 C125.62 26.44, 122.06 28.62, 117.5 30 M117.5 30 C82.01 32.07, 44.88 30.37, 7.5 30 M117.5 30 C89.98 31.38, 60.56 31, 7.5 30 M7.5 30 C2.12 28.53, 0.17 28.45, 0 22.5 M7.5 30 C3.06 29.83, 0.42 29.33, 0 22.5 M0 22.5 C0.68 16.86, -0.47 9.48, 0 7.5 M0 22.5 C-0.22 19.82, -0.52 16.43, 0 7.5 M0 7.5 C-1.52 2.15, 1.2 -1.31, 7.5 0 M0 7.5 C-1.31 1.07, 3.46 1.3, 7.5 0" stroke="#1e1e1e" stroke-width="1" fill="none"></path></g><g transform="translate(739.6985985892152 345.3988095238092) rotate(0 29.975982666015625 10)"><text x="29.975982666015625" y="0" font-family="Virgil, Segoe UI Emoji" font-size="16px" fill="#1e1e1e" text-anchor="middle" style="white-space: pre;" direction="ltr" dominant-baseline="text-before-edge">backend</text></g><g stroke-linecap="round" transform="translate(683.1785714285706 330.3988095238092) rotate(0 113.625 77.25)"><path d="M32 0 C70.13 -1.01, 112.77 -1.73, 195.25 0 M32 0 C84.99 -0.35, 135.73 0.5, 195.25 0 M195.25 0 C214.79 0.29, 227.46 11.84, 227.25 32 M195.25 0 C217.97 -2.1, 228.71 12.27, 227.25 32 M227.25 32 C228.99 54.15, 229.59 73.72, 227.25 122.5 M227.25 32 C226.93 62.78, 226.34 94.84, 227.25 122.5 M227.25 122.5 C227.79 142.91, 216.2 153.3, 195.25 154.5 M227.25 122.5 C227.98 144.32, 218.54 155.64, 195.25 154.5 M195.25 154.5 C136.13 155.29, 79.6 155.53, 32 154.5 M195.25 154.5 C131.36 154.62, 67.94 155.83, 32 154.5 M32 154.5 C11.15 154.35, 0.37 145.43, 0 122.5 M32 154.5 C12.75 156.03, -1.16 145.03, 0 122.5 M0 122.5 C-1.45 93.68, 0.15 64.95, 0 32 M0 122.5 C-0.09 88.3, 0.01 53.81, 0 32 M0 32 C-1.14 9.43, 11.5 1.13, 32 0 M0 32 C-1.51 12.86, 11.41 -2.29, 32 0" stroke="#1e1e1e" stroke-width="1" fill="none"></path></g></svg>