<svg id="SvgjsSvg1122" width="461" height="213" xmlns="http://www.w3.org/2000/svg" version="1.1" xmlns:xlink="http://www.w3.org/1999/xlink" xmlns:svgjs="http://svgjs.com/svgjs"><defs id="SvgjsDefs1123"><pattern patternUnits="userSpaceOnUse" id="pattern_mark_0" width="300" height="300"><text x="150" y="100" fill="rgba(229,229,229,0.8)" font-size="18" transform="rotate(-45, 150, 150)" style="dominant-baseline: middle; text-anchor: middle;"></text></pattern><pattern patternUnits="userSpaceOnUse" id="pattern_mark_1" width="300" height="300"><text x="150" y="200" fill="rgba(229,229,229,0.8)" font-size="18" transform="rotate(-45, 150, 150)" style="dominant-baseline: middle; text-anchor: middle;"></text></pattern><marker id="SvgjsMarker1153" markerWidth="13" markerHeight="9" refX="9.5" refY="4.5" viewBox="0 0 13 9" orient="auto" markerUnits="userSpaceOnUse" stroke-dasharray="0,0"><path id="SvgjsPath1154" d="M0,0 L13,4.5 L0,9 L0,0" fill="#323232" stroke="#323232" stroke-width="1"></path></marker><marker id="SvgjsMarker1157" markerWidth="13" markerHeight="9" refX="9.5" refY="4.5" viewBox="0 0 13 9" orient="auto" markerUnits="userSpaceOnUse" stroke-dasharray="0,0"><path id="SvgjsPath1158" d="M0,0 L13,4.5 L0,9 L0,0" fill="#323232" stroke="#323232" stroke-width="1"></path></marker><marker id="SvgjsMarker1161" markerWidth="13" markerHeight="9" refX="9.5" refY="4.5" viewBox="0 0 13 9" orient="auto" markerUnits="userSpaceOnUse" stroke-dasharray="0,0"><path id="SvgjsPath1162" d="M0,0 L13,4.5 L0,9 L0,0" fill="#323232" stroke="#323232" stroke-width="1"></path></marker><marker id="SvgjsMarker1165" markerWidth="13" markerHeight="9" refX="9.5" refY="4.5" viewBox="0 0 13 9" orient="auto" markerUnits="userSpaceOnUse" stroke-dasharray="0,0"><path id="SvgjsPath1166" d="M0,0 L13,4.5 L0,9 L0,0" fill="#7985ec" stroke="#7985ec" stroke-width="1"></path></marker><marker id="SvgjsMarker1169" markerWidth="13" markerHeight="9" refX="9.5" refY="4.5" viewBox="0 0 13 9" orient="auto" markerUnits="userSpaceOnUse" stroke-dasharray="0,0"><path id="SvgjsPath1170" d="M0,0 L13,4.5 L0,9 L0,0" fill="#7985ec" stroke="#7985ec" stroke-width="1"></path></marker><marker id="SvgjsMarker1179" markerWidth="13" markerHeight="9" refX="9.5" refY="4.5" viewBox="0 0 13 9" orient="auto" markerUnits="userSpaceOnUse" stroke-dasharray="0,0"><path id="SvgjsPath1180" d="M0,0 L13,4.5 L0,9 L0,0" fill="#7985ec" stroke="#7985ec" stroke-width="1"></path></marker></defs><rect id="svgbackgroundid" width="461" height="213" fill="transparent"></rect><rect id="SvgjsRect1125" width="461" height="213" fill="url(#pattern_mark_0)"></rect><rect id="SvgjsRect1126" width="461" height="213" fill="url(#pattern_mark_1)"></rect><g id="SvgjsG1127" transform="translate(25,25)"><path id="SvgjsPath1128" d="M 0 4Q 0 0 4 0L 362 0Q 366 0 366 4L 366 159Q 366 163 362 163L 4 163Q 0 163 0 159Z" stroke="rgba(33,41,48,1)" stroke-width="1.5" fill-opacity="1" fill="#ffffff"></path><g id="SvgjsG1129"><text id="SvgjsText1130" font-family="微软雅黑" text-anchor="middle" font-size="13px" width="356px" fill="#323232" font-weight="400" align="middle" lineHeight="125%" anchor="middle" family="微软雅黑" size="13px" weight="400" font-style="" opacity="1" y="2.0178571428571423" transform="rotate(0)"><tspan id="SvgjsTspan1131" dy="16.25" x="183"><tspan id="SvgjsTspan1132" style="">pod1</tspan></tspan></text></g></g><g id="SvgjsG1133" transform="translate(41.5,66)"><path id="SvgjsPath1134" d="M 0 0L 78.5 0L 78.5 31L 0 31Z" stroke="rgba(33,41,48,1)" stroke-width="1.5" fill-opacity="1" fill="#ffffff"></path><g id="SvgjsG1135"><text id="SvgjsText1136" font-family="微软雅黑" text-anchor="middle" font-size="13px" width="59px" fill="#323232" font-weight="400" align="middle" lineHeight="125%" anchor="middle" family="微软雅黑" size="13px" weight="400" font-style="" opacity="1" y="4.875" transform="rotate(0)"><tspan id="SvgjsTspan1137" dy="16.25" x="39.5"><tspan id="SvgjsTspan1138" style="">service A</tspan></tspan></text></g></g><g id="SvgjsG1139" transform="translate(162,66)"><path id="SvgjsPath1140" d="M 0 0L 73 0L 73 31L 0 31Z" stroke="rgba(33,41,48,1)" stroke-width="1.5" fill-opacity="1" fill="#ffffff"></path><g id="SvgjsG1141"><text id="SvgjsText1142" font-family="微软雅黑" text-anchor="middle" font-size="13px" width="53px" fill="#323232" font-weight="400" align="middle" lineHeight="125%" anchor="middle" family="微软雅黑" size="13px" weight="400" font-style="" opacity="1" y="4.875" transform="rotate(0)"><tspan id="SvgjsTspan1143" dy="16.25" x="36.5"><tspan id="SvgjsTspan1144" style="">iptables</tspan></tspan></text></g></g><g id="SvgjsG1145" transform="translate(271,66)"><path id="SvgjsPath1146" d="M 0 0L 73 0L 73 31L 0 31Z" stroke="rgba(33,41,48,1)" stroke-width="1.5" fill-opacity="1" fill="#ffffff"></path><g id="SvgjsG1147"><text id="SvgjsText1148" font-family="微软雅黑" text-anchor="middle" font-size="13px" width="53px" fill="#323232" font-weight="400" align="middle" lineHeight="125%" anchor="middle" family="微软雅黑" size="13px" weight="400" font-style="" opacity="1" y="4.875" transform="rotate(0)"><tspan id="SvgjsTspan1149" dy="16.25" x="36.5"><tspan id="SvgjsTspan1150" style="">sidecar</tspan></tspan></text></g></g><g id="SvgjsG1151"><path id="SvgjsPath1152" d="M120.21232876712327 73L140.98116438356163 73L140.98116438356163 73L159.8 73" stroke="#323232" stroke-width="1.5" fill="none" marker-end="url(#SvgjsMarker1153)"></path></g><g id="SvgjsG1155"><path id="SvgjsPath1156" d="M235.75 81.5L253 81.5L253 81.5L268.3 81.5" stroke="#323232" stroke-width="1.5" fill="none" marker-end="url(#SvgjsMarker1157)"></path></g><g id="SvgjsG1159"><path id="SvgjsPath1160" d="M344.75 81.5L390 81.5L390 81.5L436 81.5" stroke="#323232" stroke-width="1.5" fill="none" marker-end="url(#SvgjsMarker1161)"></path></g><g id="SvgjsG1163"><path id="SvgjsPath1164" d="M174.5 97.75L174.5 150.5L232.3 150.5" stroke="#7985ec" stroke-width="1.5" fill="none" marker-end="url(#SvgjsMarker1165)"></path></g><g id="SvgjsG1167"><path id="SvgjsPath1168" d="M311.75 150.5L373 150.5L373 150.5L435 150.5" stroke="#7985ec" stroke-width="1.5" fill="none" marker-end="url(#SvgjsMarker1169)"></path></g><g id="SvgjsG1171" transform="translate(235,132)"><path id="SvgjsPath1172" d="M 0 0L 76 0L 76 37L 0 37Z" stroke="rgba(33,41,48,1)" stroke-width="1.5" fill-opacity="1" fill="#a7932c"></path><g id="SvgjsG1173"><text id="SvgjsText1174" font-family="微软雅黑" text-anchor="middle" font-size="13px" width="56px" fill="#323232" font-weight="400" align="middle" lineHeight="125%" anchor="middle" family="微软雅黑" size="13px" weight="400" font-style="" opacity="1" y="7.875" transform="rotate(0)"><tspan id="SvgjsTspan1175" dy="16.25" x="38"><tspan id="SvgjsTspan1176" style="">ebpf</tspan></tspan></text></g></g><g id="SvgjsG1177"><path id="SvgjsPath1178" d="M120.75 81.5L159.3 81.5" stroke="#7985ec" stroke-width="1.5" fill="none" marker-end="url(#SvgjsMarker1179)"></path></g></svg>