<svg version="1.1" xmlns="http://www.w3.org/2000/svg" viewBox="0 0 830.0079803466797 493.25" width="830.0079803466797" height="493.25">
  <!-- svg-source:excalidraw -->
  
  <defs>
    <style class="style-fonts">
      @font-face {
        font-family: "Virgil";
        src: url("https://excalidraw.com/Virgil.woff2");
      }
      @font-face {
        font-family: "Cascadia";
        src: url("https://excalidraw.com/Cascadia.woff2");
      }
      @font-face {
        font-family: "Assistant";
        src: url("https://excalidraw.com/Assistant-Regular.woff2");
      }
    </style>
    
  </defs>
  <rect x="0" y="0" width="830.0079803466797" height="493.25" fill="#ffffff"></rect><g transform="translate(18 383.25) rotate(0 124.38391876220703 50)"><text x="0" y="0" font-family="Virgil, Segoe UI Emoji" font-size="16px" fill="#1e1e1e" text-anchor="start" style="white-space: pre;" direction="ltr" dominant-baseline="text-before-edge">key: backend_uid</text><text x="0" y="20" font-family="Virgil, Segoe UI Emoji" font-size="16px" fill="#1e1e1e" text-anchor="start" style="white-space: pre;" direction="ltr" dominant-baseline="text-before-edge">val: ip</text><text x="0" y="40" font-family="Virgil, Segoe UI Emoji" font-size="16px" fill="#1e1e1e" text-anchor="start" style="white-space: pre;" direction="ltr" dominant-baseline="text-before-edge">    count</text><text x="0" y="60" font-family="Virgil, Segoe UI Emoji" font-size="16px" fill="#1e1e1e" text-anchor="start" style="white-space: pre;" direction="ltr" dominant-baseline="text-before-edge">    service_port[MAX_COUNT]</text><text x="0" y="80" font-family="Virgil, Segoe UI Emoji" font-size="16px" fill="#1e1e1e" text-anchor="start" style="white-space: pre;" direction="ltr" dominant-baseline="text-before-edge">    target_port[MAX_COUNT]</text></g><g transform="translate(423.6560363769531 154.25) rotate(0 76.46395874023438 20)"><text x="0" y="0" font-family="Virgil, Segoe UI Emoji" font-size="16px" fill="#1e1e1e" text-anchor="start" style="white-space: pre;" direction="ltr" dominant-baseline="text-before-edge">key: service_id</text><text x="0" y="20" font-family="Virgil, Segoe UI Emoji" font-size="16px" fill="#1e1e1e" text-anchor="start" style="white-space: pre;" direction="ltr" dominant-baseline="text-before-edge">val: endpoint_count</text></g><g transform="translate(647.5840377807617 89.25) rotate(0 56.9599609375 30)"><text x="0" y="0" font-family="Virgil, Segoe UI Emoji" font-size="16px" fill="#1e1e1e" text-anchor="start" style="white-space: pre;" direction="ltr" dominant-baseline="text-before-edge">key: ip</text><text x="0" y="20" font-family="Virgil, Segoe UI Emoji" font-size="16px" fill="#1e1e1e" text-anchor="start" style="white-space: pre;" direction="ltr" dominant-baseline="text-before-edge">    port</text><text x="0" y="40" font-family="Virgil, Segoe UI Emoji" font-size="16px" fill="#1e1e1e" text-anchor="start" style="white-space: pre;" direction="ltr" dominant-baseline="text-before-edge">val: service_id</text></g><g transform="translate(234.65603637695312 295.25) rotate(0 71.49596405029297 30)"><text x="0" y="0" font-family="Virgil, Segoe UI Emoji" font-size="16px" fill="#1e1e1e" text-anchor="start" style="white-space: pre;" direction="ltr" dominant-baseline="text-before-edge">key: service_id</text><text x="0" y="20" font-family="Virgil, Segoe UI Emoji" font-size="16px" fill="#1e1e1e" text-anchor="start" style="white-space: pre;" direction="ltr" dominant-baseline="text-before-edge">    backend_index</text><text x="0" y="40" font-family="Virgil, Segoe UI Emoji" font-size="16px" fill="#1e1e1e" text-anchor="start" style="white-space: pre;" direction="ltr" dominant-baseline="text-before-edge">val: backend_uid</text></g><g stroke-linecap="round" transform="translate(10 349.25) rotate(0 62.5 15)"><path d="M7.5 0 C34.54 2.01, 58.09 0.7, 117.5 0 C119.15 1.43, 121.61 -0.08, 125 7.5 C127.09 13.93, 125.2 19.72, 125 22.5 C124.88 28.46, 123.18 32.82, 117.5 30 C94.57 31.57, 73.2 32.24, 7.5 30 C4.49 29.74, -1.09 29.38, 0 22.5 C2.5 19.04, 0.54 17.7, 0 7.5 C-0.58 5.88, 1.23 -2.37, 7.5 0" stroke="none" stroke-width="0" fill="#b2f2bb"></path><path d="M7.5 0 C36.37 2.06, 68.42 -1.68, 117.5 0 M7.5 0 C32.48 -0.33, 56.54 1.04, 117.5 0 M117.5 0 C121.08 1.23, 126.09 2.4, 125 7.5 M117.5 0 C123.63 -0.91, 125.44 3.51, 125 7.5 M125 7.5 C125.68 12.05, 126.35 15.78, 125 22.5 M125 7.5 C125.34 13.06, 125.33 18.84, 125 22.5 M125 22.5 C125.34 26.06, 120.65 29.74, 117.5 30 M125 22.5 C127.23 28.16, 121.91 31.6, 117.5 30 M117.5 30 C80.59 30.49, 39.78 30.66, 7.5 30 M117.5 30 C83.89 29.47, 48.79 30.78, 7.5 30 M7.5 30 C3.84 30.74, 0.83 27.08, 0 22.5 M7.5 30 C4.18 31.48, -0.99 25.56, 0 22.5 M0 22.5 C-0.37 19.25, 0.67 12.64, 0 7.5 M0 22.5 C-0.19 18.91, -0.62 14.96, 0 7.5 M0 7.5 C0.44 3.59, 4.02 1.48, 7.5 0 M0 7.5 C1.08 3.25, 3.93 0.77, 7.5 0" stroke="#1e1e1e" stroke-width="1" fill="none"></path></g><g transform="translate(42.524017333984375 354.25) rotate(0 29.975982666015625 10)"><text x="29.975982666015625" y="0" font-family="Virgil, Segoe UI Emoji" font-size="16px" fill="#1e1e1e" text-anchor="middle" style="white-space: pre;" direction="ltr" dominant-baseline="text-before-edge">backend</text></g><g stroke-linecap="round" transform="translate(237.5 246.25) rotate(0 62.5 15)"><path d="M7.5 0 C44.23 0.87, 84.26 -3.14, 117.5 0 C125.44 -2.01, 127.78 5.49, 125 7.5 C124.95 13.11, 125.55 19.4, 125 22.5 C121.78 28.68, 125.12 30.23, 117.5 30 C86.08 30.18, 49.6 32.31, 7.5 30 C0 27.56, -3.21 30.59, 0 22.5 C-0.47 20.53, -0.99 11.72, 0 7.5 C-2.03 -0.93, 4.44 0.06, 7.5 0" stroke="none" stroke-width="0" fill="#b2f2bb"></path><path d="M7.5 0 C48.83 2.45, 92.98 1.87, 117.5 0 M7.5 0 C34.64 -0.38, 63.74 -1.05, 117.5 0 M117.5 0 C123.48 -0.79, 125.38 3.38, 125 7.5 M117.5 0 C122.89 0.54, 124.22 3.48, 125 7.5 M125 7.5 C126.02 12.52, 125.9 16.62, 125 22.5 M125 7.5 C125.18 11.81, 124.36 17.1, 125 22.5 M125 22.5 C126.94 28.07, 121.99 31.39, 117.5 30 M125 22.5 C126.12 28.48, 124.25 31.68, 117.5 30 M117.5 30 C86.6 28.83, 55.26 30.64, 7.5 30 M117.5 30 C90.52 31.28, 62.61 30.7, 7.5 30 M7.5 30 C3.96 31.29, -0.86 25.81, 0 22.5 M7.5 30 C2.15 32.2, 1.58 27.15, 0 22.5 M0 22.5 C-0.95 15.88, -1.17 10.86, 0 7.5 M0 22.5 C0.31 18.33, 0.72 13.89, 0 7.5 M0 7.5 C0.94 3.16, 3.75 0.67, 7.5 0 M0 7.5 C-1.83 1.24, 2.86 1.8, 7.5 0" stroke="#1e1e1e" stroke-width="1" fill="none"></path></g><g transform="translate(268.95201873779297 251.25) rotate(0 31.04798126220703 10)"><text x="31.04798126220703" y="0" font-family="Virgil, Segoe UI Emoji" font-size="16px" fill="#1e1e1e" text-anchor="middle" style="white-space: pre;" direction="ltr" dominant-baseline="text-before-edge">endpoint</text></g><g stroke-linecap="round" transform="translate(419.5 114.25) rotate(0 62.5 15)"><path d="M7.5 0 C47.8 -0.59, 85 4.41, 117.5 0 C123.44 0.46, 126.03 2.38, 125 7.5 C122.63 13.29, 127.02 17.47, 125 22.5 C125.13 29.51, 123.29 31.99, 117.5 30 C82.78 28.59, 49.86 34.13, 7.5 30 C2.5 30.47, 2.83 26.92, 0 22.5 C-1.43 14.02, 1.55 10.73, 0 7.5 C-3.58 2.07, 5.54 2.44, 7.5 0" stroke="none" stroke-width="0" fill="#b2f2bb"></path><path d="M7.5 0 C47.16 -0.69, 90.5 -1.86, 117.5 0 M7.5 0 C47.77 -0.34, 87.24 0.5, 117.5 0 M117.5 0 C122.84 0.47, 124.32 3.35, 125 7.5 M117.5 0 C122.18 2.01, 123.12 3.86, 125 7.5 M125 7.5 C125.42 13.24, 126.22 18.22, 125 22.5 M125 7.5 C125.59 11.13, 124.67 14.86, 125 22.5 M125 22.5 C125.98 28.35, 124.02 31.46, 117.5 30 M125 22.5 C124.6 26.37, 122.3 30.2, 117.5 30 M117.5 30 C89.46 28.9, 65.01 31.75, 7.5 30 M117.5 30 C81.17 30.41, 42.95 28.92, 7.5 30 M7.5 30 C2.19 31.91, 1.37 27.2, 0 22.5 M7.5 30 C4.06 31.25, -2.03 26.17, 0 22.5 M0 22.5 C0.19 17.65, -0.44 16.03, 0 7.5 M0 22.5 C0.24 17.43, 0.35 12.11, 0 7.5 M0 7.5 C-1.59 1.4, 2.81 1.56, 7.5 0 M0 7.5 C1.48 3.86, 3.14 -2.14, 7.5 0" stroke="#1e1e1e" stroke-width="1" fill="none"></path></g><g transform="translate(455.5120162963867 119.25) rotate(0 26.48798370361328 10)"><text x="26.48798370361328" y="0" font-family="Virgil, Segoe UI Emoji" font-size="16px" fill="#1e1e1e" text-anchor="middle" style="white-space: pre;" direction="ltr" dominant-baseline="text-before-edge">service</text></g><g stroke-linecap="round" transform="translate(636.5 49.25) rotate(0 62.5 15)"><path d="M7.5 0 C35.28 -1.18, 62.23 -1.77, 117.5 0 C123.46 0.68, 127.82 -0.72, 125 7.5 C125.3 14, 125.79 18.98, 125 22.5 C124.74 26.41, 124.38 27.5, 117.5 30 C91.97 32.17, 69.26 31.12, 7.5 30 C5.88 28.73, -2.37 25.47, 0 22.5 C-2.83 19.11, 2.14 18.19, 0 7.5 C-2.6 1.12, 2.43 -0.67, 7.5 0" stroke="none" stroke-width="0" fill="#b2f2bb"></path><path d="M7.5 0 C40.33 1.87, 70.59 1.76, 117.5 0 M7.5 0 C36.31 -0.25, 64.44 -0.06, 117.5 0 M117.5 0 C122.22 1.75, 123.36 3.68, 125 7.5 M117.5 0 C123.62 1.18, 125.83 3.03, 125 7.5 M125 7.5 C124.03 11.12, 124.92 18.97, 125 22.5 M125 7.5 C125.33 12.75, 125.53 17.9, 125 22.5 M125 22.5 C124.65 26.52, 122.33 30.18, 117.5 30 M125 22.5 C123.76 27.4, 123.35 28.88, 117.5 30 M117.5 30 C93.5 31.57, 67.61 32.2, 7.5 30 M117.5 30 C77.25 30.03, 38 28.92, 7.5 30 M7.5 30 C3.85 31.09, -1.76 26.34, 0 22.5 M7.5 30 C0.81 28.33, -0.93 27.62, 0 22.5 M0 22.5 C0.87 20.6, 1.17 17.11, 0 7.5 M0 22.5 C-0.69 17.1, 0.02 13.1, 0 7.5 M0 7.5 C1.29 3.69, 3.06 -1.86, 7.5 0 M0 7.5 C0.91 0.33, 0.85 1.88, 7.5 0" stroke="#1e1e1e" stroke-width="1" fill="none"></path></g><g transform="translate(666.3200225830078 54.25) rotate(0 32.67997741699219 10)"><text x="32.67997741699219" y="0" font-family="Virgil, Segoe UI Emoji" font-size="16px" fill="#1e1e1e" text-anchor="middle" style="white-space: pre;" direction="ltr" dominant-baseline="text-before-edge">frontend</text></g><g stroke-linecap="round"><g transform="translate(794.1448083809569 35.25) rotate(0 -346.57240419047844 195.5)"><path d="M0.59 -0.48 C-13.5 10.79, -80.66 49.4, -83.92 67.53 C-87.17 85.65, 7.66 98.12, -18.94 108.28 C-45.55 118.45, -211.16 120.38, -243.55 128.51 C-275.95 136.64, -181.88 133.35, -213.31 157.05 C-244.74 180.75, -396.75 243.61, -432.13 270.71 C-467.5 297.8, -390.46 307.35, -425.56 319.61 C-460.66 331.88, -598.18 332.23, -642.71 344.28 C-687.24 356.33, -684.37 384.27, -692.74 391.92 M-0.56 -1.77 C-14.85 9.14, -81.57 47.1, -84.74 65.68 C-87.92 84.27, 6.86 99.66, -19.6 109.75 C-46.06 119.84, -210.98 118.8, -243.52 126.23 C-276.06 133.66, -183.58 130.36, -214.87 154.33 C-246.15 178.3, -396.27 242.66, -431.23 270.04 C-466.19 297.42, -389.23 306.25, -424.61 318.59 C-459.99 330.93, -598.58 332.01, -643.51 344.08 C-688.45 356.15, -686.11 383.49, -694.2 391.01" stroke="#2f9e44" stroke-width="1" fill="none"></path></g><g transform="translate(794.1448083809569 35.25) rotate(0 -346.57240419047844 195.5)"><path d="M-690.58 366.28 C-692.67 375.45, -692.28 384.18, -694.2 391.01 M-690.58 366.28 C-691.97 375.17, -693.82 382.88, -694.2 391.01" stroke="#2f9e44" stroke-width="1" fill="none"></path></g><g transform="translate(794.1448083809569 35.25) rotate(0 -346.57240419047844 195.5)"><path d="M-675.53 374.39 C-682.95 380.76, -687.9 386.61, -694.2 391.01 M-675.53 374.39 C-681.76 380.72, -688.48 385.81, -694.2 391.01" stroke="#2f9e44" stroke-width="1" fill="none"></path></g></g><mask></mask><g transform="translate(779 13.25) rotate(0 20.503990173339844 10)"><text x="0" y="0" font-family="Virgil, Segoe UI Emoji" font-size="16px" fill="#1e1e1e" text-anchor="start" style="white-space: pre;" direction="ltr" dominant-baseline="text-before-edge">client</text></g><g stroke-linecap="round"><g transform="translate(768.5039901733398 15.646981945486914) rotate(0 -342.5 158.17650902725654)"><path d="M0.19 -0.91 C-58.01 9.66, -249.27 40.31, -348.18 63.34 C-447.09 86.37, -536.98 95.04, -593.26 137.27 C-649.54 179.5, -670.57 286.78, -685.88 316.73 M-1.16 1.23 C-59.07 11.46, -247.06 39.24, -345.82 61.6 C-444.59 83.97, -537.05 92.67, -593.77 135.41 C-650.48 178.15, -670.61 287.65, -686.09 318.04" stroke="#1971c2" stroke-width="1" fill="none"></path></g><g transform="translate(768.5039901733398 15.646981945486914) rotate(0 -342.5 158.17650902725654)"><path d="M-686.21 293.04 C-687.7 301.58, -684.91 313.21, -686.09 318.04 M-686.21 293.04 C-686.45 303.01, -687.15 312.04, -686.09 318.04" stroke="#1971c2" stroke-width="1" fill="none"></path></g><g transform="translate(768.5039901733398 15.646981945486914) rotate(0 -342.5 158.17650902725654)"><path d="M-670.12 298.81 C-677.83 305.15, -681.27 314.54, -686.09 318.04 M-670.12 298.81 C-676.37 306.66, -683.13 313.52, -686.09 318.04" stroke="#1971c2" stroke-width="1" fill="none"></path></g></g><mask></mask><g stroke-linecap="round"><g transform="translate(29.325331715117045 21.25) rotate(0 35.625 -0.625)"><path d="M-0.72 0.64 C11.01 0.48, 59.14 -1.5, 71.23 -1.86 M1.1 -0.06 C12.61 0, 58.56 -0.6, 70.28 -0.64" stroke="#2f9e44" stroke-width="1" fill="none"></path></g><g transform="translate(29.325331715117045 21.25) rotate(0 35.625 -0.625)"><path d="M46.86 8.11 C56.64 4.99, 63.21 2.78, 70.28 -0.64 M46.86 8.11 C53.83 5.49, 60.78 2.99, 70.28 -0.64" stroke="#2f9e44" stroke-width="1" fill="none"></path></g><g transform="translate(29.325331715117045 21.25) rotate(0 35.625 -0.625)"><path d="M46.71 -8.99 C56.43 -5.79, 63.04 -1.68, 70.28 -0.64 M46.71 -8.99 C53.89 -6.86, 60.88 -4.6, 70.28 -0.64" stroke="#2f9e44" stroke-width="1" fill="none"></path></g></g><mask></mask><g stroke-linecap="round"><g transform="translate(29.943365829056802 62.86003375351356) rotate(0 35.625 -0.625)"><path d="M-0.02 -0.61 C12.08 -0.97, 59.78 -1.29, 71.85 -1.51 M-1.48 1.69 C10.57 1.45, 58.93 0.33, 71.21 -0.12" stroke="#1971c2" stroke-width="1" fill="none"></path></g><g transform="translate(29.943365829056802 62.86003375351356) rotate(0 35.625 -0.625)"><path d="M47.98 9.1 C52.49 7.89, 58.65 6.57, 71.21 -0.12 M47.98 9.1 C54.58 6.54, 58.91 3.71, 71.21 -0.12" stroke="#1971c2" stroke-width="1" fill="none"></path></g><g transform="translate(29.943365829056802 62.86003375351356) rotate(0 35.625 -0.625)"><path d="M47.49 -7.99 C52.21 -5.1, 58.48 -2.32, 71.21 -0.12 M47.49 -7.99 C54.3 -6.38, 58.75 -5.05, 71.21 -0.12" stroke="#1971c2" stroke-width="1" fill="none"></path></g></g><mask></mask><g transform="translate(126.82533171511704 10) rotate(0 67.24609375 11.5)"><text x="0" y="0" font-family="Helvetica, Segoe UI Emoji" font-size="20px" fill="#1e1e1e" text-anchor="start" style="white-space: pre;" direction="ltr" dominant-baseline="text-before-edge">Service access</text></g><g transform="translate(126.82533171511704 50) rotate(0 51.6943359375 11.5)"><text x="0" y="0" font-family="Helvetica, Segoe UI Emoji" font-size="20px" fill="#1e1e1e" text-anchor="start" style="white-space: pre;" direction="ltr" dominant-baseline="text-before-edge">Pod access</text></g></svg>