<svg version="1.1" xmlns="http://www.w3.org/2000/svg" viewBox="0 0 797.0091727334953 877.5556801736103" width="797.0091727334953" height="877.5556801736103">
  <!-- svg-source:excalidraw -->
  
  <defs>
    <style class="style-fonts">
      @font-face {
        font-family: "Virgil";
        src: url("https://excalidraw.com/Virgil.woff2");
      }
      @font-face {
        font-family: "Cascadia";
        src: url("https://excalidraw.com/Cascadia.woff2");
      }
      @font-face {
        font-family: "Assistant";
        src: url("https://excalidraw.com/Assistant-Regular.woff2");
      }
    </style>
    
  </defs>
  <rect x="0" y="0" width="797.0091727334953" height="877.5556801736103" fill="#ffffff"></rect><g stroke-linecap="round" transform="translate(138.8049948275484 10) rotate(0 49.87499221541816 19.89430818564759)"><path d="M40.68 0.75 C49.72 -0.12, 62.16 -0.07, 70.9 1.51 C79.63 3.09, 88.37 6.78, 93.08 10.24 C97.79 13.7, 100.22 18.2, 99.14 22.27 C98.05 26.33, 93.4 31.59, 86.55 34.62 C79.69 37.65, 67.89 39.83, 58.02 40.43 C48.14 41.02, 35.95 40.05, 27.31 38.19 C18.67 36.33, 10.77 32.76, 6.16 29.28 C1.54 25.81, -1.64 21.27, -0.39 17.34 C0.86 13.41, 6.33 8.41, 13.68 5.7 C21.02 2.99, 37.83 2.04, 43.67 1.08 C49.5 0.11, 48.49 -0.39, 48.71 -0.07 M58.37 1.82 C67.52 2.18, 78.84 4.2, 85.68 6.87 C92.52 9.53, 98.19 14.05, 99.43 17.81 C100.66 21.58, 98.12 26.18, 93.09 29.45 C88.06 32.71, 78.16 35.69, 69.24 37.43 C60.33 39.17, 49.1 40.49, 39.6 39.87 C30.1 39.26, 18.82 36.91, 12.22 33.76 C5.62 30.61, 0.83 24.66, 0.01 20.96 C-0.82 17.26, 2.46 14.89, 7.26 11.58 C12.07 8.27, 20.14 3.06, 28.85 1.12 C37.56 -0.82, 54.46 -0.24, 59.53 -0.05 C64.6 0.14, 59.57 1.73, 59.26 2.24" stroke="#1e1e1e" stroke-width="1" fill="none"></path></g><g transform="translate(171.88192153552518 21.514409257991417) rotate(0 17.03112030029297 8.312498702569684)"><text x="17.03112030029297" y="11.650798181521683" font-family="Virgil, Segoe UI Emoji" font-size="13.299997924111512px" fill="#1e1e1e" text-anchor="middle" style="white-space: pre;" direction="ltr" dominant-baseline="alphabetic">client</text></g><g stroke-linecap="round" transform="translate(125.87444129021776 87.8413882097251) rotate(0 63.2673512362249 16.624997405139396)"><path d="M8.31 0 C36.29 1.64, 64.84 -0.3, 118.22 0 M8.31 0 C31.39 0.97, 56.2 -0.33, 118.22 0 M118.22 0 C125.64 -1.29, 127.39 3.47, 126.53 8.31 M118.22 0 C123.92 -2.04, 127.09 1.93, 126.53 8.31 M126.53 8.31 C127.75 11.9, 126.29 18.6, 126.53 24.94 M126.53 8.31 C125.67 14.76, 125.94 19.85, 126.53 24.94 M126.53 24.94 C126.53 30.7, 123.51 32.92, 118.22 33.25 M126.53 24.94 C124.53 29.61, 123.27 33.99, 118.22 33.25 M118.22 33.25 C90.07 34.08, 67.05 32.55, 8.31 33.25 M118.22 33.25 C89.93 33.89, 61.37 33.37, 8.31 33.25 M8.31 33.25 C4.74 34.58, 1.05 31.22, 0 24.94 M8.31 33.25 C4.7 34.24, 0.03 31.98, 0 24.94 M0 24.94 C-0.65 21.57, 0.37 15.94, 0 8.31 M0 24.94 C0.3 20.66, 0.39 16.74, 0 8.31 M0 8.31 C1.11 2.97, 3.37 -1.68, 8.31 0 M0 8.31 C-0.32 4.84, 4.57 -1.92, 8.31 0" stroke="#1e1e1e" stroke-width="1" fill="none"></path></g><g transform="translate(161.99699424763412 96.15388691229481) rotate(0 27.144798278808594 8.312498702569684)"><text x="27.144798278808594" y="11.650798181521683" font-family="Virgil, Segoe UI Emoji" font-size="13.299997924111512px" fill="#1e1e1e" text-anchor="middle" style="white-space: pre;" direction="ltr" dominant-baseline="alphabetic">frontend</text></g><g stroke-linecap="round" transform="translate(124.48902483978952 309.50802027825273) rotate(0 63.2673512362249 16.624997405139368)"><path d="M8.31 0 C44.57 -0.12, 84.03 -0.28, 118.22 0 M8.31 0 C51.45 -0.14, 93.15 0.85, 118.22 0 M118.22 0 C123.9 -1.77, 127.02 2.04, 126.53 8.31 M118.22 0 C122.95 -2.04, 128.75 4.66, 126.53 8.31 M126.53 8.31 C127.19 11.96, 127.76 15.04, 126.53 24.94 M126.53 8.31 C126.42 14.97, 126.32 21.3, 126.53 24.94 M126.53 24.94 C124.79 29.72, 123.34 33.9, 118.22 33.25 M126.53 24.94 C125.2 31.14, 123.28 31.44, 118.22 33.25 M118.22 33.25 C78.54 32.59, 40.05 32.5, 8.31 33.25 M118.22 33.25 C75.6 34.41, 31.54 34.12, 8.31 33.25 M8.31 33.25 C4.45 34.11, 0.02 31.78, 0 24.94 M8.31 33.25 C2.51 32.39, -0.63 29.49, 0 24.94 M0 24.94 C-0.89 17.98, -0.64 12.58, 0 8.31 M0 24.94 C0.39 20.33, 0.18 14.85, 0 8.31 M0 8.31 C-0.28 4.57, 4.33 -1.67, 8.31 0 M0 8.31 C-0.94 4.82, 3.8 -0.21, 8.31 0" stroke="#1e1e1e" stroke-width="1" fill="none"></path></g><g transform="translate(165.75480442074104 317.8205189808224) rotate(0 22.001571655273438 8.312498702569712)"><text x="22.001571655273438" y="11.650798181521683" font-family="Virgil, Segoe UI Emoji" font-size="13.299997924111512px" fill="#1e1e1e" text-anchor="middle" style="white-space: pre;" direction="ltr" dominant-baseline="alphabetic">service</text></g><g stroke-linecap="round" transform="translate(121.71819193893282 516.3968768755427) rotate(0 63.2673512362249 16.624997405139368)"><path d="M8.31 0 C39.24 2.24, 65.89 2.34, 118.22 0 M8.31 0 C34.29 -1.27, 60.36 -0.75, 118.22 0 M118.22 0 C123.05 -1.77, 128.46 4.41, 126.53 8.31 M118.22 0 C122.64 -0.14, 128.6 3.7, 126.53 8.31 M126.53 8.31 C128.23 11.7, 127.11 17.23, 126.53 24.94 M126.53 8.31 C125.79 13.17, 126.34 18.93, 126.53 24.94 M126.53 24.94 C125.37 31.05, 123.35 31.68, 118.22 33.25 M126.53 24.94 C127.75 32.76, 123.22 32.22, 118.22 33.25 M118.22 33.25 C89.39 31.45, 57.6 34.95, 8.31 33.25 M118.22 33.25 C78.77 34.09, 37.66 34.31, 8.31 33.25 M8.31 33.25 C2.55 32.5, -0.55 29.62, 0 24.94 M8.31 33.25 C4.76 33.68, 0.84 29.29, 0 24.94 M0 24.94 C-0.23 21.16, 0.18 16.96, 0 8.31 M0 24.94 C-0.17 20.53, 0.6 13.94, 0 8.31 M0 8.31 C-0.82 4.55, 3.67 -0.18, 8.31 0 M0 8.31 C1.86 2.35, 2.93 -0.45, 8.31 0" stroke="#1e1e1e" stroke-width="1" fill="none"></path></g><g transform="translate(159.19632808726715 524.7093755781124) rotate(0 25.789215087890625 8.312498702569712)"><text x="25.789215087890625" y="11.650798181521683" font-family="Virgil, Segoe UI Emoji" font-size="13.299997924111512px" fill="#1e1e1e" text-anchor="middle" style="white-space: pre;" direction="ltr" dominant-baseline="alphabetic">endpoint</text></g><g stroke-linecap="round" transform="translate(123.56541387283733 598.5982529342843) rotate(0 63.2673512362249 16.624997405139368)"><path d="M8.31 0 C49.76 -0.18, 94.48 -0.89, 118.22 0 M8.31 0 C31.2 -0.48, 55.75 1.22, 118.22 0 M118.22 0 C122.79 -0.12, 128.33 3.57, 126.53 8.31 M118.22 0 C123.04 1.72, 124.3 4.95, 126.53 8.31 M126.53 8.31 C126.77 12.01, 126.3 14.68, 126.53 24.94 M126.53 8.31 C126.02 12.91, 126.33 16.38, 126.53 24.94 M126.53 24.94 C127.59 32.46, 123.29 32.35, 118.22 33.25 M126.53 24.94 C126.07 29.79, 123.2 35.47, 118.22 33.25 M118.22 33.25 C94.97 35.38, 69.79 36.01, 8.31 33.25 M118.22 33.25 C80.41 33.59, 42.54 33.54, 8.31 33.25 M8.31 33.25 C4.5 33.62, 0.73 29.45, 0 24.94 M8.31 33.25 C2.03 32.41, 0.68 30.07, 0 24.94 M0 24.94 C0.15 19.77, -1.4 13.38, 0 8.31 M0 24.94 C-0.47 19.2, 0.24 11.9, 0 8.31 M0 8.31 C1.61 2.4, 2.91 -0.39, 8.31 0 M0 8.31 C-1.76 1.63, 1.79 1.92, 8.31 0" stroke="#1e1e1e" stroke-width="1" fill="none"></path></g><g transform="translate(161.93397665691384 606.910751636854) rotate(0 24.898788452148438 8.312498702569712)"><text x="24.898788452148438" y="11.650798181521683" font-family="Virgil, Segoe UI Emoji" font-size="13.299997924111512px" fill="#1e1e1e" text-anchor="middle" style="white-space: pre;" direction="ltr" dominant-baseline="alphabetic">backend</text></g><g stroke-linecap="round"><g transform="translate(188.17617727610707 50.89602039752799) rotate(0 0.059612601464834825 16.625461972194188)"><path d="M0.04 -0.49 C0.04 4.99, 0.27 27.51, 0.25 33.05 M-0.61 0.45 C-0.68 5.99, -0.12 28.2, -0.11 33.65" stroke="#2f9e44" stroke-width="1" fill="none"></path></g><g transform="translate(188.17617727610707 50.89602039752799) rotate(0 0.059612601464834825 16.625461972194188)"><path d="M-6.03 18.11 C-4.71 23.63, -2.25 28.46, -0.11 33.65 M-6.03 18.11 C-4.91 21.35, -3.08 24.82, -0.11 33.65" stroke="#2f9e44" stroke-width="1" fill="none"></path></g><g transform="translate(188.17617727610707 50.89602039752799) rotate(0 0.059612601464834825 16.625461972194188)"><path d="M5.34 17.94 C2.76 23.53, 1.33 28.42, -0.11 33.65 M5.34 17.94 C4.06 21.26, 3.48 24.77, -0.11 33.65" stroke="#2f9e44" stroke-width="1" fill="none"></path></g></g><mask></mask><g stroke-linecap="round" transform="translate(106.47861098422186 381.1125407381097) rotate(0 79.43054315788817 44.090088411435204)"><path d="M100 11.25 C111 17.35, 121.89 26.89, 138.86 33.75 M100 11.25 C115.64 20.28, 129.28 29.22, 138.86 33.75 M138.86 33.75 C156.91 46.9, 157.56 45.54, 138.86 56.25 M138.86 33.75 C158.85 45.26, 158.57 44.62, 138.86 56.25 M138.86 56.25 C131.16 59.41, 122.81 64.55, 100 76.93 M138.86 56.25 C130.14 60.76, 121.57 65.49, 100 76.93 M100 76.93 C79.51 90.11, 78.47 89.09, 60 76.93 M100 76.93 C82.26 89.71, 81.2 89.03, 60 76.93 M60 76.93 C45.86 68.77, 28.45 60.51, 20 56.25 M60 76.93 C49.9 71.17, 38.93 66.01, 20 56.25 M20 56.25 C0.59 44.65, 0.81 45.14, 20 33.75 M20 56.25 C1.28 45.23, 0.69 43.07, 20 33.75 M20 33.75 C29.56 26.19, 44.45 21.47, 60 11.25 M20 33.75 C31.52 27.08, 42.33 20.24, 60 11.25 M60 11.25 C79.15 1.67, 80.55 1.7, 100 11.25 M60 11.25 C77.89 -0.98, 79.99 1.93, 100 11.25" stroke="#f08c00" stroke-width="1" fill="none"></path></g><g transform="translate(152.18317852263863 408.53258753868784) rotate(0 33.510704040527344 16.624997405139368)"><text x="33.510704040527344" y="11.650798181521683" font-family="Virgil, Segoe UI Emoji" font-size="13.299997924111512px" fill="#f08c00" text-anchor="middle" style="white-space: pre;" direction="ltr" dominant-baseline="alphabetic">have </text><text x="33.510704040527344" y="28.275795586661072" font-family="Virgil, Segoe UI Emoji" font-size="13.299997924111512px" fill="#f08c00" text-anchor="middle" style="white-space: pre;" direction="ltr" dominant-baseline="alphabetic">waypoint？</text></g><g stroke-linecap="round"><g transform="translate(107.91183602756041 426.0421104958149) rotate(0 -34.6832198536174 -163.144647100081)"><path d="M1.16 0.99 C-13.12 -5.19, -73.35 9.27, -86.07 -38.1 C-98.79 -85.47, -92.13 -235.34, -75.17 -283.23 C-58.2 -331.11, 0.72 -318.41, 15.74 -325.39 M0.3 0.46 C-13.53 -5.42, -71.05 11.03, -83.66 -36.6 C-96.28 -84.23, -91.94 -236.83, -75.37 -285.31 C-58.79 -333.79, 0.47 -320.4, 15.78 -327.48" stroke="#f08c00" stroke-width="1" fill="none"></path></g><g transform="translate(107.91183602756041 426.0421104958149) rotate(0 -34.6832198536174 -163.144647100081)"><path d="M-6.39 -315.94 C1.22 -320.18, 5.32 -320.46, 15.78 -327.48 M-6.39 -315.94 C0.22 -319.08, 8.08 -323.68, 15.78 -327.48" stroke="#f08c00" stroke-width="1" fill="none"></path></g><g transform="translate(107.91183602756041 426.0421104958149) rotate(0 -34.6832198536174 -163.144647100081)"><path d="M-8.62 -332.89 C-0.57 -332.67, 4.12 -328.47, 15.78 -327.48 M-8.62 -332.89 C-1.31 -330.28, 7.32 -329.12, 15.78 -327.48" stroke="#f08c00" stroke-width="1" fill="none"></path></g></g><mask></mask><g stroke-linecap="round" transform="translate(109.24944388507845 166.83479640520102) rotate(0 79.43054315788817 44.090088411435204)"><path d="M100 11.25 C115.46 22.15, 131.79 28.64, 138.86 33.75 M100 11.25 C113.69 19.58, 128.89 27.85, 138.86 33.75 M138.86 33.75 C158.61 44.67, 157.12 44.25, 138.86 56.25 M138.86 33.75 C158.37 45.74, 157.52 45.66, 138.86 56.25 M138.86 56.25 C129.84 61.76, 116.11 67.6, 100 76.93 M138.86 56.25 C127.56 62.66, 118.81 68.46, 100 76.93 M100 76.93 C81.05 88.92, 81.68 89.04, 60 76.93 M100 76.93 C80.03 89.68, 79.74 87.32, 60 76.93 M60 76.93 C49.55 72.37, 37.24 65.35, 20 56.25 M60 76.93 C49.8 71.48, 39.4 66.05, 20 56.25 M20 56.25 C0.6 43.32, -0.28 46.8, 20 33.75 M20 56.25 C1.8 43.08, -0.94 47.04, 20 33.75 M20 33.75 C33.45 25.8, 47.22 16.38, 60 11.25 M20 33.75 C30.38 28.63, 39.21 21.72, 60 11.25 M60 11.25 C79.99 1.68, 79.75 0.31, 100 11.25 M60 11.25 C80.33 -1.09, 78.63 -1.6, 100 11.25" stroke="#2f9e44" stroke-width="1" fill="none"></path></g><g transform="translate(156.60197590103428 194.25484320577925) rotate(0 31.86273956298828 16.624997405139368)"><text x="31.86273956298828" y="11.650798181521683" font-family="Virgil, Segoe UI Emoji" font-size="13.299997924111512px" fill="#2f9e44" text-anchor="middle" style="white-space: pre;" direction="ltr" dominant-baseline="alphabetic">service or</text><text x="31.86273956298828" y="28.275795586661072" font-family="Virgil, Segoe UI Emoji" font-size="13.299997924111512px" fill="#2f9e44" text-anchor="middle" style="white-space: pre;" direction="ltr" dominant-baseline="alphabetic">backend？</text></g><g mask="url(#mask-RAOikb3zpYmXl4tA5ygxH)" stroke-linecap="round"><g transform="translate(265.43829865314717 215.78891062447633) rotate(0 42.17257276464568 189.79196490618313)"><path d="M-0.38 0.89 C10.93 6.77, 55.18 -12.17, 68.93 35.75 C82.68 83.66, 80.65 231.31, 82.1 288.37 C83.56 345.43, 78.43 363.19, 77.67 378.09 M1.62 0.32 C13.19 5.85, 57.2 -14.04, 71.03 34.22 C84.85 82.48, 83.44 232.35, 84.59 289.86 C85.74 347.36, 79.35 364.57, 77.91 379.26" stroke="#1971c2" stroke-width="1" fill="none"></path></g><g transform="translate(265.43829865314717 215.78891062447633) rotate(0 42.17257276464568 189.79196490618313)"><path d="M73.03 354.75 C76.52 362.38, 78.83 372.58, 77.91 379.26 M73.03 354.75 C74.5 362.6, 75.35 370.41, 77.91 379.26" stroke="#1971c2" stroke-width="1" fill="none"></path></g><g transform="translate(265.43829865314717 215.78891062447633) rotate(0 42.17257276464568 189.79196490618313)"><path d="M89.93 357.34 C86.82 363.91, 82.54 373.1, 77.91 379.26 M89.93 357.34 C85.87 364.36, 81.19 371.33, 77.91 379.26" stroke="#1971c2" stroke-width="1" fill="none"></path></g></g><mask id="mask-RAOikb3zpYmXl4tA5ygxH"><rect x="0" y="0" fill="#fff" width="448.3188534430634" height="693.7450355243276"></rect><rect x="320.83040691456404" y="372.3874320567088" fill="#000" width="49.797576904296875" height="16.62499740513939" opacity="1"></rect></mask><g transform="translate(320.8304069145638 372.3874320567088) rotate(0 -13.219535496771073 33.19344347395065)"><text x="24.898788452148438" y="11.650798181521683" font-family="Virgil, Segoe UI Emoji" font-size="13.299997924111512px" fill="#1971c2" text-anchor="middle" style="white-space: pre;" direction="ltr" dominant-baseline="alphabetic">backend</text></g><g stroke-linecap="round"><g transform="translate(186.14898931535447 344.60523702243484) rotate(0 -0.8526451307178036 20.69556559607298)"><path d="M-0.36 0.15 C-0.55 6.97, -1.47 34.59, -1.71 41.45 M0.46 -0.25 C0.24 6.9, -1.7 35.17, -2.14 42.18" stroke="#2f9e44" stroke-width="1" fill="none"></path></g><g transform="translate(186.14898931535447 344.60523702243484) rotate(0 -0.8526451307178036 20.69556559607298)"><path d="M-7.94 22.3 C-6.4 26.34, -5.38 30.25, -2.14 42.18 M-7.94 22.3 C-6.49 28.11, -5.03 33.72, -2.14 42.18" stroke="#2f9e44" stroke-width="1" fill="none"></path></g><g transform="translate(186.14898931535447 344.60523702243484) rotate(0 -0.8526451307178036 20.69556559607298)"><path d="M6.2 23.22 C4.87 27.04, 3.02 30.76, -2.14 42.18 M6.2 23.22 C3.65 28.74, 1.1 34.1, -2.14 42.18" stroke="#2f9e44" stroke-width="1" fill="none"></path></g></g><mask></mask><g stroke-linecap="round"><g transform="translate(189.33146011601764 121.92263289026084) rotate(0 -0.20169879840636895 24.586991987556672)"><path d="M0 0.06 C-0.02 8.22, -0.33 40.93, -0.47 49.08 M-0.67 -0.38 C-0.73 7.85, -1.08 41.43, -0.94 49.74" stroke="#2f9e44" stroke-width="1" fill="none"></path></g><g transform="translate(189.33146011601764 121.92263289026084) rotate(0 -0.20169879840636895 24.586991987556672)"><path d="M-9.38 26.64 C-7.25 31.95, -5.54 36.63, -0.94 49.74 M-9.38 26.64 C-7.48 32.83, -5.08 38.35, -0.94 49.74" stroke="#2f9e44" stroke-width="1" fill="none"></path></g><g transform="translate(189.33146011601764 121.92263289026084) rotate(0 -0.20169879840636895 24.586991987556672)"><path d="M7.44 26.62 C5.61 31.93, 3.37 36.62, -0.94 49.74 M7.44 26.62 C4.93 32.84, 2.92 38.36, -0.94 49.74" stroke="#2f9e44" stroke-width="1" fill="none"></path></g></g><mask></mask><g stroke-linecap="round"><g transform="translate(185.7018384927086 470.09769990135385) rotate(0 -0.8879351203958663 22.733963551965644)"><path d="M-0.07 -0.09 C-0.44 7.44, -1.95 37.64, -2.25 45.26 M-0.77 -0.61 C-0.98 6.99, -1.01 38.31, -1.27 45.85" stroke="#2f9e44" stroke-width="1" fill="none"></path></g><g transform="translate(185.7018384927086 470.09769990135385) rotate(0 -0.8879351203958663 22.733963551965644)"><path d="M-8.72 24.36 C-6.64 29.93, -4.62 37.03, -1.27 45.85 M-8.72 24.36 C-6.41 31.1, -3.57 39.13, -1.27 45.85" stroke="#2f9e44" stroke-width="1" fill="none"></path></g><g transform="translate(185.7018384927086 470.09769990135385) rotate(0 -0.8879351203958663 22.733963551965644)"><path d="M6.84 24.59 C4.25 30.09, 1.61 37.12, -1.27 45.85 M6.84 24.59 C3.98 31.28, 1.65 39.23, -1.27 45.85" stroke="#2f9e44" stroke-width="1" fill="none"></path></g></g><mask></mask><g stroke-linecap="round"><g transform="translate(185.78770975598707 550.4781215560785) rotate(0 -0.8282655571534292 22.6746492386751)"><path d="M-0.32 0.16 C-0.6 7.61, -1.6 37.29, -1.77 44.92 M0.52 -0.24 C0.17 7.26, -1.91 37.84, -2.26 45.39" stroke="#2f9e44" stroke-width="1" fill="none"></path></g><g transform="translate(185.78770975598707 550.4781215560785) rotate(0 -0.8282655571534292 22.6746492386751)"><path d="M-8.77 23.66 C-6.63 29.52, -5.89 36.32, -2.26 45.39 M-8.77 23.66 C-6.3 32.2, -3.72 41.51, -2.26 45.39" stroke="#2f9e44" stroke-width="1" fill="none"></path></g><g transform="translate(185.78770975598707 550.4781215560785) rotate(0 -0.8282655571534292 22.6746492386751)"><path d="M6.73 24.56 C4.54 30.13, 0.96 36.67, -2.26 45.39 M6.73 24.56 C3.01 32.71, -0.6 41.66, -2.26 45.39" stroke="#2f9e44" stroke-width="1" fill="none"></path></g></g><mask></mask><g stroke-linecap="round"><g transform="translate(187.42030316563262 632.8482477445631) rotate(0 -0.8192626190776764 24.78748580390237)"><path d="M-0.11 -0.43 C-0.29 7.89, -1.07 41.83, -1.35 50.12 M0.83 0.53 C0.64 8.71, -1.13 41.22, -1.63 49.44" stroke="#2f9e44" stroke-width="1" fill="none"></path></g><g transform="translate(187.42030316563262 632.8482477445631) rotate(0 -0.8192626190776764 24.78748580390237)"><path d="M-8.78 25.69 C-7.8 31.97, -4.3 36.94, -1.63 49.44 M-8.78 25.69 C-7.1 32.24, -5.54 38.04, -1.63 49.44" stroke="#2f9e44" stroke-width="1" fill="none"></path></g><g transform="translate(187.42030316563262 632.8482477445631) rotate(0 -0.8192626190776764 24.78748580390237)"><path d="M8.16 26.65 C5.04 32.68, 4.45 37.42, -1.63 49.44 M8.16 26.65 C5.51 32.93, 2.76 38.49, -1.63 49.44" stroke="#2f9e44" stroke-width="1" fill="none"></path></g></g><mask></mask><g stroke-linecap="round"><g transform="translate(113.99292151788575 726.2945005822315) rotate(0 -49.93770361444132 -229.17448690841445)"><path d="M0.63 1.19 C-14.94 -8.48, -76.9 17.69, -93.69 -58.96 C-110.48 -135.61, -99.04 -392.34, -100.12 -458.71 M-0.49 0.77 C-16.23 -8.66, -78.04 18.68, -94.79 -57.71 C-111.54 -134.1, -100.13 -390.68, -101.01 -457.58" stroke="#f08c00" stroke-width="1" fill="none"></path></g><g transform="translate(113.99292151788575 726.2945005822315) rotate(0 -49.93770361444132 -229.17448690841445)"><path d="M-92.79 -433.97 C-92.92 -440.99, -98.09 -447.51, -101.01 -457.58 M-92.79 -433.97 C-95.72 -439.81, -96.19 -445.97, -101.01 -457.58" stroke="#f08c00" stroke-width="1" fill="none"></path></g><g transform="translate(113.99292151788575 726.2945005822315) rotate(0 -49.93770361444132 -229.17448690841445)"><path d="M-109.89 -434.21 C-105.24 -441.25, -105.65 -447.71, -101.01 -457.58 M-109.89 -434.21 C-108.2 -440.15, -104.06 -446.25, -101.01 -457.58" stroke="#f08c00" stroke-width="1" fill="none"></path></g></g><mask></mask><g transform="translate(71.38139424003873 395.4038402048053) rotate(0 10.359542846679688 8.312498702569712)"><text x="0" y="11.650798181521687" font-family="Virgil, Segoe UI Emoji" font-size="13.299997924111514px" fill="#f08c00" text-anchor="start" style="white-space: pre;" direction="ltr" dominant-baseline="alphabetic">yes</text></g><g transform="translate(201.40254349201064 474.83438336269285) rotate(0 7.9178466796875 9.697915152997837)"><text x="0" y="13.592597878441788" font-family="Virgil, Segoe UI Emoji" font-size="15.51666424479656px" fill="#f08c00" text-anchor="start" style="white-space: pre;" direction="ltr" dominant-baseline="alphabetic">no</text></g><g transform="translate(69.32655080122561 692.806571563411) rotate(0 10.359542846679688 8.312498702569712)"><text x="0" y="11.650798181521687" font-family="Virgil, Segoe UI Emoji" font-size="13.299997924111514px" fill="#f08c00" text-anchor="start" style="white-space: pre;" direction="ltr" dominant-baseline="alphabetic">yes</text></g><g mask="url(#mask-_npUCSufVHegWbNG8HcdE)" stroke-linecap="round"><g transform="translate(186.40353196933734 254.7619750912753) rotate(0 -1.3137086993421008 26.957397658359866)"><path d="M-0.92 0.54 C-1.11 9.47, -1.27 45.74, -1.45 54.71 M0.8 -0.22 C0.58 8.88, -1.24 44.27, -1.78 53.01" stroke="#2f9e44" stroke-width="1" fill="none"></path></g><g transform="translate(186.40353196933734 254.7619750912753) rotate(0 -1.3137086993421008 26.957397658359866)"><path d="M-9.02 29.08 C-5.89 37.7, -3.47 43.37, -1.78 53.01 M-9.02 29.08 C-6.36 37.77, -4.05 44.8, -1.78 53.01" stroke="#2f9e44" stroke-width="1" fill="none"></path></g><g transform="translate(186.40353196933734 254.7619750912753) rotate(0 -1.3137086993421008 26.957397658359866)"><path d="M8.06 30.03 C6.48 38.25, 4.19 43.66, -1.78 53.01 M8.06 30.03 C4.95 38.47, 1.51 45.19, -1.78 53.01" stroke="#2f9e44" stroke-width="1" fill="none"></path></g></g><mask id="mask-_npUCSufVHegWbNG8HcdE"><rect x="0" y="0" fill="#fff" width="289.0309493680215" height="408.67677040799504"></rect><rect x="163.0882516147218" y="273.40687404706557" fill="#000" width="44.003143310546875" height="16.62499740513939" opacity="1"></rect></mask><g transform="translate(163.0882516147218 273.40687404706557) rotate(0 22.8288909368776 8.603181708776106)"><text x="22.001571655273438" y="11.650798181521683" font-family="Virgil, Segoe UI Emoji" font-size="13.299997924111512px" fill="#2f9e44" text-anchor="middle" style="white-space: pre;" direction="ltr" dominant-baseline="alphabetic">service</text></g><g stroke-linecap="round" transform="translate(142.4985596309932 820.051199248218) rotate(0 49.87499221541816 22.19541866010104)"><path d="M70.84 1.81 C79.46 3.17, 88.01 6.91, 92.71 10.84 C97.41 14.77, 99.98 20.96, 99.04 25.39 C98.11 29.83, 93.66 34.39, 87.11 37.42 C80.55 40.45, 69.35 42.7, 59.7 43.59 C50.05 44.48, 38.07 44.41, 29.2 42.76 C20.33 41.11, 11.3 37.41, 6.49 33.69 C1.68 29.96, -0.73 24.76, 0.35 20.42 C1.42 16.07, 6.54 10.98, 12.93 7.63 C19.32 4.29, 27.6 0.81, 38.7 0.34 C49.79 -0.12, 71.89 3.76, 79.5 4.83 C87.12 5.9, 84.86 6.52, 84.38 6.76 M47.71 -0.27 C56.56 -0.84, 68.14 0.27, 76.18 2.92 C84.21 5.57, 92.22 11.23, 95.92 15.64 C99.62 20.05, 101.09 25.49, 98.37 29.36 C95.65 33.24, 87.33 36.19, 79.62 38.9 C71.92 41.61, 61.7 45.28, 52.14 45.63 C42.57 45.97, 30.36 43.68, 22.24 40.96 C14.12 38.24, 6.96 33.58, 3.4 29.29 C-0.15 25.01, -1.45 19.57, 0.9 15.26 C3.24 10.95, 9.59 6.12, 17.45 3.41 C25.31 0.7, 43.26 -0.66, 48.05 -1 C52.85 -1.34, 46.42 1.06, 46.22 1.37" stroke="#1e1e1e" stroke-width="1" fill="none"></path></g><g transform="translate(177.53576008164578 833.7395881599176) rotate(0 15.070846557617188 8.312498702569656)"><text x="15.070846557617188" y="11.650798181521683" font-family="Virgil, Segoe UI Emoji" font-size="13.299997924111512px" fill="#1e1e1e" text-anchor="middle" style="white-space: pre;" direction="ltr" dominant-baseline="alphabetic">dnat</text></g><g transform="translate(210.18104649082215 779.8641033152613) rotate(0 7.7085418701171875 9.443266393279828)"><text x="0" y="13.235682176821062" font-family="Virgil, Segoe UI Emoji" font-size="15.109226229247787px" fill="#f08c00" text-anchor="start" style="white-space: pre;" direction="ltr" dominant-baseline="alphabetic">no</text></g><g transform="translate(478.39214942409296 522.8837394154964) rotate(0 105.783935546875 60)"><text x="0" y="14.016" font-family="Virgil, Segoe UI Emoji" font-size="16px" fill="#1e1e1e" text-anchor="start" style="white-space: pre;" direction="ltr" dominant-baseline="alphabetic">key: backend_uid</text><text x="0" y="34.016" font-family="Virgil, Segoe UI Emoji" font-size="16px" fill="#1e1e1e" text-anchor="start" style="white-space: pre;" direction="ltr" dominant-baseline="alphabetic">val: ip</text><text x="0" y="54.016" font-family="Virgil, Segoe UI Emoji" font-size="16px" fill="#1e1e1e" text-anchor="start" style="white-space: pre;" direction="ltr" dominant-baseline="alphabetic">    service_count</text><text x="0" y="74.016" font-family="Virgil, Segoe UI Emoji" font-size="16px" fill="#1e1e1e" text-anchor="start" style="white-space: pre;" direction="ltr" dominant-baseline="alphabetic">    services[MAX_COUNT]</text><text x="0" y="94.016" font-family="Virgil, Segoe UI Emoji" font-size="16px" fill="#1e1e1e" text-anchor="start" style="white-space: pre;" direction="ltr" dominant-baseline="alphabetic">    waypoint_addr</text><text x="0" y="114.016" font-family="Virgil, Segoe UI Emoji" font-size="16px" fill="#1e1e1e" text-anchor="start" style="white-space: pre;" direction="ltr" dominant-baseline="alphabetic">    waypoint_port</text></g><g stroke-linecap="round" transform="translate(470.39214942409296 488.8837394154964) rotate(0 62.5 15)"><path d="M7.5 0 C45.73 -3.58, 77.25 -1.13, 117.5 0 C125.71 2.56, 124.08 0.55, 125 7.5 C125.52 8.22, 123.7 11.53, 125 22.5 C126.58 28.88, 119.39 27.38, 117.5 30 C81.77 26.72, 39.68 29.49, 7.5 30 C4.04 32.01, 0.66 26.77, 0 22.5 C-0.09 18.44, 2.52 12.47, 0 7.5 C-1.19 3.81, 1.77 3.34, 7.5 0" stroke="none" stroke-width="0" fill="#b2f2bb"></path><path d="M7.5 0 C44.58 0.01, 80.5 -2.57, 117.5 0 M7.5 0 C37.48 1.66, 67.29 1.09, 117.5 0 M117.5 0 C123.55 -1.34, 124.29 1.53, 125 7.5 M117.5 0 C123.15 0.81, 127.12 0.37, 125 7.5 M125 7.5 C124.34 11.22, 125.03 15.28, 125 22.5 M125 7.5 C125.05 11.96, 125.77 16.33, 125 22.5 M125 22.5 C126.66 29.36, 123.7 31.62, 117.5 30 M125 22.5 C126.45 29.09, 122.52 28.27, 117.5 30 M117.5 30 C79.69 30.59, 43.69 30.67, 7.5 30 M117.5 30 C90.23 30.21, 61.86 31.22, 7.5 30 M7.5 30 C1.53 29.46, -0.7 26.86, 0 22.5 M7.5 30 C3.73 28.26, 0.18 27.11, 0 22.5 M0 22.5 C-0.5 17.81, -1.11 12.37, 0 7.5 M0 22.5 C-0.27 17.14, 0.27 12.09, 0 7.5 M0 7.5 C-1.06 2.92, 2.3 -1.87, 7.5 0 M0 7.5 C1.65 3.71, 2.2 2.29, 7.5 0" stroke="#1e1e1e" stroke-width="1" fill="none"></path></g><g transform="translate(502.91616675807734 493.8837394154964) rotate(0 29.975982666015625 10)"><text x="29.975982666015625" y="14.016" font-family="Virgil, Segoe UI Emoji" font-size="16px" fill="#1e1e1e" text-anchor="middle" style="white-space: pre;" direction="ltr" dominant-baseline="alphabetic">backend</text></g><g transform="translate(468.381468271749 388.21707274882976) rotate(0 71.49596405029297 30)"><text x="0" y="14.016" font-family="Virgil, Segoe UI Emoji" font-size="16px" fill="#1e1e1e" text-anchor="start" style="white-space: pre;" direction="ltr" dominant-baseline="alphabetic">key: service_id</text><text x="0" y="34.016" font-family="Virgil, Segoe UI Emoji" font-size="16px" fill="#1e1e1e" text-anchor="start" style="white-space: pre;" direction="ltr" dominant-baseline="alphabetic">    backend_index</text><text x="0" y="54.016" font-family="Virgil, Segoe UI Emoji" font-size="16px" fill="#1e1e1e" text-anchor="start" style="white-space: pre;" direction="ltr" dominant-baseline="alphabetic">val: backend_uid</text></g><g stroke-linecap="round" transform="translate(470.1142868752646 342.550406082163) rotate(0 62.5 15)"><path d="M7.5 0 C35.78 2.64, 56.71 -1.87, 117.5 0 C119.02 -0.55, 126.61 3.25, 125 7.5 C126.06 11.74, 122.54 11.95, 125 22.5 C126.43 28.12, 120.81 31.65, 117.5 30 C93.24 32.24, 66.57 29.5, 7.5 30 C0.85 31.19, -2.19 27.5, 0 22.5 C-1.15 19.12, -0.81 16.27, 0 7.5 C0.94 0.62, 3.06 2.33, 7.5 0" stroke="none" stroke-width="0" fill="#b2f2bb"></path><path d="M7.5 0 C45.27 -0.74, 82.49 0.46, 117.5 0 M7.5 0 C49.81 -0.93, 90.71 -0.74, 117.5 0 M117.5 0 C123.07 0.7, 126.84 0.65, 125 7.5 M117.5 0 C122.44 -2.03, 124.47 1.7, 125 7.5 M125 7.5 C124.6 12.5, 125.09 14.88, 125 22.5 M125 7.5 C125.75 13.45, 125.58 18.61, 125 22.5 M125 22.5 C126.26 28.88, 122.51 28.5, 117.5 30 M125 22.5 C125.94 25.66, 120.39 29.65, 117.5 30 M117.5 30 C74.71 32.81, 35.47 31.52, 7.5 30 M117.5 30 C91.2 30.12, 65.53 30.07, 7.5 30 M7.5 30 C3.57 28.49, 0.16 27.16, 0 22.5 M7.5 30 C3.51 29.37, -0.01 26.67, 0 22.5 M0 22.5 C1.1 17.93, -1.28 12.1, 0 7.5 M0 22.5 C-0.46 17.9, -0.14 12.28, 0 7.5 M0 7.5 C1.43 3.55, 2.24 1.99, 7.5 0 M0 7.5 C0.51 1.61, 3.64 1.79, 7.5 0" stroke="#1e1e1e" stroke-width="1" fill="none"></path></g><g transform="translate(501.5663056130576 347.550406082163) rotate(0 31.04798126220703 10)"><text x="31.04798126220703" y="14.016" font-family="Virgil, Segoe UI Emoji" font-size="16px" fill="#1e1e1e" text-anchor="middle" style="white-space: pre;" direction="ltr" dominant-baseline="alphabetic">endpoint</text></g><g transform="translate(472.27781325892204 61.55043030246338) rotate(0 66.03994750976562 20)"><text x="0" y="14.016" font-family="Virgil, Segoe UI Emoji" font-size="16px" fill="#1e1e1e" text-anchor="start" style="white-space: pre;" direction="ltr" dominant-baseline="alphabetic">key: ip</text><text x="0" y="34.016" font-family="Virgil, Segoe UI Emoji" font-size="16px" fill="#1e1e1e" text-anchor="start" style="white-space: pre;" direction="ltr" dominant-baseline="alphabetic">val: upstream_id</text></g><g stroke-linecap="round" transform="translate(461.1937754781603 21.550430302463326) rotate(0 62.5 15)"><path d="M7.5 0 C40.03 2.51, 79.45 -2.19, 117.5 0 C119.88 1.43, 125.62 0.81, 125 7.5 C125.13 13.84, 126.33 18.37, 125 22.5 C124.27 25.85, 123.69 27.81, 117.5 30 C81.29 30.73, 52.79 31.19, 7.5 30 C5.84 30.94, -1.88 28.06, 0 22.5 C0.88 15.19, 1.44 13.25, 0 7.5 C3.25 3.32, 5.59 -1.88, 7.5 0" stroke="none" stroke-width="0" fill="#b2f2bb"></path><path d="M7.5 0 C45.28 0.96, 85.71 2.23, 117.5 0 M7.5 0 C30.08 0.62, 52.63 1.08, 117.5 0 M117.5 0 C120.98 -0.55, 126.65 2.6, 125 7.5 M117.5 0 C122.27 1.15, 126.99 4.54, 125 7.5 M125 7.5 C126.36 14.19, 126.18 19, 125 22.5 M125 7.5 C124.37 10.76, 125.66 14.69, 125 22.5 M125 22.5 C126.68 26.51, 124.39 31.56, 117.5 30 M125 22.5 C125.69 26, 121.35 30.82, 117.5 30 M117.5 30 C89.2 30.69, 60.68 29.77, 7.5 30 M117.5 30 C86.34 29.34, 55.51 28.93, 7.5 30 M7.5 30 C2.74 31.31, 0.53 25.63, 0 22.5 M7.5 30 C1.8 30.4, 0.96 29.24, 0 22.5 M0 22.5 C-1.44 19.87, 0.75 14.9, 0 7.5 M0 22.5 C0.34 17.09, -0.57 10.29, 0 7.5 M0 7.5 C-0.08 4.28, 3.92 -0.51, 7.5 0 M0 7.5 C-1.25 0.27, 2.15 1.03, 7.5 0" stroke="#1e1e1e" stroke-width="1" fill="none"></path></g><g transform="translate(491.01379806116813 26.550430302463326) rotate(0 32.67997741699219 10)"><text x="32.67997741699219" y="14.016" font-family="Virgil, Segoe UI Emoji" font-size="16px" fill="#1e1e1e" text-anchor="middle" style="white-space: pre;" direction="ltr" dominant-baseline="alphabetic">frontend</text></g><g stroke-linecap="round"><g transform="translate(506.48465914485257 722.3969540112306) rotate(0 35.625 -0.625)"><path d="M-0.28 -0.42 C11.51 -0.43, 58.89 -0.92, 70.66 -1.12 M1.78 -1.68 C13.96 -1.39, 61.23 0.28, 73.06 0.49" stroke="#2f9e44" stroke-width="1" fill="none"></path></g><g transform="translate(506.48465914485257 722.3969540112306) rotate(0 35.625 -0.625)"><path d="M49.34 8.39 C55.77 5.11, 63.74 2.22, 73.06 0.49 M49.34 8.39 C55.64 6.73, 63.06 4.96, 73.06 0.49" stroke="#2f9e44" stroke-width="1" fill="none"></path></g><g transform="translate(506.48465914485257 722.3969540112306) rotate(0 35.625 -0.625)"><path d="M49.82 -8.71 C55.95 -6.9, 63.78 -4.7, 73.06 0.49 M49.82 -8.71 C56.12 -5.71, 63.42 -2.82, 73.06 0.49" stroke="#2f9e44" stroke-width="1" fill="none"></path></g></g><mask></mask><g stroke-linecap="round"><g transform="translate(507.1026932587923 764.0069877647442) rotate(0 35.625 -0.625)"><path d="M-0.59 0.13 C11.18 -0.06, 58.2 -1.36, 70.34 -1.58 M1.3 -0.85 C13.47 -0.83, 60.79 -0.39, 72.57 -0.22" stroke="#1971c2" stroke-width="1" fill="none"></path></g><g transform="translate(507.1026932587923 764.0069877647442) rotate(0 35.625 -0.625)"><path d="M48.98 8.07 C55.76 4.37, 61.52 5.24, 72.57 -0.22 M48.98 8.07 C57.05 6.31, 64.2 3.83, 72.57 -0.22" stroke="#1971c2" stroke-width="1" fill="none"></path></g><g transform="translate(507.1026932587923 764.0069877647442) rotate(0 35.625 -0.625)"><path d="M49.18 -9.03 C55.84 -8, 61.55 -2.39, 72.57 -0.22 M49.18 -9.03 C57.16 -5.58, 64.26 -2.85, 72.57 -0.22" stroke="#1971c2" stroke-width="1" fill="none"></path></g></g><mask></mask><g transform="translate(603.9846591448526 711.1469540112305) rotate(0 67.24609375 11.500000000000057)"><text x="0" y="18.400390625" font-family="Helvetica, Segoe UI Emoji" font-size="20px" fill="#1e1e1e" text-anchor="start" style="white-space: pre;" direction="ltr" dominant-baseline="alphabetic">Service access</text></g><g transform="translate(604.9370691615937 751.1469540112306) rotate(0 51.6943359375 11.5)"><text x="0" y="18.400390625" font-family="Helvetica, Segoe UI Emoji" font-size="20px" fill="#1e1e1e" text-anchor="start" style="white-space: pre;" direction="ltr" dominant-baseline="alphabetic">Pod access</text></g><g stroke-linecap="round"><g transform="translate(505.12685206549975 808.7569877647442) rotate(0 35.625 -0.625)"><path d="M-0.12 0.6 C11.76 0.56, 60.23 -0.06, 72.29 -0.19 M-1.64 -0.13 C10.09 -0.49, 59.61 -1.46, 71.89 -1.75" stroke="#f08c00" stroke-width="1" fill="none"></path></g><g transform="translate(505.12685206549975 808.7569877647442) rotate(0 35.625 -0.625)"><path d="M48.58 7.31 C58.49 5.6, 68.17 2.07, 71.89 -1.75 M48.58 7.31 C58.32 4.25, 66.86 -0.76, 71.89 -1.75" stroke="#f08c00" stroke-width="1" fill="none"></path></g><g transform="translate(505.12685206549975 808.7569877647442) rotate(0 35.625 -0.625)"><path d="M48.21 -9.79 C58.27 -4.96, 68.09 -1.96, 71.89 -1.75 M48.21 -9.79 C58.2 -6.13, 66.88 -4.41, 71.89 -1.75" stroke="#f08c00" stroke-width="1" fill="none"></path></g></g><mask></mask><g transform="translate(602.00881795156 795.8969540112306) rotate(0 75.21484375 11.5)"><text x="0" y="18.400390625" font-family="Helvetica, Segoe UI Emoji" font-size="20px" fill="#f08c00" text-anchor="start" style="white-space: pre;" direction="ltr" dominant-baseline="alphabetic">Waypoint access</text></g><g transform="translate(465.1595003626775 171.66153414748396) rotate(0 124.38391876220703 70)"><text x="0" y="14.016" font-family="Virgil, Segoe UI Emoji" font-size="16px" fill="#1e1e1e" text-anchor="start" style="white-space: pre;" direction="ltr" dominant-baseline="alphabetic">key: service_id</text><text x="0" y="34.016" font-family="Virgil, Segoe UI Emoji" font-size="16px" fill="#1e1e1e" text-anchor="start" style="white-space: pre;" direction="ltr" dominant-baseline="alphabetic">val: endpoint_count</text><text x="0" y="54.016" font-family="Virgil, Segoe UI Emoji" font-size="16px" fill="#1e1e1e" text-anchor="start" style="white-space: pre;" direction="ltr" dominant-baseline="alphabetic">    lb_policy</text><text x="0" y="74.016" font-family="Virgil, Segoe UI Emoji" font-size="16px" fill="#1e1e1e" text-anchor="start" style="white-space: pre;" direction="ltr" dominant-baseline="alphabetic">    service_port[MAX_COUNT]</text><text x="0" y="94.016" font-family="Virgil, Segoe UI Emoji" font-size="16px" fill="#1e1e1e" text-anchor="start" style="white-space: pre;" direction="ltr" dominant-baseline="alphabetic">    target_port[MAX_COUNT]</text><text x="0" y="114.016" font-family="Virgil, Segoe UI Emoji" font-size="16px" fill="#1e1e1e" text-anchor="start" style="white-space: pre;" direction="ltr" dominant-baseline="alphabetic">    waypoint_addr</text><text x="0" y="134.016" font-family="Virgil, Segoe UI Emoji" font-size="16px" fill="#1e1e1e" text-anchor="start" style="white-space: pre;" direction="ltr" dominant-baseline="alphabetic">    waypoint_port</text></g><g stroke-linecap="round" transform="translate(459.8923528746135 132.77264525859533) rotate(0 62.5 15)"><path d="M7.5 0 C44.83 0.52, 90.73 1.82, 117.5 0 C119.4 -1.68, 122.25 4.08, 125 7.5 C125.84 13.04, 123.5 18.89, 125 22.5 C122.64 24.43, 122.92 31.54, 117.5 30 C76.71 30.78, 37.02 29.6, 7.5 30 C2.18 33.49, -3.2 26.31, 0 22.5 C0.76 16.04, 0.48 14.15, 0 7.5 C2.68 4.48, 3.95 -2.45, 7.5 0" stroke="none" stroke-width="0" fill="#b2f2bb"></path><path d="M7.5 0 C33.14 -0.95, 56.06 1.28, 117.5 0 M7.5 0 C33.4 0.89, 59.66 -0.39, 117.5 0 M117.5 0 C122.45 -1.77, 124.54 1.8, 125 7.5 M117.5 0 C121.37 0.25, 123.25 1.86, 125 7.5 M125 7.5 C125.76 14.53, 126.34 20.22, 125 22.5 M125 7.5 C125.56 13.92, 125.09 18.73, 125 22.5 M125 22.5 C125.82 25.9, 120.67 29.7, 117.5 30 M125 22.5 C126.84 28.88, 124.43 28.87, 117.5 30 M117.5 30 C72.81 29.34, 31.44 29.36, 7.5 30 M117.5 30 C88.02 28.89, 57.56 29.48, 7.5 30 M7.5 30 C3.38 29.45, -0.01 26.78, 0 22.5 M7.5 30 C3.22 28.24, 0.28 29.01, 0 22.5 M0 22.5 C0.4 18.23, 1.27 11.91, 0 7.5 M0 22.5 C0.55 18.08, -0.08 13.62, 0 7.5 M0 7.5 C0.44 1.72, 3.49 1.56, 7.5 0 M0 7.5 C-1.66 1.81, 2.4 2.05, 7.5 0" stroke="#1e1e1e" stroke-width="1" fill="none"></path></g><g transform="translate(495.9043691710002 137.77264525859533) rotate(0 26.48798370361328 10)"><text x="26.48798370361328" y="14.016" font-family="Virgil, Segoe UI Emoji" font-size="16px" fill="#1e1e1e" text-anchor="middle" style="white-space: pre;" direction="ltr" dominant-baseline="alphabetic">service</text></g><g stroke-linecap="round"><g transform="translate(786.785231936842 240.93931192526134) rotate(0 0 0)"><path d="M0.22 0.25 C0.19 0.15, 0.02 -0.18, 0 -0.27 M-0.09 0.06 C-0.19 -0.02, -0.29 0.07, -0.27 0.05" stroke="#1971c2" stroke-width="1" fill="none"></path></g><g transform="translate(786.785231936842 240.93931192526134) rotate(0 0 0)"><path d="M-0.27 0.05 C-0.27 0.05, -0.27 0.05, -0.27 0.05 M-0.27 0.05 C-0.27 0.05, -0.27 0.05, -0.27 0.05" stroke="#1971c2" stroke-width="1" fill="none"></path></g><g transform="translate(786.785231936842 240.93931192526134) rotate(0 0 0)"><path d="M-0.27 0.05 C-0.27 0.05, -0.27 0.05, -0.27 0.05 M-0.27 0.05 C-0.27 0.05, -0.27 0.05, -0.27 0.05" stroke="#1971c2" stroke-width="1" fill="none"></path></g></g><mask></mask><g stroke-linecap="round" transform="translate(282.2619477564564 598.6501375792038) rotate(0 63.267351236224954 16.624997405139368)"><path d="M8.31 0 C42.79 -1.78, 77.19 1.56, 118.22 0 M8.31 0 C46.23 1.76, 82.59 0.28, 118.22 0 M118.22 0 C122.27 1.44, 124.96 0.97, 126.53 8.31 M118.22 0 C124.02 1.09, 126.95 4.54, 126.53 8.31 M126.53 8.31 C128.04 15.05, 126.18 17.17, 126.53 24.94 M126.53 8.31 C127.16 11.66, 126.99 15.97, 126.53 24.94 M126.53 24.94 C124.62 32.4, 124.31 33.73, 118.22 33.25 M126.53 24.94 C126.27 31.15, 125.16 32.47, 118.22 33.25 M118.22 33.25 C92.97 34.83, 64.85 36.1, 8.31 33.25 M118.22 33.25 C92.02 32.88, 64.25 33.71, 8.31 33.25 M8.31 33.25 C1.12 31.67, 0.33 30.75, 0 24.94 M8.31 33.25 C4.64 33.61, -0.92 28.57, 0 24.94 M0 24.94 C-1.15 20.72, 0.09 19.67, 0 8.31 M0 24.94 C0.65 19.17, -0.36 12.97, 0 8.31 M0 8.31 C0.51 0.96, 3.66 -0.8, 8.31 0 M0 8.31 C-1.96 3.46, 2.45 -1.79, 8.31 0" stroke="#1e1e1e" stroke-width="1" fill="none"></path></g><g transform="translate(320.6305105405328 606.9626362817735) rotate(0 24.898788452148438 8.312498702569712)"><text x="24.898788452148438" y="11.650798181521683" font-family="Virgil, Segoe UI Emoji" font-size="13.299997924111512px" fill="#1e1e1e" text-anchor="middle" style="white-space: pre;" direction="ltr" dominant-baseline="alphabetic">backend</text></g><g stroke-linecap="round"><g transform="translate(344.96925172642443 633.5820294380884) rotate(0 -1.3941092256397951 24.420594957139713)"><path d="M0.3 -0.48 C-0.26 7.63, -2.63 40.28, -3.12 48.48 M-0.22 0.46 C-0.61 8.65, -1.61 40.86, -2.05 48.99" stroke="#1971c2" stroke-width="1" fill="none"></path></g><g transform="translate(344.96925172642443 633.5820294380884) rotate(0 -1.3941092256397951 24.420594957139713)"><path d="M-9.46 25.68 C-7.85 33.02, -5.11 41.9, -2.05 48.99 M-9.46 25.68 C-7.81 32.16, -5.78 38.77, -2.05 48.99" stroke="#1971c2" stroke-width="1" fill="none"></path></g><g transform="translate(344.96925172642443 633.5820294380884) rotate(0 -1.3941092256397951 24.420594957139713)"><path d="M7.25 26.37 C3.17 33.52, 0.2 42.17, -2.05 48.99 M7.25 26.37 C4.32 32.65, 1.78 39.07, -2.05 48.99" stroke="#1971c2" stroke-width="1" fill="none"></path></g></g><mask></mask><g transform="translate(374.85767467278686 784.0330293247249) rotate(0 7.7085418701171875 9.443266393279828)"><text x="0" y="13.235682176821062" font-family="Virgil, Segoe UI Emoji" font-size="15.109226229247787px" fill="#f08c00" text-anchor="start" style="white-space: pre;" direction="ltr" dominant-baseline="alphabetic">no</text></g><g stroke-linecap="round" transform="translate(295.6879128939705 818.5556801736103) rotate(0 50.00001695421008 24.5)"><path d="M63.76 1.57 C72.13 2.14, 81.06 4.51, 86.91 7.78 C92.76 11.05, 97.48 16.73, 98.83 21.2 C100.18 25.67, 98.69 30.64, 94.99 34.6 C91.28 38.57, 83.84 42.48, 76.59 45 C69.35 47.52, 60.34 49.85, 51.51 49.74 C42.68 49.63, 31.31 46.69, 23.63 44.34 C15.94 42, 9.28 39.35, 5.42 35.66 C1.56 31.97, -0.76 26.83, 0.47 22.21 C1.7 17.59, 6.93 11.38, 12.8 7.94 C18.68 4.5, 25.65 2.59, 35.74 1.56 C45.83 0.54, 66.05 1.05, 73.34 1.78 C80.63 2.52, 80.11 5.34, 79.48 5.96 M28.99 3.59 C36.14 1.35, 46.99 -0.98, 56.05 -0.65 C65.12 -0.33, 76.46 2.63, 83.39 5.54 C90.32 8.45, 95.28 12.73, 97.63 16.83 C99.98 20.94, 100.2 26.01, 97.49 30.18 C94.78 34.35, 88.04 38.93, 81.4 41.86 C74.76 44.79, 66.38 47, 57.66 47.75 C48.93 48.51, 37.09 47.95, 29.04 46.4 C20.98 44.84, 14.05 41.95, 9.31 38.43 C4.57 34.9, 0.92 29.99, 0.57 25.26 C0.22 20.53, 2.27 14.06, 7.21 10.06 C12.16 6.07, 26.49 2.36, 30.23 1.3 C33.98 0.24, 29.43 3, 29.71 3.71" stroke="#1e1e1e" stroke-width="1" fill="none"></path></g><g transform="translate(321.7765943033461 833.2315640345399) rotate(0 24.055984497070312 10)"><text x="24.055984497070312" y="14.016" font-family="Virgil, Segoe UI Emoji" font-size="16px" fill="#1e1e1e" text-anchor="middle" style="white-space: pre;" direction="ltr" dominant-baseline="alphabetic">return</text></g><g stroke-linecap="round" transform="translate(118.65092268284684 683.4232193523679) rotate(0 143.8095092773437 46.666652134486526)"><path d="M23.33 0 C115.09 -1.25, 209.21 0.93, 264.29 0 M23.33 0 C107.05 1.53, 191.06 2.07, 264.29 0 M264.29 0 C279.15 -0.66, 288.09 7.83, 287.62 23.33 M264.29 0 C281.75 1.95, 288.29 7.35, 287.62 23.33 M287.62 23.33 C287.32 38.98, 289.37 57.23, 287.62 70 M287.62 23.33 C288.01 40.34, 286.55 55.38, 287.62 70 M287.62 70 C287.6 84.79, 277.94 92.75, 264.29 93.33 M287.62 70 C287.34 87.53, 281.44 93.93, 264.29 93.33 M264.29 93.33 C214.69 94.86, 165.25 93.68, 23.33 93.33 M264.29 93.33 C214.58 93.96, 163.51 93.19, 23.33 93.33 M23.33 93.33 C8.09 92.53, -1.13 84.83, 0 70 M23.33 93.33 C5.54 93.7, -1.69 83.53, 0 70 M0 70 C1.31 55.17, -1.74 39.77, 0 23.33 M0 70 C-0.4 53.68, -1.04 37.63, 0 23.33 M0 23.33 C0.91 8.05, 7.03 0.54, 23.33 0 M0 23.33 C1.58 9.86, 9.73 0.01, 23.33 0" stroke="#f08c00" stroke-width="1" fill="none"></path></g><g transform="translate(200.26846113499528 720.0898714868546) rotate(0 62.191970825195256 10)"><text x="62.19197082519531" y="14.016" font-family="Virgil, Segoe UI Emoji" font-size="16px" fill="#f08c00" text-anchor="middle" style="white-space: pre;" direction="ltr" dominant-baseline="alphabetic">have waypoint？</text></g><g stroke-linecap="round"><g transform="translate(190.5016135076586 777.7565236213408) rotate(0 -0.04113769415181423 19.980931751313165)"><path d="M-0.33 -0.46 C-0.4 6.06, 0.06 32.74, 0.02 39.5 M0.5 0.49 C0.32 7.04, -0.36 33.25, -0.36 39.96" stroke="#2f9e44" stroke-width="1" fill="none"></path></g><g transform="translate(190.5016135076586 777.7565236213408) rotate(0 -0.04113769415181423 19.980931751313165)"><path d="M-6.91 21.08 C-5.17 28.54, -2.66 34.73, -0.36 39.96 M-6.91 21.08 C-5.19 26.74, -3.24 33.65, -0.36 39.96" stroke="#2f9e44" stroke-width="1" fill="none"></path></g><g transform="translate(190.5016135076586 777.7565236213408) rotate(0 -0.04113769415181423 19.980931751313165)"><path d="M6.75 21.29 C3.24 28.63, 0.5 34.74, -0.36 39.96 M6.75 21.29 C4.05 26.85, 1.57 33.69, -0.36 39.96" stroke="#2f9e44" stroke-width="1" fill="none"></path></g></g><mask></mask><g stroke-linecap="round"><g transform="translate(341.82626166743114 777.756523621341) rotate(0 0.014934356416688388 19.511000319119262)"><path d="M0.21 -0.21 C0.28 6.29, 0.2 32.81, 0.24 39.26 M-0.35 -0.79 C-0.31 5.51, -0.19 31.81, -0.09 38.41" stroke="#1971c2" stroke-width="1" fill="none"></path></g><g transform="translate(341.82626166743114 777.756523621341) rotate(0 0.014934356416688388 19.511000319119262)"><path d="M-6.93 20.14 C-5.45 25.34, -2.84 30.53, -0.09 38.41 M-6.93 20.14 C-5.12 24.24, -4.64 27.11, -0.09 38.41" stroke="#1971c2" stroke-width="1" fill="none"></path></g><g transform="translate(341.82626166743114 777.756523621341) rotate(0 0.014934356416688388 19.511000319119262)"><path d="M6.41 20.01 C4.36 25.27, 3.43 30.49, -0.09 38.41 M6.41 20.01 C5.55 24.16, 3.36 27.05, -0.09 38.41" stroke="#1971c2" stroke-width="1" fill="none"></path></g></g><mask></mask></svg>