<svg version="1.1" xmlns="http://www.w3.org/2000/svg" viewBox="0 0 880.9285714285706 404.3021562776703" width="880.9285714285706" height="404.3021562776703">
  <!-- svg-source:excalidraw -->
  
  <defs>
    <style class="style-fonts">
      @font-face {
        font-family: "Virgil";
        src: url("https://excalidraw.com/Virgil.woff2");
      }
      @font-face {
        font-family: "Cascadia";
        src: url("https://excalidraw.com/Cascadia.woff2");
      }
      @font-face {
        font-family: "Assistant";
        src: url("https://excalidraw.com/Assistant-Regular.woff2");
      }
    </style>
    
  </defs>
  <rect x="0" y="0" width="880.9285714285706" height="404.3021562776703" fill="#ffffff"></rect><g transform="translate(52.580047607421875 142.55669350772223) rotate(0 65.43196105957031 30)"><text x="0" y="0" font-family="Virgil, Segoe UI Emoji" font-size="16px" fill="#1e1e1e" text-anchor="start" style="white-space: pre;" direction="ltr" dominant-baseline="text-before-edge">key: ip</text><text x="0" y="20" font-family="Virgil, Segoe UI Emoji" font-size="16px" fill="#1e1e1e" text-anchor="start" style="white-space: pre;" direction="ltr" dominant-baseline="text-before-edge">    service_port</text><text x="0" y="40" font-family="Virgil, Segoe UI Emoji" font-size="16px" fill="#1e1e1e" text-anchor="start" style="white-space: pre;" direction="ltr" dominant-baseline="text-before-edge">val: service_id</text></g><g stroke-linecap="round" transform="translate(49.496009826660156 101.55669350772223) rotate(0 62.5 15)"><path d="M7.5 0 C44.88 -1.91, 78.58 0.15, 117.5 0 C119.96 -3.07, 124.04 0.8, 125 7.5 C126.56 10.66, 127.03 14.33, 125 22.5 C121.54 25.08, 125.61 31.86, 117.5 30 C83.51 29.39, 51.35 28.86, 7.5 30 C4.62 30.22, 3.38 30.34, 0 22.5 C1.88 15.28, -1.82 10.71, 0 7.5 C-1 2.71, 5.23 -2.28, 7.5 0" stroke="none" stroke-width="0" fill="#b2f2bb"></path><path d="M7.5 0 C41.24 -0.16, 75.41 -2.87, 117.5 0 M7.5 0 C31.78 0.77, 56.52 0.51, 117.5 0 M117.5 0 C120.61 1.77, 125.81 0.93, 125 7.5 M117.5 0 C124.64 0.64, 125.13 4.37, 125 7.5 M125 7.5 C126.1 10.43, 125.17 15.66, 125 22.5 M125 7.5 C125.37 13.89, 124.86 19.53, 125 22.5 M125 22.5 C124.14 29.1, 120.92 29.41, 117.5 30 M125 22.5 C122.8 26.83, 122.4 29.07, 117.5 30 M117.5 30 C82.88 29.16, 47.34 31.77, 7.5 30 M117.5 30 C75.11 28.77, 32.95 29.49, 7.5 30 M7.5 30 C1.57 31.48, 0.86 25.59, 0 22.5 M7.5 30 C1.79 30.4, 1.55 27.35, 0 22.5 M0 22.5 C0.04 18.8, 0.7 16.52, 0 7.5 M0 22.5 C0.26 19.04, -0.25 13.96, 0 7.5 M0 7.5 C0.3 4.04, 4.47 -1.81, 7.5 0 M0 7.5 C1.17 3.21, 1.48 0.55, 7.5 0" stroke="#1e1e1e" stroke-width="1" fill="none"></path></g><g transform="translate(79.31603240966797 106.55669350772223) rotate(0 32.67997741699219 10)"><text x="32.67997741699219" y="0" font-family="Virgil, Segoe UI Emoji" font-size="16px" fill="#1e1e1e" text-anchor="middle" style="white-space: pre;" direction="ltr" dominant-baseline="text-before-edge">frontend</text></g><g stroke-linecap="round" transform="translate(31 84.55669350772223) rotate(0 91 67.5)"><path d="M32 0 C70.99 2.83, 111.62 1.47, 150 0 M32 0 C65.17 1.32, 100.64 -0.35, 150 0 M150 0 C173.2 0.55, 182.11 12.29, 182 32 M150 0 C170.42 -0.78, 183.89 12.43, 182 32 M182 32 C183.97 50.51, 182.77 65.92, 182 103 M182 32 C181.3 58.78, 180.95 83.66, 182 103 M182 103 C180.09 123.75, 171.25 134.19, 150 135 M182 103 C182.59 122.58, 172.81 136.37, 150 135 M150 135 C125.32 136.59, 95.54 134.44, 32 135 M150 135 C116.33 136.37, 84.02 134.68, 32 135 M32 135 C10.05 135.35, 1.35 124.2, 0 103 M32 135 C8.72 135.52, 0.68 124.45, 0 103 M0 103 C-0.87 83.06, -0.2 65.36, 0 32 M0 103 C0.45 76.33, 1.28 47.22, 0 32 M0 32 C1.02 11.28, 9.78 0.48, 32 0 M0 32 C0.84 10.27, 9.69 0.24, 32 0" stroke="#1e1e1e" stroke-width="1" fill="none"></path></g><g transform="translate(35.40204620361328 333.05669350772223) rotate(0 76.46395874023438 20)"><text x="0" y="0" font-family="Virgil, Segoe UI Emoji" font-size="16px" fill="#1e1e1e" text-anchor="start" style="white-space: pre;" direction="ltr" dominant-baseline="text-before-edge">key: service_id</text><text x="0" y="20" font-family="Virgil, Segoe UI Emoji" font-size="16px" fill="#1e1e1e" text-anchor="start" style="white-space: pre;" direction="ltr" dominant-baseline="text-before-edge">val: endpoint_count</text></g><g stroke-linecap="round" transform="translate(32.496009826660156 294.05669350772223) rotate(0 62.5 15)"><path d="M7.5 0 C30.81 3.18, 55.91 2.79, 117.5 0 C120.9 2.48, 122.47 -0.96, 125 7.5 C124.88 10.54, 123 12.67, 125 22.5 C126.03 24.5, 123 32.12, 117.5 30 C86.16 29.63, 51.04 33.87, 7.5 30 C0.17 27.38, -1.13 26.5, 0 22.5 C1.29 16.87, -1.03 15.73, 0 7.5 C0.59 3.85, 3.78 -2.33, 7.5 0" stroke="none" stroke-width="0" fill="#b2f2bb"></path><path d="M7.5 0 C49.89 1.49, 91.98 -2.11, 117.5 0 M7.5 0 C51.18 1.14, 93.05 1.67, 117.5 0 M117.5 0 C121.71 -0.67, 126.64 4.03, 125 7.5 M117.5 0 C121 0.34, 125.53 4.64, 125 7.5 M125 7.5 C126.04 12.83, 125.52 18.64, 125 22.5 M125 7.5 C124.16 12.98, 124.85 18.6, 125 22.5 M125 22.5 C125.51 25.97, 123.78 31.19, 117.5 30 M125 22.5 C123.22 29.18, 123.72 31.84, 117.5 30 M117.5 30 C78.83 27.43, 41.98 28.41, 7.5 30 M117.5 30 C76.06 29.13, 35.92 28.89, 7.5 30 M7.5 30 C0.8 30.45, 0.59 27.6, 0 22.5 M7.5 30 C1.78 31.13, 0.72 26.91, 0 22.5 M0 22.5 C1.29 18.01, -0.65 15.01, 0 7.5 M0 22.5 C0.23 17.08, -0.48 11.37, 0 7.5 M0 7.5 C0.73 2.16, 1.65 0.21, 7.5 0 M0 7.5 C-1.76 0.63, 2.05 -1.62, 7.5 0" stroke="#1e1e1e" stroke-width="1" fill="none"></path></g><g transform="translate(67.25802612304688 299.05669350772223) rotate(0 26.48798370361328 10)"><text x="26.48798370361328" y="0" font-family="Virgil, Segoe UI Emoji" font-size="16px" fill="#1e1e1e" text-anchor="middle" style="white-space: pre;" direction="ltr" dominant-baseline="text-before-edge">service</text></g><g stroke-linecap="round" transform="translate(10 280.05669350772223) rotate(0 97.5 51)"><path d="M25.5 0 C82.77 2.18, 134.94 3.23, 169.5 0 M25.5 0 C72.28 -1.51, 120.68 -0.4, 169.5 0 M169.5 0 C185.19 0.29, 195.46 10.36, 195 25.5 M169.5 0 C188.64 0.76, 195.7 10.01, 195 25.5 M195 25.5 C196.76 37.31, 194.57 50.37, 195 76.5 M195 25.5 C195.23 38.56, 195.62 53.73, 195 76.5 M195 76.5 C193.45 94.96, 187.56 103.6, 169.5 102 M195 76.5 C196.11 91.31, 185.13 101.57, 169.5 102 M169.5 102 C141.58 102.19, 108.79 100.71, 25.5 102 M169.5 102 C122.92 102.13, 78.32 101.96, 25.5 102 M25.5 102 C7.87 102.99, 0.63 92.98, 0 76.5 M25.5 102 C7.52 102.17, 0.59 95.49, 0 76.5 M0 76.5 C1.75 65.31, -1.59 51.2, 0 25.5 M0 76.5 C0.59 59.46, -0.2 42.88, 0 25.5 M0 25.5 C-1.53 6.88, 8.11 -1.41, 25.5 0 M0 25.5 C-1.96 7.89, 7.42 -0.21, 25.5 0" stroke="#1e1e1e" stroke-width="1" fill="none"></path></g><g transform="translate(621.9020462036133 123.80669350772223) rotate(0 71.49596405029297 30)"><text x="0" y="0" font-family="Virgil, Segoe UI Emoji" font-size="16px" fill="#1e1e1e" text-anchor="start" style="white-space: pre;" direction="ltr" dominant-baseline="text-before-edge">key: service_id</text><text x="0" y="20" font-family="Virgil, Segoe UI Emoji" font-size="16px" fill="#1e1e1e" text-anchor="start" style="white-space: pre;" direction="ltr" dominant-baseline="text-before-edge">    backend_index</text><text x="0" y="40" font-family="Virgil, Segoe UI Emoji" font-size="16px" fill="#1e1e1e" text-anchor="start" style="white-space: pre;" direction="ltr" dominant-baseline="text-before-edge">val: backend_uid</text></g><g stroke-linecap="round" transform="translate(624.7460098266602 74.80669350772223) rotate(0 62.5 15)"><path d="M7.5 0 C45.65 5.01, 90.5 1.44, 117.5 0 C121.89 -2.98, 122.59 3.53, 125 7.5 C125.2 13.28, 127.16 15.75, 125 22.5 C123.07 28.38, 124.81 27.67, 117.5 30 C92.71 32.18, 65.22 31.45, 7.5 30 C1.11 28.9, 3.2 28.09, 0 22.5 C0.09 17.95, -1.41 10.64, 0 7.5 C1.07 3.99, 4.09 -3.56, 7.5 0" stroke="none" stroke-width="0" fill="#b2f2bb"></path><path d="M7.5 0 C45.53 -0.92, 84.07 -1.82, 117.5 0 M7.5 0 C36.13 -0.69, 66.31 0.09, 117.5 0 M117.5 0 C124.36 0.66, 125.61 3.82, 125 7.5 M117.5 0 C121.64 0.73, 124.01 4.34, 125 7.5 M125 7.5 C124.52 10.75, 124.35 14.52, 125 22.5 M125 7.5 C124.52 11.4, 125.5 14.81, 125 22.5 M125 22.5 C125.96 25.59, 121.31 29.63, 117.5 30 M125 22.5 C122.8 28.73, 121.43 31.7, 117.5 30 M117.5 30 C80.1 31.01, 41.87 27.96, 7.5 30 M117.5 30 C81.69 30.55, 46.83 29.8, 7.5 30 M7.5 30 C1.64 30.15, 0.52 29.23, 0 22.5 M7.5 30 C1.53 29.02, 0.34 29.27, 0 22.5 M0 22.5 C0.6 15.86, 0.49 11.09, 0 7.5 M0 22.5 C-0.51 17.65, -0.08 13.48, 0 7.5 M0 7.5 C-1.7 1.97, 1.56 -0.18, 7.5 0 M0 7.5 C1.44 3.24, 3.68 -1.03, 7.5 0" stroke="#1e1e1e" stroke-width="1" fill="none"></path></g><g transform="translate(654.9480285644531 79.80669350772223) rotate(0 31.04798126220703 10)"><text x="31.04798126220703" y="0" font-family="Virgil, Segoe UI Emoji" font-size="16px" fill="#1e1e1e" text-anchor="middle" style="white-space: pre;" direction="ltr" dominant-baseline="text-before-edge">endpoint</text></g><g stroke-linecap="round" transform="translate(599.25 68.80669350772223) rotate(0 92 67)"><path d="M32 0 C67.98 2.12, 106.84 -0.83, 152 0 M32 0 C70.69 -0.79, 107.83 -0.46, 152 0 M152 0 C172.58 0.63, 183.14 12.27, 184 32 M152 0 C171.52 -0.68, 181.8 10, 184 32 M184 32 C182.19 53.99, 184.91 71.87, 184 102 M184 32 C184.85 57.17, 183.78 84.05, 184 102 M184 102 C182.08 124.4, 172.4 135.48, 152 134 M184 102 C184.99 121.14, 172.62 134.4, 152 134 M152 134 C108.35 133.57, 63.89 132.36, 32 134 M152 134 C109.66 133.77, 68.44 134.55, 32 134 M32 134 C9.83 133.15, 0.3 124.87, 0 102 M32 134 C12.93 131.92, 1.17 124.04, 0 102 M0 102 C-0.51 83.25, 0.04 64.67, 0 32 M0 102 C-0.72 86.42, -0.34 71.28, 0 32 M0 32 C1.25 11.31, 11.7 -0.89, 32 0 M0 32 C1.58 9.05, 8.45 -1.55, 32 0" stroke="#1e1e1e" stroke-width="1" fill="none"></path></g><g transform="translate(50.308921663757246 10) rotate(0 68.37890625 11.5)"><text x="0" y="0" font-family="Helvetica, Segoe UI Emoji" font-size="20px" fill="#1971c2" text-anchor="start" style="white-space: pre;" direction="ltr" dominant-baseline="text-before-edge">update process</text></g><g transform="translate(284.56507873535156 125.27834675386111) rotate(0 102.05992126464844 37.5)"><text x="0" y="0" font-family="Virgil, Segoe UI Emoji" font-size="20px" fill="#1e1e1e" text-anchor="start" style="white-space: pre;" direction="ltr" dominant-baseline="text-before-edge">update workload</text><text x="0" y="25" font-family="Virgil, Segoe UI Emoji" font-size="20px" fill="#1e1e1e" text-anchor="start" style="white-space: pre;" direction="ltr" dominant-baseline="text-before-edge">    1.update backend</text><text x="0" y="50" font-family="Virgil, Segoe UI Emoji" font-size="20px" fill="#1e1e1e" text-anchor="start" style="white-space: pre;" direction="ltr" dominant-baseline="text-before-edge">    2.update service</text></g><g transform="translate(283.15513610839844 249.77834675386111) rotate(0 161.46986389160156 25)"><text x="0" y="0" font-family="Virgil, Segoe UI Emoji" font-size="20px" fill="#1e1e1e" text-anchor="start" style="white-space: pre;" direction="ltr" dominant-baseline="text-before-edge">update service</text><text x="0" y="25" font-family="Virgil, Segoe UI Emoji" font-size="20px" fill="#1e1e1e" text-anchor="start" style="white-space: pre;" direction="ltr" dominant-baseline="text-before-edge">    such as:update service_port</text></g><g stroke-linecap="round"><g transform="translate(496.125 164.4172269830924) rotate(0 68.375 51.05091619714403)"><path d="M-1.18 0.11 C21.7 17.3, 114.83 85.32, 137.91 102.43 M0.4 -0.88 C23.17 16, 114.83 83.54, 137.57 100.48" stroke="#1971c2" stroke-width="1" fill="none"></path></g><g transform="translate(496.125 164.4172269830924) rotate(0 68.375 51.05091619714403)"><path d="M113.6 93.37 C122.21 98.05, 131.05 99.55, 137.57 100.48 M113.6 93.37 C122.56 95.85, 130.7 98.32, 137.57 100.48" stroke="#1971c2" stroke-width="1" fill="none"></path></g><g transform="translate(496.125 164.4172269830924) rotate(0 68.375 51.05091619714403)"><path d="M123.77 79.63 C128.7 89.06, 133.95 95.42, 137.57 100.48 M123.77 79.63 C129.28 87.01, 133.83 94.34, 137.57 100.48" stroke="#1971c2" stroke-width="1" fill="none"></path></g></g><mask></mask><g stroke-linecap="round"><g transform="translate(326.625 204.77834675386111) rotate(0 -60.5 40.5)"><path d="M0.22 -0.47 C-19.78 12.95, -100.14 67.39, -120.42 80.97 M-1.12 -1.77 C-21.2 11.81, -100.84 68.48, -121.07 82.49" stroke="#1971c2" stroke-width="1" fill="none"></path></g><g transform="translate(326.625 204.77834675386111) rotate(0 -60.5 40.5)"><path d="M-106.76 61.99 C-111.3 68.46, -114.39 72.21, -121.07 82.49 M-106.76 61.99 C-110.79 67.21, -115.12 74.53, -121.07 82.49" stroke="#1971c2" stroke-width="1" fill="none"></path></g><g transform="translate(326.625 204.77834675386111) rotate(0 -60.5 40.5)"><path d="M-96.93 75.98 C-104.15 78.73, -109.87 78.74, -121.07 82.49 M-96.93 75.98 C-104.01 76.96, -111.3 80.09, -121.07 82.49" stroke="#1971c2" stroke-width="1" fill="none"></path></g></g><mask></mask><g stroke-linecap="round"><g transform="translate(353.18273022030826 300.7783467538611) rotate(0 -71.77886511015413 13.932840264340484)"><path d="M0.03 0.45 C-23.85 4.94, -119.91 22.38, -143.71 26.82 M-1.41 -0.36 C-25.43 4.26, -121.12 23.08, -144.73 27.81" stroke="#1971c2" stroke-width="1" fill="none"></path></g><g transform="translate(353.18273022030826 300.7783467538611) rotate(0 -71.77886511015413 13.932840264340484)"><path d="M-123.35 14.86 C-128.31 18.06, -136.49 23.09, -144.73 27.81 M-123.35 14.86 C-127.62 17.5, -133.3 20.54, -144.73 27.81" stroke="#1971c2" stroke-width="1" fill="none"></path></g><g transform="translate(353.18273022030826 300.7783467538611) rotate(0 -71.77886511015413 13.932840264340484)"><path d="M-120.03 31.63 C-125.85 30.37, -134.92 30.93, -144.73 27.81 M-120.03 31.63 C-124.96 30.27, -131.43 29.32, -144.73 27.81" stroke="#1971c2" stroke-width="1" fill="none"></path></g></g><mask></mask><g transform="translate(676.9245812552308 285.0521562776703) rotate(0 89.51994323730469 50)"><text x="0" y="0" font-family="Virgil, Segoe UI Emoji" font-size="16px" fill="#1e1e1e" text-anchor="start" style="white-space: pre;" direction="ltr" dominant-baseline="text-before-edge">key: backend_uid</text><text x="0" y="20" font-family="Virgil, Segoe UI Emoji" font-size="16px" fill="#1e1e1e" text-anchor="start" style="white-space: pre;" direction="ltr" dominant-baseline="text-before-edge">val: ip</text><text x="0" y="40" font-family="Virgil, Segoe UI Emoji" font-size="16px" fill="#1e1e1e" text-anchor="start" style="white-space: pre;" direction="ltr" dominant-baseline="text-before-edge">    count</text><text x="0" y="60" font-family="Virgil, Segoe UI Emoji" font-size="16px" fill="#1e1e1e" text-anchor="start" style="white-space: pre;" direction="ltr" dominant-baseline="text-before-edge">    service_port[MAX]</text><text x="0" y="80" font-family="Virgil, Segoe UI Emoji" font-size="16px" fill="#1e1e1e" text-anchor="start" style="white-space: pre;" direction="ltr" dominant-baseline="text-before-edge">    target_port[MAX]</text></g><g stroke-linecap="round" transform="translate(667.6745812552308 249.8021562776703) rotate(0 62.5 15)"><path d="M7.5 0 C52.91 -2.36, 95.09 -0.63, 117.5 0 C125.37 1.85, 126.15 0.66, 125 7.5 C126.12 8.68, 127.65 14.63, 125 22.5 C122.06 28.92, 121.81 27.94, 117.5 30 C82.6 31.5, 42.47 34.04, 7.5 30 C3.76 26.53, 2.96 24.85, 0 22.5 C0.7 18.28, 2.32 13.08, 0 7.5 C3.25 0.6, 2.15 1.67, 7.5 0" stroke="none" stroke-width="0" fill="#b2f2bb"></path><path d="M7.5 0 C39.79 0.98, 71.41 -0.95, 117.5 0 M7.5 0 C34.17 -1.07, 60.15 -0.42, 117.5 0 M117.5 0 C121.69 -1.91, 126.35 1.62, 125 7.5 M117.5 0 C123.2 0.28, 127.19 3.27, 125 7.5 M125 7.5 C123.83 12.33, 123.7 17.46, 125 22.5 M125 7.5 C125.09 10.64, 125.59 14.71, 125 22.5 M125 22.5 C124.04 25.71, 123.98 29.57, 117.5 30 M125 22.5 C126.81 26.55, 120.58 29.06, 117.5 30 M117.5 30 C91.58 31.65, 64.86 30.71, 7.5 30 M117.5 30 C90.4 30.56, 63.82 30.37, 7.5 30 M7.5 30 C3.57 31.32, 1.39 25.81, 0 22.5 M7.5 30 C3.2 27.72, 2.07 26.96, 0 22.5 M0 22.5 C-1.07 19.75, -1.31 17.63, 0 7.5 M0 22.5 C0.27 17.38, 0.38 13.24, 0 7.5 M0 7.5 C-1.28 3.43, 2.58 0.29, 7.5 0 M0 7.5 C0.33 1.52, 3.02 -0.53, 7.5 0" stroke="#1e1e1e" stroke-width="1" fill="none"></path></g><g transform="translate(700.1985985892152 254.8021562776703) rotate(0 29.975982666015625 10)"><text x="29.975982666015625" y="0" font-family="Virgil, Segoe UI Emoji" font-size="16px" fill="#1e1e1e" text-anchor="middle" style="white-space: pre;" direction="ltr" dominant-baseline="text-before-edge">backend</text></g><g stroke-linecap="round" transform="translate(643.6785714285706 239.8021562776703) rotate(0 113.625 77.25)"><path d="M32 0 C91.14 1.23, 154.25 1.81, 195.25 0 M32 0 C75.93 -1.55, 121.35 -1.03, 195.25 0 M195.25 0 C217.2 0.24, 229.15 11.33, 227.25 32 M195.25 0 C216.98 0.5, 226.38 8.83, 227.25 32 M227.25 32 C224.81 60.16, 224.58 87.3, 227.25 122.5 M227.25 32 C227.43 56.56, 228.65 82.69, 227.25 122.5 M227.25 122.5 C228.83 143.01, 214.91 153.68, 195.25 154.5 M227.25 122.5 C226 144.48, 217.4 155.78, 195.25 154.5 M195.25 154.5 C134.89 156.58, 78.5 154.64, 32 154.5 M195.25 154.5 C153.87 154.14, 112.1 152.64, 32 154.5 M32 154.5 C11.28 152.51, 1.8 143.36, 0 122.5 M32 154.5 C8.59 153.08, -0.88 142.05, 0 122.5 M0 122.5 C0.98 94.26, 0.48 64.37, 0 32 M0 122.5 C-1.22 102.12, -0.54 80.95, 0 32 M0 32 C0.28 9.82, 11.12 -0.46, 32 0 M0 32 C2.17 8.72, 10.77 1.29, 32 0" stroke="#1e1e1e" stroke-width="1" fill="none"></path></g></svg>